%TF.GenerationSoftware,KiCad,Pcbnew,9.0.3*%
%TF.CreationDate,2026-03-25T01:00:39-05:00*%
%TF.ProjectId,roboTin,726f626f-5469-46e2-9e6b-696361645f70,rev?*%
%TF.SameCoordinates,Original*%
%TF.FileFunction,Soldermask,Bot*%
%TF.FilePolarity,Negative*%
%FSLAX46Y46*%
G04 Gerber Fmt 4.6, Leading zero omitted, Abs format (unit mm)*
G04 Created by KiCad (PCBNEW 9.0.3) date 2026-03-25 01:00:39*
%MOMM*%
%LPD*%
G01*
G04 APERTURE LIST*
G04 Aperture macros list*
%AMRoundRect*
0 Rectangle with rounded corners*
0 $1 Rounding radius*
0 $2 $3 $4 $5 $6 $7 $8 $9 X,Y pos of 4 corners*
0 Add a 4 corners polygon primitive as box body*
4,1,4,$2,$3,$4,$5,$6,$7,$8,$9,$2,$3,0*
0 Add four circle primitives for the rounded corners*
1,1,$1+$1,$2,$3*
1,1,$1+$1,$4,$5*
1,1,$1+$1,$6,$7*
1,1,$1+$1,$8,$9*
0 Add four rect primitives between the rounded corners*
20,1,$1+$1,$2,$3,$4,$5,0*
20,1,$1+$1,$4,$5,$6,$7,0*
20,1,$1+$1,$6,$7,$8,$9,0*
20,1,$1+$1,$8,$9,$2,$3,0*%
G04 Aperture macros list end*
%ADD10R,1.700000X1.700000*%
%ADD11C,1.700000*%
%ADD12RoundRect,0.249999X1.550001X-0.790001X1.550001X0.790001X-1.550001X0.790001X-1.550001X-0.790001X0*%
%ADD13O,3.600000X2.080000*%
%ADD14O,1.524000X1.900000*%
G04 APERTURE END LIST*
D10*
%TO.C,I2C1*%
X127120000Y-105000000D03*
D11*
X124580000Y-105000000D03*
X122040000Y-105000000D03*
X119500000Y-105000000D03*
%TD*%
D12*
%TO.C,V1*%
X155722500Y-99045000D03*
D13*
X155722500Y-93965000D03*
%TD*%
D10*
%TO.C,Servo1*%
X84000000Y-96000000D03*
D11*
X81460000Y-96000000D03*
X78920000Y-96000000D03*
%TD*%
D12*
%TO.C,V2*%
X155722500Y-83045000D03*
D13*
X155722500Y-77965000D03*
%TD*%
D14*
%TO.C,ESP32_1*%
X84840000Y-65140000D03*
X87380000Y-65140000D03*
X89920000Y-65140000D03*
X92460000Y-65140000D03*
X95000000Y-65140000D03*
X97540000Y-65140000D03*
X100080000Y-65140000D03*
X102620000Y-65140000D03*
X105160000Y-65140000D03*
X107700000Y-65140000D03*
X110240000Y-65140000D03*
X112780000Y-65140000D03*
X115320000Y-65140000D03*
X117860000Y-65140000D03*
X120400000Y-65140000D03*
X120400000Y-88000000D03*
X117860000Y-88000000D03*
X115320000Y-88000000D03*
X112780000Y-88000000D03*
X110240000Y-88000000D03*
X107700000Y-88000000D03*
X105160000Y-88000000D03*
X102620000Y-88000000D03*
X100080000Y-88000000D03*
X97540000Y-88000000D03*
X95000000Y-88000000D03*
X92460000Y-88000000D03*
X89920000Y-88000000D03*
X87380000Y-88000000D03*
X84840000Y-88000000D03*
%TD*%
D10*
%TO.C,R1*%
X91570000Y-58000000D03*
D11*
X94110000Y-58000000D03*
X96650000Y-58000000D03*
X99190000Y-58000000D03*
X101730000Y-58000000D03*
X104270000Y-58000000D03*
X106810000Y-58000000D03*
X109350000Y-58000000D03*
X111890000Y-58000000D03*
X114430000Y-58000000D03*
X116970000Y-58000000D03*
X119510000Y-58000000D03*
X122050000Y-58000000D03*
X124590000Y-58000000D03*
X127130000Y-58000000D03*
%TD*%
D10*
%TO.C,V+1*%
X107780000Y-105000000D03*
D11*
X105240000Y-105000000D03*
X102700000Y-105000000D03*
X100160000Y-105000000D03*
X97620000Y-105000000D03*
X95080000Y-105000000D03*
X92540000Y-105000000D03*
X90000000Y-105000000D03*
X87460000Y-105000000D03*
X84920000Y-105000000D03*
%TD*%
D12*
%TO.C,V3*%
X155722500Y-67045000D03*
D13*
X155722500Y-61965000D03*
%TD*%
D10*
%TO.C,Encoder1*%
X141000000Y-82500000D03*
D11*
X141000000Y-85040000D03*
X141000000Y-87580000D03*
X141000000Y-90120000D03*
X141000000Y-92660000D03*
X141000000Y-95200000D03*
%TD*%
D10*
%TO.C,L1*%
X91840000Y-96000000D03*
D11*
X94380000Y-96000000D03*
X96920000Y-96000000D03*
X99460000Y-96000000D03*
X102000000Y-96000000D03*
X104540000Y-96000000D03*
X107080000Y-96000000D03*
X109620000Y-96000000D03*
X112160000Y-96000000D03*
X114700000Y-96000000D03*
X117240000Y-96000000D03*
X119780000Y-96000000D03*
X122320000Y-96000000D03*
X124860000Y-96000000D03*
X127400000Y-96000000D03*
%TD*%
D10*
%TO.C,Gnd1*%
X107700000Y-112000000D03*
D11*
X105160000Y-112000000D03*
X102620000Y-112000000D03*
X100080000Y-112000000D03*
X97540000Y-112000000D03*
X95000000Y-112000000D03*
X92460000Y-112000000D03*
X89920000Y-112000000D03*
X87380000Y-112000000D03*
X84840000Y-112000000D03*
%TD*%
D12*
%TO.C,Vin1*%
X155500000Y-114500000D03*
D13*
X155500000Y-109420000D03*
%TD*%
D10*
%TO.C,PWM1*%
X141000000Y-63500000D03*
D11*
X141000000Y-66040000D03*
X141000000Y-68580000D03*
X141000000Y-71120000D03*
X141000000Y-73660000D03*
X141000000Y-76200000D03*
%TD*%
D10*
%TO.C,Enable1*%
X78000000Y-102000000D03*
D11*
X78000000Y-104540000D03*
X78000000Y-107080000D03*
X78000000Y-109620000D03*
X78000000Y-112160000D03*
X78000000Y-114700000D03*
%TD*%
M02*
