%TF.GenerationSoftware,KiCad,Pcbnew,9.0.3*%
%TF.CreationDate,2026-03-25T01:00:44-05:00*%
%TF.ProjectId,roboTin,726f626f-5469-46e2-9e6b-696361645f70,rev?*%
%TF.SameCoordinates,Original*%
%TF.FileFunction,Plated,1,2,PTH,Drill*%
%TF.FilePolarity,Positive*%
%FSLAX46Y46*%
G04 Gerber Fmt 4.6, Leading zero omitted, Abs format (unit mm)*
G04 Created by KiCad (PCBNEW 9.0.3) date 2026-03-25 01:00:44*
%MOMM*%
%LPD*%
G01*
G04 APERTURE LIST*
%TA.AperFunction,ComponentDrill*%
%ADD10C,0.800000*%
%TD*%
%TA.AperFunction,ComponentDrill*%
%ADD11C,1.000000*%
%TD*%
%TA.AperFunction,ComponentDrill*%
%ADD12C,1.400000*%
%TD*%
G04 APERTURE END LIST*
D10*
%TO.C,ESP32_1*%
X84840000Y-65140000D03*
X84840000Y-88000000D03*
X87380000Y-65140000D03*
X87380000Y-88000000D03*
X89920000Y-65140000D03*
X89920000Y-88000000D03*
X92460000Y-65140000D03*
X92460000Y-88000000D03*
X95000000Y-65140000D03*
X95000000Y-88000000D03*
X97540000Y-65140000D03*
X97540000Y-88000000D03*
X100080000Y-65140000D03*
X100080000Y-88000000D03*
X102620000Y-65140000D03*
X102620000Y-88000000D03*
X105160000Y-65140000D03*
X105160000Y-88000000D03*
X107700000Y-65140000D03*
X107700000Y-88000000D03*
X110240000Y-65140000D03*
X110240000Y-88000000D03*
X112780000Y-65140000D03*
X112780000Y-88000000D03*
X115320000Y-65140000D03*
X115320000Y-88000000D03*
X117860000Y-65140000D03*
X117860000Y-88000000D03*
X120400000Y-65140000D03*
X120400000Y-88000000D03*
D11*
%TO.C,Enable1*%
X78000000Y-102000000D03*
X78000000Y-104540000D03*
X78000000Y-107080000D03*
X78000000Y-109620000D03*
X78000000Y-112160000D03*
X78000000Y-114700000D03*
%TO.C,Servo1*%
X78920000Y-96000000D03*
X81460000Y-96000000D03*
X84000000Y-96000000D03*
%TO.C,Gnd1*%
X84840000Y-112000000D03*
%TO.C,V+1*%
X84920000Y-105000000D03*
%TO.C,Gnd1*%
X87380000Y-112000000D03*
%TO.C,V+1*%
X87460000Y-105000000D03*
%TO.C,Gnd1*%
X89920000Y-112000000D03*
%TO.C,V+1*%
X90000000Y-105000000D03*
%TO.C,R1*%
X91570000Y-58000000D03*
%TO.C,L1*%
X91840000Y-96000000D03*
%TO.C,Gnd1*%
X92460000Y-112000000D03*
%TO.C,V+1*%
X92540000Y-105000000D03*
%TO.C,R1*%
X94110000Y-58000000D03*
%TO.C,L1*%
X94380000Y-96000000D03*
%TO.C,Gnd1*%
X95000000Y-112000000D03*
%TO.C,V+1*%
X95080000Y-105000000D03*
%TO.C,R1*%
X96650000Y-58000000D03*
%TO.C,L1*%
X96920000Y-96000000D03*
%TO.C,Gnd1*%
X97540000Y-112000000D03*
%TO.C,V+1*%
X97620000Y-105000000D03*
%TO.C,R1*%
X99190000Y-58000000D03*
%TO.C,L1*%
X99460000Y-96000000D03*
%TO.C,Gnd1*%
X100080000Y-112000000D03*
%TO.C,V+1*%
X100160000Y-105000000D03*
%TO.C,R1*%
X101730000Y-58000000D03*
%TO.C,L1*%
X102000000Y-96000000D03*
%TO.C,Gnd1*%
X102620000Y-112000000D03*
%TO.C,V+1*%
X102700000Y-105000000D03*
%TO.C,R1*%
X104270000Y-58000000D03*
%TO.C,L1*%
X104540000Y-96000000D03*
%TO.C,Gnd1*%
X105160000Y-112000000D03*
%TO.C,V+1*%
X105240000Y-105000000D03*
%TO.C,R1*%
X106810000Y-58000000D03*
%TO.C,L1*%
X107080000Y-96000000D03*
%TO.C,Gnd1*%
X107700000Y-112000000D03*
%TO.C,V+1*%
X107780000Y-105000000D03*
%TO.C,R1*%
X109350000Y-58000000D03*
%TO.C,L1*%
X109620000Y-96000000D03*
%TO.C,R1*%
X111890000Y-58000000D03*
%TO.C,L1*%
X112160000Y-96000000D03*
%TO.C,R1*%
X114430000Y-58000000D03*
%TO.C,L1*%
X114700000Y-96000000D03*
%TO.C,R1*%
X116970000Y-58000000D03*
%TO.C,L1*%
X117240000Y-96000000D03*
%TO.C,I2C1*%
X119500000Y-105000000D03*
%TO.C,R1*%
X119510000Y-58000000D03*
%TO.C,L1*%
X119780000Y-96000000D03*
%TO.C,I2C1*%
X122040000Y-105000000D03*
%TO.C,R1*%
X122050000Y-58000000D03*
%TO.C,L1*%
X122320000Y-96000000D03*
%TO.C,I2C1*%
X124580000Y-105000000D03*
%TO.C,R1*%
X124590000Y-58000000D03*
%TO.C,L1*%
X124860000Y-96000000D03*
%TO.C,I2C1*%
X127120000Y-105000000D03*
%TO.C,R1*%
X127130000Y-58000000D03*
%TO.C,L1*%
X127400000Y-96000000D03*
%TO.C,PWM1*%
X141000000Y-63500000D03*
X141000000Y-66040000D03*
X141000000Y-68580000D03*
X141000000Y-71120000D03*
X141000000Y-73660000D03*
X141000000Y-76200000D03*
%TO.C,Encoder1*%
X141000000Y-82500000D03*
X141000000Y-85040000D03*
X141000000Y-87580000D03*
X141000000Y-90120000D03*
X141000000Y-92660000D03*
X141000000Y-95200000D03*
D12*
%TO.C,Vin1*%
X155500000Y-109420000D03*
X155500000Y-114500000D03*
%TO.C,V3*%
X155722500Y-61965000D03*
X155722500Y-67045000D03*
%TO.C,V2*%
X155722500Y-77965000D03*
X155722500Y-83045000D03*
%TO.C,V1*%
X155722500Y-93965000D03*
X155722500Y-99045000D03*
M02*
