%TF.GenerationSoftware,KiCad,Pcbnew,9.0.3*%
%TF.CreationDate,2026-03-25T01:00:39-05:00*%
%TF.ProjectId,roboTin,726f626f-5469-46e2-9e6b-696361645f70,rev?*%
%TF.SameCoordinates,Original*%
%TF.FileFunction,Copper,L2,Bot*%
%TF.FilePolarity,Positive*%
%FSLAX46Y46*%
G04 Gerber Fmt 4.6, Leading zero omitted, Abs format (unit mm)*
G04 Created by KiCad (PCBNEW 9.0.3) date 2026-03-25 01:00:39*
%MOMM*%
%LPD*%
G01*
G04 APERTURE LIST*
G04 Aperture macros list*
%AMRoundRect*
0 Rectangle with rounded corners*
0 $1 Rounding radius*
0 $2 $3 $4 $5 $6 $7 $8 $9 X,Y pos of 4 corners*
0 Add a 4 corners polygon primitive as box body*
4,1,4,$2,$3,$4,$5,$6,$7,$8,$9,$2,$3,0*
0 Add four circle primitives for the rounded corners*
1,1,$1+$1,$2,$3*
1,1,$1+$1,$4,$5*
1,1,$1+$1,$6,$7*
1,1,$1+$1,$8,$9*
0 Add four rect primitives between the rounded corners*
20,1,$1+$1,$2,$3,$4,$5,0*
20,1,$1+$1,$4,$5,$6,$7,0*
20,1,$1+$1,$6,$7,$8,$9,0*
20,1,$1+$1,$8,$9,$2,$3,0*%
G04 Aperture macros list end*
%TA.AperFunction,NonConductor*%
%ADD10C,0.000000*%
%TD*%
%TA.AperFunction,ComponentPad*%
%ADD11R,1.700000X1.700000*%
%TD*%
%TA.AperFunction,ComponentPad*%
%ADD12C,1.700000*%
%TD*%
%TA.AperFunction,ComponentPad*%
%ADD13RoundRect,0.249999X1.550001X-0.790001X1.550001X0.790001X-1.550001X0.790001X-1.550001X-0.790001X0*%
%TD*%
%TA.AperFunction,ComponentPad*%
%ADD14O,3.600000X2.080000*%
%TD*%
%TA.AperFunction,ComponentPad*%
%ADD15O,1.524000X1.900000*%
%TD*%
%TA.AperFunction,Conductor*%
%ADD16C,1.250000*%
%TD*%
%TA.AperFunction,Conductor*%
%ADD17C,2.000000*%
%TD*%
%TA.AperFunction,Conductor*%
%ADD18C,0.800000*%
%TD*%
G04 APERTURE END LIST*
D10*
%TA.AperFunction,NonConductor*%
G36*
X138676321Y-110802189D02*
G01*
X138900295Y-110812185D01*
X139138258Y-110832897D01*
X139379422Y-110863581D01*
X139612995Y-110903492D01*
X139723563Y-110926675D01*
X139828188Y-110951886D01*
X139941484Y-110980349D01*
X140068992Y-111008143D01*
X140206473Y-111034597D01*
X140349682Y-111059042D01*
X140494381Y-111080808D01*
X140636325Y-111099226D01*
X140771275Y-111113625D01*
X140894989Y-111123336D01*
X141103460Y-111138244D01*
X141186585Y-111146079D01*
X141256641Y-111155681D01*
X141287004Y-111161500D01*
X141314382Y-111168186D01*
X141338869Y-111175881D01*
X141360560Y-111184728D01*
X141379549Y-111194867D01*
X141395930Y-111206441D01*
X141409797Y-111219592D01*
X141421245Y-111234461D01*
X141430367Y-111251191D01*
X141437258Y-111269923D01*
X141442011Y-111290798D01*
X141444722Y-111313960D01*
X141445484Y-111339550D01*
X141444392Y-111367709D01*
X141437020Y-111432303D01*
X141423360Y-111508879D01*
X141404166Y-111598569D01*
X141352187Y-111821836D01*
X141297102Y-112026912D01*
X141227618Y-112231932D01*
X141144517Y-112435947D01*
X141048578Y-112638009D01*
X140940585Y-112837169D01*
X140821318Y-113032478D01*
X140691558Y-113222987D01*
X140552088Y-113407748D01*
X140403688Y-113585812D01*
X140247139Y-113756229D01*
X140083224Y-113918052D01*
X139912723Y-114070331D01*
X139736417Y-114212118D01*
X139555089Y-114342463D01*
X139369519Y-114460419D01*
X139180488Y-114565036D01*
X139118257Y-114596203D01*
X139061848Y-114622979D01*
X139010238Y-114645291D01*
X138962406Y-114663064D01*
X138917326Y-114676223D01*
X138895499Y-114681049D01*
X138873977Y-114684694D01*
X138852631Y-114687148D01*
X138831335Y-114688402D01*
X138809959Y-114688447D01*
X138788376Y-114687274D01*
X138766458Y-114684872D01*
X138744078Y-114681234D01*
X138721107Y-114676349D01*
X138697417Y-114670208D01*
X138647371Y-114654122D01*
X138592915Y-114632902D01*
X138533027Y-114606473D01*
X138466684Y-114574760D01*
X138310539Y-114495186D01*
X138120127Y-114384698D01*
X137932924Y-114256602D01*
X137749908Y-114112340D01*
X137572053Y-113953352D01*
X137400338Y-113781082D01*
X137235739Y-113596971D01*
X137079232Y-113402460D01*
X136931795Y-113198992D01*
X136794403Y-112988008D01*
X136668034Y-112770950D01*
X136553664Y-112549259D01*
X136452270Y-112324379D01*
X136364829Y-112097749D01*
X136292317Y-111870812D01*
X136235712Y-111645011D01*
X136195988Y-111421785D01*
X136164238Y-111161436D01*
X136684938Y-111116986D01*
X136888175Y-111096659D01*
X137102351Y-111069857D01*
X137319950Y-111037846D01*
X137533457Y-111001892D01*
X137735355Y-110963259D01*
X137918128Y-110923211D01*
X138074261Y-110883015D01*
X138139989Y-110863257D01*
X138196238Y-110843935D01*
X138248401Y-110828963D01*
X138313503Y-110817320D01*
X138390194Y-110808914D01*
X138477127Y-110803653D01*
X138572952Y-110801442D01*
X138676321Y-110802189D01*
G37*
%TD.AperFunction*%
%TA.AperFunction,NonConductor*%
G36*
X144868713Y-110156471D02*
G01*
X144892436Y-110158916D01*
X144916900Y-110163089D01*
X144942357Y-110168988D01*
X144997245Y-110185962D01*
X145059100Y-110209829D01*
X145129922Y-110240579D01*
X145211711Y-110278203D01*
X145416188Y-110374036D01*
X145592766Y-110459634D01*
X145764694Y-110549231D01*
X145931040Y-110642066D01*
X146090875Y-110737375D01*
X146243269Y-110834395D01*
X146387291Y-110932365D01*
X146522012Y-111030520D01*
X146646500Y-111128098D01*
X146759827Y-111224337D01*
X146861061Y-111318474D01*
X146949272Y-111409746D01*
X146988204Y-111454070D01*
X147023531Y-111497391D01*
X147055138Y-111539614D01*
X147082908Y-111580644D01*
X147106724Y-111620386D01*
X147126471Y-111658745D01*
X147142032Y-111695624D01*
X147153291Y-111730930D01*
X147160131Y-111764565D01*
X147162438Y-111796436D01*
X147159889Y-111829429D01*
X147152317Y-111862886D01*
X147139834Y-111896750D01*
X147122552Y-111930964D01*
X147074034Y-112000214D01*
X147007657Y-112070180D01*
X146924313Y-112140407D01*
X146824896Y-112210438D01*
X146710298Y-112279818D01*
X146581413Y-112348092D01*
X146439134Y-112414802D01*
X146284352Y-112479495D01*
X146117963Y-112541713D01*
X145940857Y-112601001D01*
X145753929Y-112656903D01*
X145558071Y-112708963D01*
X145354177Y-112756726D01*
X145143138Y-112799736D01*
X144907783Y-112833478D01*
X144646189Y-112852086D01*
X144364260Y-112856649D01*
X144067904Y-112848254D01*
X143763029Y-112827990D01*
X143455539Y-112796946D01*
X143151342Y-112756209D01*
X142856345Y-112706868D01*
X142576453Y-112650011D01*
X142317574Y-112586726D01*
X142085615Y-112518103D01*
X141886482Y-112445228D01*
X141726081Y-112369191D01*
X141662251Y-112330326D01*
X141610319Y-112291079D01*
X141571023Y-112251586D01*
X141545103Y-112211982D01*
X141533295Y-112172403D01*
X141536339Y-112132987D01*
X141546719Y-112096734D01*
X141558663Y-112046567D01*
X141586345Y-111913117D01*
X141650638Y-111574185D01*
X141726839Y-111155085D01*
X142234839Y-111078886D01*
X142362251Y-111058763D01*
X142493924Y-111034287D01*
X142629057Y-111005719D01*
X142766850Y-110973317D01*
X142906503Y-110937344D01*
X143047217Y-110898060D01*
X143328626Y-110810599D01*
X143604677Y-110713017D01*
X143738694Y-110661082D01*
X143868971Y-110607398D01*
X143994709Y-110552227D01*
X144115108Y-110495827D01*
X144229367Y-110438460D01*
X144336688Y-110380386D01*
X144514079Y-110282445D01*
X144585226Y-110243943D01*
X144647342Y-110212409D01*
X144702425Y-110187832D01*
X144727955Y-110178150D01*
X144752477Y-110170203D01*
X144776240Y-110163992D01*
X144799496Y-110159514D01*
X144822493Y-110156769D01*
X144845482Y-110155755D01*
X144868713Y-110156471D01*
G37*
%TD.AperFunction*%
%TA.AperFunction,NonConductor*%
G36*
X132752217Y-110133307D02*
G01*
X132801219Y-110153175D01*
X132964632Y-110226398D01*
X133195911Y-110335340D01*
X133471838Y-110469286D01*
X133605104Y-110533206D01*
X133738166Y-110593991D01*
X133870967Y-110651633D01*
X134003452Y-110706121D01*
X134135565Y-110757446D01*
X134267250Y-110805600D01*
X134398451Y-110850573D01*
X134529113Y-110892354D01*
X134659180Y-110930937D01*
X134788595Y-110966310D01*
X134917303Y-110998464D01*
X135045249Y-111027391D01*
X135172376Y-111053081D01*
X135298629Y-111075525D01*
X135423952Y-111094713D01*
X135548288Y-111110636D01*
X135897538Y-111155085D01*
X135973739Y-111542436D01*
X136004099Y-111708330D01*
X136035651Y-111869461D01*
X136050757Y-111942288D01*
X136064821Y-112006780D01*
X136077397Y-112060557D01*
X136088038Y-112101236D01*
X136093272Y-112127331D01*
X136096869Y-112151044D01*
X136098531Y-112172674D01*
X136097960Y-112192517D01*
X136096745Y-112201862D01*
X136094859Y-112210873D01*
X136092267Y-112219585D01*
X136088931Y-112228038D01*
X136084814Y-112236266D01*
X136079877Y-112244309D01*
X136074086Y-112252203D01*
X136067401Y-112259986D01*
X136059786Y-112267694D01*
X136051203Y-112275365D01*
X136030987Y-112290744D01*
X136006456Y-112306420D01*
X135977310Y-112322692D01*
X135943253Y-112339857D01*
X135903987Y-112358212D01*
X135859215Y-112378056D01*
X135808638Y-112399685D01*
X135647432Y-112464824D01*
X135479750Y-112524537D01*
X135127477Y-112627864D01*
X134756860Y-112710020D01*
X134372943Y-112771359D01*
X133980765Y-112812234D01*
X133585369Y-112832998D01*
X133191796Y-112834006D01*
X132805088Y-112815610D01*
X132430286Y-112778165D01*
X132072432Y-112722022D01*
X131736567Y-112647537D01*
X131427733Y-112555062D01*
X131285029Y-112502189D01*
X131150972Y-112444951D01*
X131026194Y-112383393D01*
X130911325Y-112317558D01*
X130806994Y-112247490D01*
X130713833Y-112173235D01*
X130632471Y-112094835D01*
X130563538Y-112012336D01*
X130430188Y-111834536D01*
X130557188Y-111599585D01*
X130595508Y-111536166D01*
X130643484Y-111469956D01*
X130700649Y-111401291D01*
X130766540Y-111330504D01*
X130840690Y-111257932D01*
X130922635Y-111183909D01*
X131011911Y-111108769D01*
X131108051Y-111032848D01*
X131210590Y-110956481D01*
X131319064Y-110880002D01*
X131433007Y-110803746D01*
X131551955Y-110728048D01*
X131675442Y-110653243D01*
X131803003Y-110579666D01*
X131934174Y-110507652D01*
X132068488Y-110437535D01*
X132316336Y-110316588D01*
X132522513Y-110217667D01*
X132603649Y-110179629D01*
X132666777Y-110150893D01*
X132709367Y-110132724D01*
X132722169Y-110127997D01*
X132728888Y-110126386D01*
X132752217Y-110133307D01*
G37*
%TD.AperFunction*%
%TA.AperFunction,NonConductor*%
G36*
X143727105Y-108343762D02*
G01*
X143918345Y-108352541D01*
X144111165Y-108367106D01*
X144304144Y-108387280D01*
X144495858Y-108412886D01*
X144684884Y-108443747D01*
X144869798Y-108479688D01*
X145049178Y-108520530D01*
X145221601Y-108566098D01*
X145385642Y-108616214D01*
X145539879Y-108670703D01*
X145682890Y-108729386D01*
X145981337Y-108856386D01*
X145727337Y-109116736D01*
X145485473Y-109347509D01*
X145218792Y-109565428D01*
X144929861Y-109769691D01*
X144621247Y-109959500D01*
X144295518Y-110134053D01*
X143955241Y-110292552D01*
X143602984Y-110434196D01*
X143241313Y-110558185D01*
X142872796Y-110663720D01*
X142500000Y-110750000D01*
X142125493Y-110816225D01*
X141751841Y-110861596D01*
X141381613Y-110885313D01*
X141017374Y-110886575D01*
X140661694Y-110864582D01*
X140317138Y-110818536D01*
X140236859Y-110803672D01*
X140167529Y-110789812D01*
X140109230Y-110776622D01*
X140062047Y-110763767D01*
X140026063Y-110750912D01*
X140012297Y-110744380D01*
X140001362Y-110737723D01*
X139993269Y-110730897D01*
X139988028Y-110723863D01*
X139985650Y-110716577D01*
X139986144Y-110708999D01*
X139989523Y-110701085D01*
X139995795Y-110692795D01*
X140004972Y-110684086D01*
X140017064Y-110674917D01*
X140050034Y-110655030D01*
X140094789Y-110632799D01*
X140151414Y-110607889D01*
X140219991Y-110579965D01*
X140393338Y-110513737D01*
X140542443Y-110454359D01*
X140691714Y-110386079D01*
X140840576Y-110309372D01*
X140988453Y-110224712D01*
X141134766Y-110132573D01*
X141278940Y-110033430D01*
X141420398Y-109927758D01*
X141558563Y-109816030D01*
X141692859Y-109698720D01*
X141822708Y-109576305D01*
X141947535Y-109449257D01*
X142066762Y-109318051D01*
X142179812Y-109183161D01*
X142286109Y-109045063D01*
X142385077Y-108904230D01*
X142476138Y-108761136D01*
X142503157Y-108718491D01*
X142529468Y-108678636D01*
X142555110Y-108641534D01*
X142580119Y-108607149D01*
X142604533Y-108575442D01*
X142628389Y-108546377D01*
X142651724Y-108519917D01*
X142674576Y-108496024D01*
X142696980Y-108474660D01*
X142718976Y-108455790D01*
X142740600Y-108439376D01*
X142751283Y-108432078D01*
X142761888Y-108425380D01*
X142772419Y-108419277D01*
X142782879Y-108413765D01*
X142793275Y-108408839D01*
X142803610Y-108404494D01*
X142813889Y-108400726D01*
X142824117Y-108397530D01*
X142834299Y-108394902D01*
X142844438Y-108392836D01*
X143006424Y-108370036D01*
X143177106Y-108353905D01*
X143355063Y-108344267D01*
X143538870Y-108340945D01*
X143727105Y-108343762D01*
G37*
%TD.AperFunction*%
%TA.AperFunction,NonConductor*%
G36*
X134271541Y-108351263D02*
G01*
X134520729Y-108363479D01*
X134630905Y-108373601D01*
X134729138Y-108386485D01*
X134766706Y-108393835D01*
X134801084Y-108401827D01*
X134832653Y-108410805D01*
X134861793Y-108421113D01*
X134888888Y-108433095D01*
X134914317Y-108447096D01*
X134938463Y-108463459D01*
X134961707Y-108482530D01*
X134984429Y-108504651D01*
X135007012Y-108530167D01*
X135029837Y-108559423D01*
X135053286Y-108592762D01*
X135077739Y-108630528D01*
X135103577Y-108673067D01*
X135131184Y-108720721D01*
X135160938Y-108773836D01*
X135242882Y-108908491D01*
X135335774Y-109042942D01*
X135438805Y-109176537D01*
X135551166Y-109308625D01*
X135672047Y-109438555D01*
X135800639Y-109565676D01*
X135936133Y-109689337D01*
X136077719Y-109808886D01*
X136224590Y-109923673D01*
X136375934Y-110033046D01*
X136530943Y-110136354D01*
X136688808Y-110232947D01*
X136848719Y-110322172D01*
X137009867Y-110403380D01*
X137171443Y-110475918D01*
X137332638Y-110539136D01*
X137481367Y-110594649D01*
X137538244Y-110618108D01*
X137583066Y-110639149D01*
X137615536Y-110658106D01*
X137627045Y-110666908D01*
X137635355Y-110675314D01*
X137640427Y-110683367D01*
X137642226Y-110691108D01*
X137640713Y-110698580D01*
X137635851Y-110705824D01*
X137627603Y-110712881D01*
X137615933Y-110719795D01*
X137582174Y-110733357D01*
X137534276Y-110746844D01*
X137471942Y-110760592D01*
X137394873Y-110774935D01*
X137302774Y-110790209D01*
X137072288Y-110824886D01*
X136733867Y-110863390D01*
X136388981Y-110879320D01*
X136039500Y-110873315D01*
X135687294Y-110846019D01*
X135334232Y-110798073D01*
X134982183Y-110730119D01*
X134633019Y-110642799D01*
X134288607Y-110536754D01*
X133950818Y-110412627D01*
X133621522Y-110271059D01*
X133302588Y-110112692D01*
X132995886Y-109938168D01*
X132703285Y-109748128D01*
X132426655Y-109543215D01*
X132167867Y-109324070D01*
X131928788Y-109091336D01*
X131719238Y-108869086D01*
X131985938Y-108729386D01*
X132048545Y-108699199D01*
X132124844Y-108666481D01*
X132211859Y-108632276D01*
X132306613Y-108597624D01*
X132406129Y-108563567D01*
X132507432Y-108531147D01*
X132607543Y-108501406D01*
X132703488Y-108475386D01*
X132797256Y-108453668D01*
X132903563Y-108433801D01*
X133020659Y-108415850D01*
X133146797Y-108399880D01*
X133419202Y-108374145D01*
X133706788Y-108357117D01*
X133995564Y-108349316D01*
X134271541Y-108351263D01*
G37*
%TD.AperFunction*%
%TA.AperFunction,NonConductor*%
G36*
X145606388Y-107336219D02*
G01*
X145768390Y-107347269D01*
X145931844Y-107364868D01*
X146094647Y-107388346D01*
X146254696Y-107417032D01*
X146409889Y-107450258D01*
X146558125Y-107487353D01*
X146697301Y-107527649D01*
X146825315Y-107570474D01*
X146940064Y-107615160D01*
X147039447Y-107661036D01*
X147082720Y-107684211D01*
X147121362Y-107707433D01*
X147155111Y-107730618D01*
X147183705Y-107753681D01*
X147206881Y-107776540D01*
X147224376Y-107799111D01*
X147235927Y-107821310D01*
X147241271Y-107843052D01*
X147240146Y-107864256D01*
X147232289Y-107884836D01*
X147212811Y-107918064D01*
X147189128Y-107954427D01*
X147130490Y-108035264D01*
X147059053Y-108124752D01*
X146977495Y-108220295D01*
X146888496Y-108319298D01*
X146794734Y-108419166D01*
X146698889Y-108517304D01*
X146603639Y-108611117D01*
X146511663Y-108698009D01*
X146425640Y-108775386D01*
X146348250Y-108840652D01*
X146282170Y-108891211D01*
X146230080Y-108924470D01*
X146210119Y-108933800D01*
X146194659Y-108937832D01*
X146184037Y-108936241D01*
X146180644Y-108933235D01*
X146178586Y-108928702D01*
X146178642Y-108914892D01*
X146184539Y-108894486D01*
X146188963Y-108874838D01*
X146188084Y-108854057D01*
X146182106Y-108832240D01*
X146171231Y-108809480D01*
X146155664Y-108785874D01*
X146135607Y-108761517D01*
X146082840Y-108710931D01*
X146014557Y-108658485D01*
X145932387Y-108604941D01*
X145837957Y-108551062D01*
X145732895Y-108497611D01*
X145618829Y-108445351D01*
X145497387Y-108395044D01*
X145370196Y-108347453D01*
X145238885Y-108303341D01*
X145105080Y-108263470D01*
X144970411Y-108228604D01*
X144836504Y-108199505D01*
X144704988Y-108176936D01*
X144594620Y-108162475D01*
X144551384Y-108155700D01*
X144516175Y-108148163D01*
X144501596Y-108143858D01*
X144489040Y-108139062D01*
X144478515Y-108133676D01*
X144470026Y-108127599D01*
X144463579Y-108120732D01*
X144459179Y-108112974D01*
X144456832Y-108104225D01*
X144456545Y-108094386D01*
X144458322Y-108083356D01*
X144462171Y-108071035D01*
X144468096Y-108057324D01*
X144476103Y-108042122D01*
X144498389Y-108006847D01*
X144529074Y-107964409D01*
X144568205Y-107914009D01*
X144615828Y-107854847D01*
X144736739Y-107707036D01*
X145035188Y-107332386D01*
X145447939Y-107332386D01*
X145606388Y-107336219D01*
G37*
%TD.AperFunction*%
%TA.AperFunction,NonConductor*%
G36*
X132925738Y-107751485D02*
G01*
X133262288Y-108157886D01*
X133078138Y-108157886D01*
X133037792Y-108159275D01*
X132993194Y-108163346D01*
X132892698Y-108178945D01*
X132779551Y-108203511D01*
X132656657Y-108235872D01*
X132526916Y-108274855D01*
X132393231Y-108319290D01*
X132258504Y-108368003D01*
X132125638Y-108419823D01*
X131997534Y-108473578D01*
X131877095Y-108528096D01*
X131767223Y-108582204D01*
X131670819Y-108634731D01*
X131590787Y-108684505D01*
X131530028Y-108730353D01*
X131507783Y-108751439D01*
X131491444Y-108771104D01*
X131481375Y-108789202D01*
X131477938Y-108805586D01*
X131478453Y-108813306D01*
X131479972Y-108822106D01*
X131482459Y-108831873D01*
X131485876Y-108842495D01*
X131490185Y-108853862D01*
X131495351Y-108865861D01*
X131501335Y-108878381D01*
X131508101Y-108891311D01*
X131515610Y-108904538D01*
X131523827Y-108917951D01*
X131532713Y-108931439D01*
X131542232Y-108944889D01*
X131552346Y-108958190D01*
X131563018Y-108971231D01*
X131574211Y-108983900D01*
X131585888Y-108996086D01*
X131591134Y-109002001D01*
X131596154Y-109007834D01*
X131600946Y-109013579D01*
X131605509Y-109019229D01*
X131609838Y-109024776D01*
X131613933Y-109030214D01*
X131617790Y-109035536D01*
X131621408Y-109040734D01*
X131624785Y-109045803D01*
X131627917Y-109050734D01*
X131630802Y-109055521D01*
X131633439Y-109060157D01*
X131635824Y-109064634D01*
X131637956Y-109068947D01*
X131639832Y-109073087D01*
X131641451Y-109077049D01*
X131642808Y-109080824D01*
X131643903Y-109084406D01*
X131644733Y-109087789D01*
X131645295Y-109090964D01*
X131645588Y-109093926D01*
X131645609Y-109096666D01*
X131645355Y-109099179D01*
X131644824Y-109101457D01*
X131644014Y-109103492D01*
X131642923Y-109105280D01*
X131641549Y-109106811D01*
X131639888Y-109108079D01*
X131637939Y-109109078D01*
X131635699Y-109109800D01*
X131633166Y-109110239D01*
X131630338Y-109110386D01*
X131615448Y-109106363D01*
X131594861Y-109095759D01*
X131538214Y-109056473D01*
X131463632Y-108995849D01*
X131374354Y-108917207D01*
X131164655Y-108719154D01*
X130935013Y-108488880D01*
X130711324Y-108252950D01*
X130609805Y-108141166D01*
X130519485Y-108037931D01*
X130443601Y-107946564D01*
X130385391Y-107870388D01*
X130348091Y-107812721D01*
X130338294Y-107791867D01*
X130334938Y-107776886D01*
X130336863Y-107770459D01*
X130342528Y-107763121D01*
X130364406Y-107745942D01*
X130399232Y-107725806D01*
X130445666Y-107703167D01*
X130568003Y-107652205D01*
X130720701Y-107596705D01*
X130893044Y-107540311D01*
X131074316Y-107486671D01*
X131253803Y-107439430D01*
X131420788Y-107402235D01*
X131485752Y-107390664D01*
X131564258Y-107379911D01*
X131653183Y-107370200D01*
X131749401Y-107361754D01*
X131849785Y-107354797D01*
X131951211Y-107349551D01*
X132050554Y-107346239D01*
X132144688Y-107345086D01*
X132589188Y-107338736D01*
X132925738Y-107751485D01*
G37*
%TD.AperFunction*%
%TA.AperFunction,NonConductor*%
G36*
X142866564Y-106951882D02*
G01*
X142875891Y-106952651D01*
X142884121Y-106953846D01*
X142891209Y-106955477D01*
X142897111Y-106957550D01*
X142901780Y-106960075D01*
X142905171Y-106963058D01*
X142907239Y-106966510D01*
X142907938Y-106970436D01*
X142897917Y-107011810D01*
X142870632Y-107115692D01*
X142780937Y-107446686D01*
X142701804Y-107705452D01*
X142609835Y-107955306D01*
X142505290Y-108195970D01*
X142388428Y-108427166D01*
X142259512Y-108648612D01*
X142118802Y-108860032D01*
X141966557Y-109061145D01*
X141803038Y-109251673D01*
X141628506Y-109431337D01*
X141443221Y-109599857D01*
X141247444Y-109756954D01*
X141041435Y-109902350D01*
X140825454Y-110035765D01*
X140599763Y-110156920D01*
X140364621Y-110265537D01*
X140120288Y-110361336D01*
X139701188Y-110513737D01*
X139898038Y-110304185D01*
X139960042Y-110237326D01*
X140017535Y-110169955D01*
X140070619Y-110101858D01*
X140119395Y-110032822D01*
X140163968Y-109962633D01*
X140204438Y-109891076D01*
X140240909Y-109817938D01*
X140273482Y-109743005D01*
X140302260Y-109666062D01*
X140327346Y-109586896D01*
X140348840Y-109505293D01*
X140366847Y-109421040D01*
X140381468Y-109333921D01*
X140392805Y-109243723D01*
X140400961Y-109150233D01*
X140406039Y-109053235D01*
X140408539Y-108976446D01*
X140411458Y-108907434D01*
X140415066Y-108845341D01*
X140419631Y-108789314D01*
X140425425Y-108738495D01*
X140432716Y-108692030D01*
X140441774Y-108649062D01*
X140452870Y-108608736D01*
X140459266Y-108589296D01*
X140466272Y-108570196D01*
X140482251Y-108532586D01*
X140501076Y-108495050D01*
X140523018Y-108456733D01*
X140548345Y-108416779D01*
X140577328Y-108374332D01*
X140610236Y-108328536D01*
X140647339Y-108278536D01*
X140723886Y-108181123D01*
X140807875Y-108084427D01*
X140898709Y-107988865D01*
X140995795Y-107894857D01*
X141098536Y-107802821D01*
X141206337Y-107713175D01*
X141318603Y-107626338D01*
X141434738Y-107542730D01*
X141554148Y-107462767D01*
X141676237Y-107386869D01*
X141800409Y-107315455D01*
X141926069Y-107248943D01*
X142052623Y-107187751D01*
X142179474Y-107132299D01*
X142306027Y-107083004D01*
X142431688Y-107040286D01*
X142475755Y-107026456D01*
X142519608Y-107013584D01*
X142562885Y-107001735D01*
X142605222Y-106990974D01*
X142646256Y-106981367D01*
X142685626Y-106972978D01*
X142722968Y-106965873D01*
X142757919Y-106960117D01*
X142790117Y-106955775D01*
X142819199Y-106952911D01*
X142844802Y-106951592D01*
X142866564Y-106951882D01*
G37*
%TD.AperFunction*%
%TA.AperFunction,NonConductor*%
G36*
X134892452Y-106954859D02*
G01*
X134921942Y-106956888D01*
X134956175Y-106960304D01*
X135040288Y-106970436D01*
X135148610Y-106990562D01*
X135263332Y-107021906D01*
X135383411Y-107063779D01*
X135507807Y-107115494D01*
X135635477Y-107176362D01*
X135765379Y-107245694D01*
X135896472Y-107322802D01*
X136027713Y-107406999D01*
X136158062Y-107497595D01*
X136286476Y-107593902D01*
X136411913Y-107695232D01*
X136533332Y-107800897D01*
X136649691Y-107910208D01*
X136759948Y-108022477D01*
X136863061Y-108137016D01*
X136957989Y-108253136D01*
X137040563Y-108362748D01*
X137074604Y-108410103D01*
X137104236Y-108453756D01*
X137129776Y-108494656D01*
X137151539Y-108533751D01*
X137169842Y-108571991D01*
X137185000Y-108610324D01*
X137197331Y-108649698D01*
X137207151Y-108691063D01*
X137214775Y-108735367D01*
X137220521Y-108783560D01*
X137224704Y-108836589D01*
X137227640Y-108895404D01*
X137231039Y-109034186D01*
X137234662Y-109131828D01*
X137243056Y-109229238D01*
X137256083Y-109326034D01*
X137273603Y-109421834D01*
X137295476Y-109516258D01*
X137321563Y-109608923D01*
X137351724Y-109699449D01*
X137385820Y-109787455D01*
X137423710Y-109872558D01*
X137465257Y-109954378D01*
X137510319Y-110032533D01*
X137558758Y-110106642D01*
X137610434Y-110176323D01*
X137665207Y-110241195D01*
X137722938Y-110300876D01*
X137783488Y-110354986D01*
X137856588Y-110417395D01*
X137882859Y-110441716D01*
X137901559Y-110461349D01*
X137912147Y-110476219D01*
X137914231Y-110481845D01*
X137914085Y-110486253D01*
X137911641Y-110489432D01*
X137906833Y-110491375D01*
X137889851Y-110491511D01*
X137862600Y-110486587D01*
X137824540Y-110476529D01*
X137775132Y-110461262D01*
X137713837Y-110440711D01*
X137553425Y-110383461D01*
X137338988Y-110304185D01*
X137225533Y-110258961D01*
X137111563Y-110206855D01*
X136883152Y-110083349D01*
X136655895Y-109936366D01*
X136431930Y-109768603D01*
X136213398Y-109582757D01*
X136002437Y-109381526D01*
X135801187Y-109167607D01*
X135611788Y-108943698D01*
X135436379Y-108712497D01*
X135277099Y-108476700D01*
X135136087Y-108239006D01*
X135015483Y-108002112D01*
X134917427Y-107768716D01*
X134877523Y-107654172D01*
X134844058Y-107541514D01*
X134817300Y-107431079D01*
X134797515Y-107323205D01*
X134784972Y-107218228D01*
X134779938Y-107116486D01*
X134780071Y-107085196D01*
X134780707Y-107057860D01*
X134782198Y-107034263D01*
X134784899Y-107014192D01*
X134786813Y-107005411D01*
X134789162Y-106997431D01*
X134791990Y-106990226D01*
X134795342Y-106983769D01*
X134799260Y-106978032D01*
X134803791Y-106972990D01*
X134808977Y-106968615D01*
X134814863Y-106964880D01*
X134821493Y-106961760D01*
X134828912Y-106959226D01*
X134837163Y-106957253D01*
X134846290Y-106955814D01*
X134856339Y-106954882D01*
X134867353Y-106954430D01*
X134892452Y-106954859D01*
G37*
%TD.AperFunction*%
%TA.AperFunction,NonConductor*%
G36*
X138850288Y-106314798D02*
G01*
X138868204Y-106318093D01*
X138886311Y-106323818D01*
X138904724Y-106331985D01*
X138923561Y-106342604D01*
X138942938Y-106355689D01*
X138962970Y-106371251D01*
X138983774Y-106389300D01*
X139005466Y-106409850D01*
X139028163Y-106432911D01*
X139051981Y-106458495D01*
X139103445Y-106517279D01*
X139160787Y-106586295D01*
X139224938Y-106665636D01*
X139339149Y-106818733D01*
X139448068Y-106981672D01*
X139551165Y-107152834D01*
X139647908Y-107330600D01*
X139737767Y-107513351D01*
X139820214Y-107699470D01*
X139894716Y-107887338D01*
X139960745Y-108075336D01*
X140017769Y-108261845D01*
X140065259Y-108445248D01*
X140102685Y-108623925D01*
X140129516Y-108796259D01*
X140145222Y-108960631D01*
X140149273Y-109115421D01*
X140141138Y-109259012D01*
X140120288Y-109389786D01*
X140090605Y-109504873D01*
X140054196Y-109614338D01*
X140011444Y-109718104D01*
X139962729Y-109816092D01*
X139908433Y-109908224D01*
X139848937Y-109994423D01*
X139784623Y-110074611D01*
X139715872Y-110148710D01*
X139643066Y-110216642D01*
X139566585Y-110278329D01*
X139486812Y-110333692D01*
X139404127Y-110382656D01*
X139318912Y-110425140D01*
X139231548Y-110461068D01*
X139142417Y-110490361D01*
X139051900Y-110512942D01*
X138960379Y-110528733D01*
X138868234Y-110537656D01*
X138775848Y-110539632D01*
X138683601Y-110534584D01*
X138591874Y-110522435D01*
X138501051Y-110503106D01*
X138411510Y-110476519D01*
X138323635Y-110442596D01*
X138237806Y-110401260D01*
X138154405Y-110352433D01*
X138073813Y-110296036D01*
X137996412Y-110231992D01*
X137922582Y-110160223D01*
X137852706Y-110080651D01*
X137787164Y-109993198D01*
X137726339Y-109897786D01*
X137684695Y-109820676D01*
X137647833Y-109739521D01*
X137615699Y-109654555D01*
X137588238Y-109566011D01*
X137565396Y-109474123D01*
X137547117Y-109379125D01*
X137524031Y-109180732D01*
X137518545Y-108972703D01*
X137530220Y-108756907D01*
X137558620Y-108535213D01*
X137603307Y-108309492D01*
X137663844Y-108081613D01*
X137739795Y-107853446D01*
X137830721Y-107626859D01*
X137936186Y-107403724D01*
X138055752Y-107185910D01*
X138188983Y-106975285D01*
X138335441Y-106773721D01*
X138494688Y-106583086D01*
X138554374Y-106517319D01*
X138607847Y-106460576D01*
X138656037Y-106412948D01*
X138678441Y-106392581D01*
X138699873Y-106374528D01*
X138720449Y-106358801D01*
X138740286Y-106345411D01*
X138759499Y-106334369D01*
X138778206Y-106325688D01*
X138796522Y-106319378D01*
X138814563Y-106315453D01*
X138832447Y-106313922D01*
X138850288Y-106314798D01*
G37*
%TD.AperFunction*%
%TA.AperFunction,NonConductor*%
G36*
X140123176Y-105952920D02*
G01*
X140131884Y-105955219D01*
X140140127Y-105958953D01*
X140147970Y-105964122D01*
X140155478Y-105970729D01*
X140162717Y-105978774D01*
X140169750Y-105988259D01*
X140176645Y-105999184D01*
X140183464Y-106011551D01*
X140190275Y-106025360D01*
X140204128Y-106057313D01*
X140218726Y-106095052D01*
X140234589Y-106138586D01*
X140257209Y-106206848D01*
X140277439Y-106278088D01*
X140295269Y-106352006D01*
X140310689Y-106428305D01*
X140323692Y-106506688D01*
X140334266Y-106586856D01*
X140342404Y-106668513D01*
X140348095Y-106751361D01*
X140351330Y-106835101D01*
X140352101Y-106919437D01*
X140350397Y-107004071D01*
X140346209Y-107088704D01*
X140339529Y-107173040D01*
X140330347Y-107256781D01*
X140318653Y-107339629D01*
X140304438Y-107421286D01*
X140288264Y-107504355D01*
X140272973Y-107577444D01*
X140258408Y-107640691D01*
X140244411Y-107694237D01*
X140237575Y-107717415D01*
X140230823Y-107738220D01*
X140224133Y-107756669D01*
X140217485Y-107772781D01*
X140210862Y-107786571D01*
X140204241Y-107798058D01*
X140197605Y-107807259D01*
X140190932Y-107814192D01*
X140184204Y-107818874D01*
X140177400Y-107821322D01*
X140170500Y-107821554D01*
X140163486Y-107819587D01*
X140156336Y-107815439D01*
X140149032Y-107809127D01*
X140141554Y-107800669D01*
X140133881Y-107790082D01*
X140125994Y-107777383D01*
X140117874Y-107762591D01*
X140109500Y-107745721D01*
X140100853Y-107726793D01*
X140082661Y-107682828D01*
X140063138Y-107630836D01*
X140043741Y-107580371D01*
X140015116Y-107516437D01*
X139978752Y-107441638D01*
X139936138Y-107358579D01*
X139888761Y-107269865D01*
X139838110Y-107178101D01*
X139785673Y-107085889D01*
X139732938Y-106995836D01*
X139681689Y-106910165D01*
X139637564Y-106833452D01*
X139600695Y-106764682D01*
X139585022Y-106732960D01*
X139571212Y-106702843D01*
X139559280Y-106674205D01*
X139549244Y-106646919D01*
X139541120Y-106620859D01*
X139534923Y-106595897D01*
X139530670Y-106571908D01*
X139528377Y-106548764D01*
X139528061Y-106526338D01*
X139529738Y-106504504D01*
X139533425Y-106483136D01*
X139539136Y-106462106D01*
X139546890Y-106441287D01*
X139556701Y-106420553D01*
X139568587Y-106399777D01*
X139582563Y-106378833D01*
X139598646Y-106357594D01*
X139616852Y-106335932D01*
X139637198Y-106313721D01*
X139659699Y-106290835D01*
X139684372Y-106267147D01*
X139711234Y-106242530D01*
X139771587Y-106190001D01*
X139840888Y-106132236D01*
X139892469Y-106089821D01*
X139938023Y-106053072D01*
X139978070Y-106021996D01*
X140013132Y-105996604D01*
X140028955Y-105986042D01*
X140043728Y-105976904D01*
X140057515Y-105969192D01*
X140070381Y-105962907D01*
X140082391Y-105958049D01*
X140093611Y-105954621D01*
X140104105Y-105952622D01*
X140113938Y-105952055D01*
X140123176Y-105952920D01*
G37*
%TD.AperFunction*%
%TA.AperFunction,NonConductor*%
G36*
X137530750Y-105948447D02*
G01*
X137544570Y-105950467D01*
X137559040Y-105954106D01*
X137574197Y-105959371D01*
X137590078Y-105966270D01*
X137606718Y-105974813D01*
X137624153Y-105985007D01*
X137642419Y-105996860D01*
X137681591Y-106025576D01*
X137724520Y-106061027D01*
X137771495Y-106103277D01*
X137822805Y-106152392D01*
X137878738Y-106208436D01*
X137983042Y-106314290D01*
X138024264Y-106357408D01*
X138058324Y-106395662D01*
X138072697Y-106413357D01*
X138085315Y-106430306D01*
X138096188Y-106446667D01*
X138105329Y-106462597D01*
X138112749Y-106478252D01*
X138118460Y-106493790D01*
X138122473Y-106509368D01*
X138124801Y-106525142D01*
X138125454Y-106541270D01*
X138124444Y-106557907D01*
X138121784Y-106575213D01*
X138117484Y-106593342D01*
X138111556Y-106612454D01*
X138104011Y-106632703D01*
X138084121Y-106677244D01*
X138057906Y-106728223D01*
X138025458Y-106786893D01*
X137942239Y-106932336D01*
X137897813Y-107012566D01*
X137851156Y-107099122D01*
X137756501Y-107280792D01*
X137711183Y-107370696D01*
X137668990Y-107456508D01*
X137631262Y-107535623D01*
X137599339Y-107605436D01*
X137579969Y-107650551D01*
X137562255Y-107690727D01*
X137546067Y-107726085D01*
X137538504Y-107741994D01*
X137531274Y-107756745D01*
X137524360Y-107770351D01*
X137517746Y-107782828D01*
X137511416Y-107794192D01*
X137505353Y-107804456D01*
X137499541Y-107813637D01*
X137493965Y-107821750D01*
X137488606Y-107828809D01*
X137483451Y-107834830D01*
X137478481Y-107839827D01*
X137473681Y-107843817D01*
X137469034Y-107846813D01*
X137466763Y-107847944D01*
X137464525Y-107848832D01*
X137462316Y-107849479D01*
X137460136Y-107849888D01*
X137457982Y-107850059D01*
X137455852Y-107849996D01*
X137453744Y-107849699D01*
X137451657Y-107849172D01*
X137449587Y-107848415D01*
X137447533Y-107847430D01*
X137445494Y-107846220D01*
X137443466Y-107844786D01*
X137439438Y-107841255D01*
X137435433Y-107836852D01*
X137431435Y-107831592D01*
X137427428Y-107825490D01*
X137423395Y-107818562D01*
X137419321Y-107810822D01*
X137415188Y-107802285D01*
X137400319Y-107751921D01*
X137386725Y-107679167D01*
X137374488Y-107587234D01*
X137363693Y-107479329D01*
X137346764Y-107228442D01*
X137336607Y-106952180D01*
X137333891Y-106676215D01*
X137339286Y-106426221D01*
X137345234Y-106318986D01*
X137353462Y-106227871D01*
X137364052Y-106156084D01*
X137377089Y-106106836D01*
X137393954Y-106065770D01*
X137402589Y-106047490D01*
X137411406Y-106030723D01*
X137420442Y-106015476D01*
X137429732Y-106001759D01*
X137439313Y-105989578D01*
X137449220Y-105978943D01*
X137459491Y-105969861D01*
X137470160Y-105962341D01*
X137481264Y-105956390D01*
X137492839Y-105952018D01*
X137504921Y-105949231D01*
X137517546Y-105948038D01*
X137530750Y-105948447D01*
G37*
%TD.AperFunction*%
%TA.AperFunction,NonConductor*%
G36*
X141714138Y-105986186D02*
G01*
X141718457Y-106005106D01*
X141721902Y-106028304D01*
X141724491Y-106055447D01*
X141726243Y-106086198D01*
X141727309Y-106157189D01*
X141725251Y-106238598D01*
X141720216Y-106327746D01*
X141712353Y-106421954D01*
X141701811Y-106518544D01*
X141688739Y-106614836D01*
X141618887Y-107084735D01*
X141256939Y-107364136D01*
X141177278Y-107426247D01*
X141092335Y-107496692D01*
X141004563Y-107573091D01*
X140916420Y-107653061D01*
X140830360Y-107734222D01*
X140748839Y-107814192D01*
X140674313Y-107890590D01*
X140609238Y-107961036D01*
X140329839Y-108272186D01*
X140437788Y-107941985D01*
X140461787Y-107866381D01*
X140485711Y-107775298D01*
X140508891Y-107672309D01*
X140530657Y-107560986D01*
X140550339Y-107444900D01*
X140567268Y-107327624D01*
X140580775Y-107212728D01*
X140590188Y-107103786D01*
X140601552Y-106997673D01*
X140616804Y-106898118D01*
X140636260Y-106804683D01*
X140660237Y-106716932D01*
X140674019Y-106675051D01*
X140689051Y-106634427D01*
X140705370Y-106595005D01*
X140723017Y-106556731D01*
X140742032Y-106519549D01*
X140762454Y-106483406D01*
X140784322Y-106448247D01*
X140807676Y-106414017D01*
X140832555Y-106380661D01*
X140859000Y-106348125D01*
X140887049Y-106316354D01*
X140916742Y-106285293D01*
X140948119Y-106254888D01*
X140981219Y-106225084D01*
X141052746Y-106167062D01*
X141131640Y-106110787D01*
X141218218Y-106055825D01*
X141312795Y-106001737D01*
X141415688Y-105948086D01*
X141669688Y-105821086D01*
X141714138Y-105986186D01*
G37*
%TD.AperFunction*%
%TA.AperFunction,NonConductor*%
G36*
X135980101Y-105844647D02*
G01*
X135987993Y-105845393D01*
X135996412Y-105846638D01*
X136005389Y-105848371D01*
X136025129Y-105853246D01*
X136047445Y-105859917D01*
X136072571Y-105868281D01*
X136100738Y-105878235D01*
X136214130Y-105924205D01*
X136320880Y-105973932D01*
X136420895Y-106027306D01*
X136514083Y-106084214D01*
X136600351Y-106144545D01*
X136679605Y-106208188D01*
X136716573Y-106241216D01*
X136751753Y-106275030D01*
X136785132Y-106309616D01*
X136816700Y-106344961D01*
X136846446Y-106381049D01*
X136874356Y-106417868D01*
X136900420Y-106455403D01*
X136924626Y-106493640D01*
X136946962Y-106532566D01*
X136967417Y-106572166D01*
X136985979Y-106612426D01*
X137002637Y-106653333D01*
X137017378Y-106694872D01*
X137030191Y-106737030D01*
X137041066Y-106779792D01*
X137049989Y-106823146D01*
X137056949Y-106867076D01*
X137061935Y-106911568D01*
X137064935Y-106956610D01*
X137065938Y-107002186D01*
X137067177Y-107066861D01*
X137070787Y-107136504D01*
X137076612Y-107210276D01*
X137084492Y-107287341D01*
X137105787Y-107448001D01*
X137133407Y-107611786D01*
X137166087Y-107771999D01*
X137202563Y-107921943D01*
X137221828Y-107990972D01*
X137241568Y-108054921D01*
X137261624Y-108112955D01*
X137281839Y-108164235D01*
X137284108Y-108172522D01*
X137283415Y-108174873D01*
X137281541Y-108176055D01*
X137278513Y-108176089D01*
X137274360Y-108174993D01*
X137262789Y-108169494D01*
X137247050Y-108159717D01*
X137227367Y-108145818D01*
X137177063Y-108106292D01*
X137113663Y-108052180D01*
X137038951Y-107984749D01*
X136954714Y-107905262D01*
X136862738Y-107814986D01*
X136765864Y-107721323D01*
X136667575Y-107627661D01*
X136477769Y-107449861D01*
X136315348Y-107300636D01*
X136202338Y-107199036D01*
X136182197Y-107181372D01*
X136162286Y-107160644D01*
X136123323Y-107110681D01*
X136085792Y-107050524D01*
X136050037Y-106981548D01*
X136016404Y-106905131D01*
X135985235Y-106822650D01*
X135956875Y-106735480D01*
X135931669Y-106644998D01*
X135909960Y-106552582D01*
X135892093Y-106459608D01*
X135878412Y-106367453D01*
X135869261Y-106277492D01*
X135864983Y-106191104D01*
X135865924Y-106109664D01*
X135872428Y-106034549D01*
X135884838Y-105967136D01*
X135891797Y-105942488D01*
X135898542Y-105920863D01*
X135905306Y-105902159D01*
X135908768Y-105893870D01*
X135912321Y-105886273D01*
X135915996Y-105879355D01*
X135919820Y-105873103D01*
X135923824Y-105867505D01*
X135928035Y-105862547D01*
X135932484Y-105858217D01*
X135937199Y-105854503D01*
X135942209Y-105851390D01*
X135947544Y-105848867D01*
X135953232Y-105846921D01*
X135959303Y-105845539D01*
X135965786Y-105844708D01*
X135972709Y-105844415D01*
X135980101Y-105844647D01*
G37*
%TD.AperFunction*%
%TA.AperFunction,NonConductor*%
G36*
X138842917Y-105350542D02*
G01*
X138855844Y-105353567D01*
X138868827Y-105358583D01*
X138881906Y-105365602D01*
X138895123Y-105374637D01*
X138908517Y-105385702D01*
X138922130Y-105398808D01*
X138936002Y-105413968D01*
X138950174Y-105431196D01*
X138964687Y-105450504D01*
X138994898Y-105495411D01*
X139026959Y-105548793D01*
X139061197Y-105610750D01*
X139097938Y-105681386D01*
X139122665Y-105733301D01*
X139146630Y-105790415D01*
X139169515Y-105851231D01*
X139191005Y-105914252D01*
X139210784Y-105977980D01*
X139228535Y-106040917D01*
X139243942Y-106101566D01*
X139256688Y-106158429D01*
X139266458Y-106210009D01*
X139272935Y-106254808D01*
X139275803Y-106291328D01*
X139275785Y-106306016D01*
X139274746Y-106318072D01*
X139272647Y-106327310D01*
X139269447Y-106333543D01*
X139265108Y-106336582D01*
X139259590Y-106336242D01*
X139252854Y-106332334D01*
X139244859Y-106324672D01*
X139235567Y-106313068D01*
X139224938Y-106297336D01*
X139209797Y-106274119D01*
X139194154Y-106252095D01*
X139178024Y-106231266D01*
X139161425Y-106211635D01*
X139144376Y-106193204D01*
X139126893Y-106175976D01*
X139108993Y-106159951D01*
X139090695Y-106145134D01*
X139072015Y-106131526D01*
X139052972Y-106119129D01*
X139033582Y-106107947D01*
X139013863Y-106097980D01*
X138993832Y-106089233D01*
X138973507Y-106081705D01*
X138952905Y-106075402D01*
X138932044Y-106070323D01*
X138910942Y-106066473D01*
X138889614Y-106063852D01*
X138868080Y-106062464D01*
X138846357Y-106062311D01*
X138824461Y-106063395D01*
X138802410Y-106065719D01*
X138780223Y-106069284D01*
X138757915Y-106074094D01*
X138735506Y-106080150D01*
X138713011Y-106087454D01*
X138690449Y-106096010D01*
X138667837Y-106105819D01*
X138645193Y-106116884D01*
X138622533Y-106129207D01*
X138599876Y-106142790D01*
X138577238Y-106157636D01*
X138348638Y-106310036D01*
X138412138Y-106043336D01*
X138418818Y-106015027D01*
X138426884Y-105985045D01*
X138436234Y-105953648D01*
X138446765Y-105921098D01*
X138470962Y-105853580D01*
X138498657Y-105784573D01*
X138529030Y-105716162D01*
X138544966Y-105682831D01*
X138561264Y-105650430D01*
X138577823Y-105619219D01*
X138594539Y-105589460D01*
X138611312Y-105561412D01*
X138628038Y-105535335D01*
X138661430Y-105486537D01*
X138692766Y-105444985D01*
X138707765Y-105426958D01*
X138722372Y-105410781D01*
X138736628Y-105396466D01*
X138750573Y-105384027D01*
X138764249Y-105373477D01*
X138777696Y-105364827D01*
X138790954Y-105358091D01*
X138804065Y-105353282D01*
X138817068Y-105350412D01*
X138830006Y-105349495D01*
X138842917Y-105350542D01*
G37*
%TD.AperFunction*%
%TA.AperFunction,NonConductor*%
G36*
X145791050Y-104483585D02*
G01*
X145815421Y-104484375D01*
X145837265Y-104485967D01*
X145856719Y-104488379D01*
X145873923Y-104491629D01*
X145889014Y-104495732D01*
X145902130Y-104500708D01*
X145913411Y-104506574D01*
X145918406Y-104509845D01*
X145922994Y-104513346D01*
X145927192Y-104517078D01*
X145931017Y-104521043D01*
X145934488Y-104525243D01*
X145937620Y-104529681D01*
X145942941Y-104539279D01*
X145947117Y-104549853D01*
X145950287Y-104561422D01*
X145952591Y-104574002D01*
X145954165Y-104587611D01*
X145955148Y-104602267D01*
X145955679Y-104617986D01*
X145955938Y-104652686D01*
X145946395Y-104809311D01*
X145918582Y-104982353D01*
X145873729Y-105169478D01*
X145813063Y-105368351D01*
X145737812Y-105576637D01*
X145649204Y-105792003D01*
X145548466Y-106012112D01*
X145436826Y-106234630D01*
X145315513Y-106457222D01*
X145185753Y-106677555D01*
X145048776Y-106893292D01*
X144905808Y-107102099D01*
X144758077Y-107301642D01*
X144606812Y-107489585D01*
X144453240Y-107663595D01*
X144298589Y-107821336D01*
X144019189Y-108081686D01*
X143409589Y-108107086D01*
X142806339Y-108132486D01*
X142920638Y-107814986D01*
X142945902Y-107748089D01*
X142969308Y-107683139D01*
X142990858Y-107620148D01*
X143010555Y-107559125D01*
X143028401Y-107500084D01*
X143044398Y-107443036D01*
X143058549Y-107387993D01*
X143070855Y-107334966D01*
X143081320Y-107283966D01*
X143089946Y-107235006D01*
X143096734Y-107188097D01*
X143101688Y-107143250D01*
X143104809Y-107100478D01*
X143106100Y-107059792D01*
X143105563Y-107021203D01*
X143103201Y-106984724D01*
X143099015Y-106950365D01*
X143093009Y-106918139D01*
X143085184Y-106888056D01*
X143075543Y-106860130D01*
X143064089Y-106834370D01*
X143050822Y-106810790D01*
X143035747Y-106789400D01*
X143018865Y-106770213D01*
X143000178Y-106753239D01*
X142979689Y-106738491D01*
X142957400Y-106725979D01*
X142933313Y-106715717D01*
X142907431Y-106707715D01*
X142879757Y-106701984D01*
X142850292Y-106698538D01*
X142819038Y-106697386D01*
X142666638Y-106697386D01*
X142825388Y-106271937D01*
X142857076Y-106179861D01*
X142889583Y-106081833D01*
X142921940Y-105980828D01*
X142953182Y-105879823D01*
X142982340Y-105781795D01*
X143008446Y-105689720D01*
X143030535Y-105606575D01*
X143047637Y-105535335D01*
X143069751Y-105431962D01*
X143080636Y-105389154D01*
X143092386Y-105351285D01*
X143105735Y-105317620D01*
X143113240Y-105302135D01*
X143121420Y-105287425D01*
X143130367Y-105273399D01*
X143140174Y-105259965D01*
X143150931Y-105247031D01*
X143162732Y-105234505D01*
X143175668Y-105222295D01*
X143189830Y-105210309D01*
X143222201Y-105186644D01*
X143260582Y-105162774D01*
X143305706Y-105137965D01*
X143358309Y-105111481D01*
X143419126Y-105082588D01*
X143568339Y-105014636D01*
X143777504Y-104922028D01*
X143981981Y-104839316D01*
X144183036Y-104766279D01*
X144282674Y-104733318D01*
X144381932Y-104702692D01*
X144480966Y-104674373D01*
X144579935Y-104648333D01*
X144678998Y-104624543D01*
X144778311Y-104602977D01*
X144878034Y-104583606D01*
X144978324Y-104566403D01*
X145079339Y-104551339D01*
X145181239Y-104538386D01*
X145316559Y-104522857D01*
X145435127Y-104509699D01*
X145538049Y-104499053D01*
X145626433Y-104491058D01*
X145665519Y-104488099D01*
X145701385Y-104485854D01*
X145734170Y-104484342D01*
X145764012Y-104483580D01*
X145791050Y-104483585D01*
G37*
%TD.AperFunction*%
%TA.AperFunction,NonConductor*%
G36*
X131842517Y-104487437D02*
G01*
X131893466Y-104489570D01*
X132023344Y-104498599D01*
X132195488Y-104512986D01*
X132325772Y-104524965D01*
X132454623Y-104539465D01*
X132581948Y-104556476D01*
X132707655Y-104575990D01*
X132831651Y-104597996D01*
X132953842Y-104622486D01*
X133074135Y-104649450D01*
X133192438Y-104678880D01*
X133308657Y-104710764D01*
X133422700Y-104745096D01*
X133534473Y-104781864D01*
X133643883Y-104821060D01*
X133750838Y-104862675D01*
X133855244Y-104906698D01*
X133957008Y-104953122D01*
X134056038Y-105001936D01*
X134494188Y-105224186D01*
X134703738Y-105878235D01*
X134786983Y-106140669D01*
X134860107Y-106367980D01*
X134915372Y-106534568D01*
X134933888Y-106587092D01*
X134945038Y-106614836D01*
X134947215Y-106619542D01*
X134948986Y-106624134D01*
X134950356Y-106628610D01*
X134951326Y-106632968D01*
X134951901Y-106637204D01*
X134952084Y-106641318D01*
X134951879Y-106645306D01*
X134951289Y-106649165D01*
X134950317Y-106652895D01*
X134948968Y-106656492D01*
X134947244Y-106659954D01*
X134945150Y-106663279D01*
X134942688Y-106666465D01*
X134939862Y-106669509D01*
X134936675Y-106672408D01*
X134933132Y-106675161D01*
X134929235Y-106677765D01*
X134924988Y-106680218D01*
X134920395Y-106682518D01*
X134915459Y-106684661D01*
X134904571Y-106688472D01*
X134892353Y-106691631D01*
X134878833Y-106694121D01*
X134864038Y-106695923D01*
X134847998Y-106697017D01*
X134830738Y-106697386D01*
X134799447Y-106698372D01*
X134769866Y-106701332D01*
X134741994Y-106706265D01*
X134715830Y-106713174D01*
X134691373Y-106722060D01*
X134668622Y-106732924D01*
X134647576Y-106745766D01*
X134628233Y-106760588D01*
X134610592Y-106777392D01*
X134594652Y-106796179D01*
X134580412Y-106816948D01*
X134567870Y-106839703D01*
X134557027Y-106864444D01*
X134547879Y-106891171D01*
X134540427Y-106919887D01*
X134534669Y-106950592D01*
X134528231Y-107017976D01*
X134528555Y-107093331D01*
X134535632Y-107176667D01*
X134549453Y-107267993D01*
X134570008Y-107367319D01*
X134597289Y-107474653D01*
X134631285Y-107590006D01*
X134671988Y-107713386D01*
X134811688Y-108132486D01*
X134208438Y-108107086D01*
X133605188Y-108081686D01*
X133268638Y-107757836D01*
X133123001Y-107607496D01*
X132977456Y-107439158D01*
X132833288Y-107255360D01*
X132691780Y-107058641D01*
X132554217Y-106851542D01*
X132421880Y-106636602D01*
X132296056Y-106416359D01*
X132178026Y-106193354D01*
X132069074Y-105970126D01*
X131970485Y-105749214D01*
X131883541Y-105533158D01*
X131809527Y-105324496D01*
X131749726Y-105125769D01*
X131705422Y-104939515D01*
X131677898Y-104768274D01*
X131668438Y-104614586D01*
X131669728Y-104566465D01*
X131672456Y-104547167D01*
X131677566Y-104530845D01*
X131681247Y-104523754D01*
X131685801Y-104517351D01*
X131691323Y-104511618D01*
X131697906Y-104506536D01*
X131705642Y-104502087D01*
X131714624Y-104498252D01*
X131736701Y-104492348D01*
X131764879Y-104488677D01*
X131799903Y-104487089D01*
X131842517Y-104487437D01*
G37*
%TD.AperFunction*%
%TA.AperFunction,NonConductor*%
G36*
X140368595Y-104098762D02*
G01*
X140388374Y-104113024D01*
X140408148Y-104136126D01*
X140427841Y-104167519D01*
X140466676Y-104252988D01*
X140504265Y-104365051D01*
X140539993Y-104499326D01*
X140573247Y-104651433D01*
X140603412Y-104816991D01*
X140629876Y-104991617D01*
X140652023Y-105170932D01*
X140669241Y-105350553D01*
X140680914Y-105526101D01*
X140686430Y-105693193D01*
X140685174Y-105847449D01*
X140676533Y-105984487D01*
X140659892Y-106099926D01*
X140634637Y-106189386D01*
X140571138Y-106348136D01*
X140501288Y-106157636D01*
X140462739Y-106059903D01*
X140425361Y-105973759D01*
X140406966Y-105934981D01*
X140388690Y-105899038D01*
X140370475Y-105865908D01*
X140352262Y-105835572D01*
X140333993Y-105808007D01*
X140315610Y-105783194D01*
X140297055Y-105761110D01*
X140278269Y-105741736D01*
X140259196Y-105725050D01*
X140239775Y-105711031D01*
X140219951Y-105699658D01*
X140199663Y-105690911D01*
X140178855Y-105684768D01*
X140157467Y-105681209D01*
X140135443Y-105680213D01*
X140112723Y-105681758D01*
X140089249Y-105685824D01*
X140064964Y-105692390D01*
X140039810Y-105701435D01*
X140013727Y-105712938D01*
X139986659Y-105726877D01*
X139958546Y-105743233D01*
X139929331Y-105761985D01*
X139898956Y-105783110D01*
X139867362Y-105806589D01*
X139834491Y-105832400D01*
X139764688Y-105890936D01*
X139517039Y-106106836D01*
X139402738Y-105763936D01*
X139282089Y-105414686D01*
X139453538Y-105122586D01*
X139472990Y-105090123D01*
X139495446Y-105054869D01*
X139548292Y-104977329D01*
X139609920Y-104892646D01*
X139678170Y-104803498D01*
X139750884Y-104712564D01*
X139825906Y-104622523D01*
X139901077Y-104536054D01*
X139974238Y-104455836D01*
X140044510Y-104383766D01*
X140111359Y-104316235D01*
X140173147Y-104254806D01*
X140228238Y-104201042D01*
X140274995Y-104156505D01*
X140311780Y-104122759D01*
X140325922Y-104110420D01*
X140336957Y-104101365D01*
X140344680Y-104095788D01*
X140347236Y-104094366D01*
X140348888Y-104093886D01*
X140368595Y-104098762D01*
G37*
%TD.AperFunction*%
%TA.AperFunction,NonConductor*%
G36*
X137269209Y-104095845D02*
G01*
X137284781Y-104101596D01*
X137323634Y-104123714D01*
X137371604Y-104158724D01*
X137427293Y-104205110D01*
X137489308Y-104261356D01*
X137556253Y-104325946D01*
X137626732Y-104397364D01*
X137699351Y-104474092D01*
X137845426Y-104637419D01*
X137916091Y-104720984D01*
X137983315Y-104803796D01*
X138045701Y-104884339D01*
X138101856Y-104961095D01*
X138150383Y-105032550D01*
X138189888Y-105097186D01*
X138380388Y-105433735D01*
X138253388Y-105776636D01*
X138126388Y-106125886D01*
X137885088Y-105903636D01*
X137849725Y-105872661D01*
X137815077Y-105844024D01*
X137781155Y-105817723D01*
X137747968Y-105793751D01*
X137715525Y-105772105D01*
X137683836Y-105752780D01*
X137652909Y-105735771D01*
X137622754Y-105721073D01*
X137593381Y-105708683D01*
X137564798Y-105698594D01*
X137537015Y-105690803D01*
X137510042Y-105685305D01*
X137483887Y-105682095D01*
X137458559Y-105681169D01*
X137434069Y-105682521D01*
X137410426Y-105686148D01*
X137387638Y-105692045D01*
X137365715Y-105700206D01*
X137344667Y-105710628D01*
X137324502Y-105723306D01*
X137305231Y-105738234D01*
X137286861Y-105755409D01*
X137269403Y-105774826D01*
X137252866Y-105796480D01*
X137237260Y-105820366D01*
X137222592Y-105846480D01*
X137208874Y-105874817D01*
X137196113Y-105905373D01*
X137184320Y-105938142D01*
X137173504Y-105973121D01*
X137163673Y-106010304D01*
X137154838Y-106049687D01*
X137149931Y-106070804D01*
X137144755Y-106091234D01*
X137139337Y-106110882D01*
X137133704Y-106129656D01*
X137127886Y-106147463D01*
X137121910Y-106164209D01*
X137115803Y-106179802D01*
X137109594Y-106194149D01*
X137103311Y-106207155D01*
X137100150Y-106213128D01*
X137096981Y-106218730D01*
X137093807Y-106223951D01*
X137090633Y-106228779D01*
X137087460Y-106233202D01*
X137084293Y-106237210D01*
X137081136Y-106240789D01*
X137077991Y-106243929D01*
X137074863Y-106246617D01*
X137071755Y-106248843D01*
X137068669Y-106250594D01*
X137065611Y-106251860D01*
X137062583Y-106252628D01*
X137059588Y-106252886D01*
X137044090Y-106249009D01*
X137029739Y-106237642D01*
X137016527Y-106219185D01*
X137004447Y-106194037D01*
X136983658Y-106125261D01*
X136967315Y-106034506D01*
X136955362Y-105924960D01*
X136947744Y-105799816D01*
X136944404Y-105662263D01*
X136945288Y-105515492D01*
X136950339Y-105362694D01*
X136959501Y-105207058D01*
X136972719Y-105051776D01*
X136989936Y-104900038D01*
X137011098Y-104755035D01*
X137036147Y-104619956D01*
X137065029Y-104497993D01*
X137097688Y-104392336D01*
X137108610Y-104361776D01*
X137119876Y-104332110D01*
X137131384Y-104303485D01*
X137143031Y-104276051D01*
X137154716Y-104249957D01*
X137166335Y-104225350D01*
X137177787Y-104202381D01*
X137188970Y-104181198D01*
X137199780Y-104161950D01*
X137210116Y-104144785D01*
X137219875Y-104129853D01*
X137228955Y-104117302D01*
X137237254Y-104107280D01*
X137241078Y-104103265D01*
X137244669Y-104099938D01*
X137248013Y-104097318D01*
X137251098Y-104095424D01*
X137253910Y-104094274D01*
X137256438Y-104093886D01*
X137269209Y-104095845D01*
G37*
%TD.AperFunction*%
%TA.AperFunction,NonConductor*%
G36*
X135020928Y-102600086D02*
G01*
X135076998Y-102617402D01*
X135140122Y-102642578D01*
X135284664Y-102714249D01*
X135448814Y-102810589D01*
X135626832Y-102927086D01*
X135812980Y-103059228D01*
X136001519Y-103202504D01*
X136186710Y-103352404D01*
X136362812Y-103504415D01*
X136524087Y-103654026D01*
X136664797Y-103796726D01*
X136779200Y-103928003D01*
X136824744Y-103987949D01*
X136861560Y-104043347D01*
X136888929Y-104093633D01*
X136906135Y-104138245D01*
X136912461Y-104176617D01*
X136907188Y-104208186D01*
X136882716Y-104271691D01*
X136859352Y-104338200D01*
X136837160Y-104407444D01*
X136816204Y-104479152D01*
X136796551Y-104553056D01*
X136778266Y-104628886D01*
X136746057Y-104785242D01*
X136720099Y-104946063D01*
X136700912Y-105109191D01*
X136694021Y-105190946D01*
X136689018Y-105272468D01*
X136685969Y-105353488D01*
X136684938Y-105433735D01*
X136684938Y-105916336D01*
X136303938Y-105719486D01*
X136200044Y-105669724D01*
X136105005Y-105632446D01*
X136060782Y-105618529D01*
X136018746Y-105607781D01*
X135978887Y-105600219D01*
X135941194Y-105595859D01*
X135905660Y-105594718D01*
X135872275Y-105596811D01*
X135841028Y-105602155D01*
X135811912Y-105610767D01*
X135784917Y-105622662D01*
X135760033Y-105637857D01*
X135737252Y-105656368D01*
X135716563Y-105678211D01*
X135697958Y-105703403D01*
X135681427Y-105731960D01*
X135666962Y-105763898D01*
X135654552Y-105799233D01*
X135644188Y-105837982D01*
X135635861Y-105880162D01*
X135629562Y-105925787D01*
X135625282Y-105974875D01*
X135622739Y-106083504D01*
X135628159Y-106206179D01*
X135641467Y-106343030D01*
X135662588Y-106494187D01*
X135687752Y-106656334D01*
X135697288Y-106720637D01*
X135704359Y-106774578D01*
X135708639Y-106818771D01*
X135709631Y-106837403D01*
X135709804Y-106853829D01*
X135709116Y-106868124D01*
X135707526Y-106880367D01*
X135704995Y-106890632D01*
X135701482Y-106898998D01*
X135696945Y-106905541D01*
X135691344Y-106910337D01*
X135684639Y-106913463D01*
X135676789Y-106914997D01*
X135667752Y-106915014D01*
X135657489Y-106913592D01*
X135645959Y-106910808D01*
X135633120Y-106906737D01*
X135603356Y-106895045D01*
X135567871Y-106879130D01*
X135478438Y-106837086D01*
X135442549Y-106816188D01*
X135406380Y-106788220D01*
X135333578Y-106712269D01*
X135260777Y-106611611D01*
X135188719Y-106488630D01*
X135118150Y-106345705D01*
X135049813Y-106185219D01*
X134984453Y-106009552D01*
X134922813Y-105821086D01*
X134865638Y-105622202D01*
X134813672Y-105415281D01*
X134767660Y-105202705D01*
X134728344Y-104986854D01*
X134696470Y-104770111D01*
X134672782Y-104554856D01*
X134658023Y-104343471D01*
X134652938Y-104138336D01*
X134654598Y-104051668D01*
X134659375Y-103954880D01*
X134677048Y-103738683D01*
X134703503Y-103505221D01*
X134736282Y-103269973D01*
X134772931Y-103048418D01*
X134810994Y-102856033D01*
X134829788Y-102775616D01*
X134848015Y-102708296D01*
X134865367Y-102656008D01*
X134881538Y-102620686D01*
X134902217Y-102600928D01*
X134932820Y-102591285D01*
X134972630Y-102591192D01*
X135020928Y-102600086D01*
G37*
%TD.AperFunction*%
%TA.AperFunction,NonConductor*%
G36*
X142722347Y-102558054D02*
G01*
X142728197Y-102559125D01*
X142732922Y-102560947D01*
X142736488Y-102563535D01*
X142741758Y-102571220D01*
X142747985Y-102584533D01*
X142762980Y-102626738D01*
X142780802Y-102687547D01*
X142800782Y-102764355D01*
X142822250Y-102854557D01*
X142844537Y-102955549D01*
X142866973Y-103064727D01*
X142888888Y-103179485D01*
X142925121Y-103438722D01*
X142946286Y-103713605D01*
X142953238Y-103999984D01*
X142946832Y-104293712D01*
X142927925Y-104590640D01*
X142897372Y-104886618D01*
X142856028Y-105177500D01*
X142804751Y-105459135D01*
X142744395Y-105727376D01*
X142675816Y-105978074D01*
X142599871Y-106207081D01*
X142517414Y-106410246D01*
X142474011Y-106500843D01*
X142429301Y-106583423D01*
X142383392Y-106657470D01*
X142336389Y-106722463D01*
X142288400Y-106777885D01*
X142239533Y-106823217D01*
X142189893Y-106857940D01*
X142139589Y-106881536D01*
X142054074Y-106910520D01*
X142019973Y-106920868D01*
X141991257Y-106927673D01*
X141978828Y-106929563D01*
X141967638Y-106930347D01*
X141957650Y-106929952D01*
X141948828Y-106928305D01*
X141941137Y-106925333D01*
X141934539Y-106920961D01*
X141929000Y-106915118D01*
X141924482Y-106907730D01*
X141920951Y-106898723D01*
X141918370Y-106888024D01*
X141916702Y-106875560D01*
X141915912Y-106861258D01*
X141916822Y-106826846D01*
X141920811Y-106784202D01*
X141927591Y-106732740D01*
X141936872Y-106671874D01*
X141961789Y-106519586D01*
X141973115Y-106434313D01*
X141980963Y-106350269D01*
X141985424Y-106267936D01*
X141986593Y-106187798D01*
X141984562Y-106110340D01*
X141979425Y-106036043D01*
X141971273Y-105965394D01*
X141960201Y-105898874D01*
X141946301Y-105836967D01*
X141938320Y-105807895D01*
X141929666Y-105780158D01*
X141920353Y-105753817D01*
X141910390Y-105728931D01*
X141899790Y-105705561D01*
X141888565Y-105683767D01*
X141876726Y-105663611D01*
X141864284Y-105645153D01*
X141851252Y-105628452D01*
X141837641Y-105613570D01*
X141823462Y-105600567D01*
X141808728Y-105589503D01*
X141793450Y-105580440D01*
X141777639Y-105573436D01*
X141765317Y-105569706D01*
X141749907Y-105568004D01*
X141731594Y-105568273D01*
X141710566Y-105570459D01*
X141687008Y-105574505D01*
X141661105Y-105580356D01*
X141633045Y-105587956D01*
X141603013Y-105597248D01*
X141571194Y-105608178D01*
X141537776Y-105620688D01*
X141502944Y-105634725D01*
X141466885Y-105650231D01*
X141429783Y-105667151D01*
X141391826Y-105685429D01*
X141353199Y-105705009D01*
X141314088Y-105725836D01*
X140958488Y-105922686D01*
X140920388Y-105313086D01*
X140911508Y-105177169D01*
X140899354Y-105042516D01*
X140884223Y-104911585D01*
X140866413Y-104786830D01*
X140846222Y-104670706D01*
X140835327Y-104616649D01*
X140823948Y-104565671D01*
X140812122Y-104518079D01*
X140799887Y-104474179D01*
X140787280Y-104434279D01*
X140774338Y-104398686D01*
X140660038Y-104106586D01*
X140869588Y-103865286D01*
X140935493Y-103793654D01*
X141004513Y-103721753D01*
X141076492Y-103649759D01*
X141151270Y-103577849D01*
X141308594Y-103434986D01*
X141390823Y-103364387D01*
X141475220Y-103294579D01*
X141561625Y-103225739D01*
X141649882Y-103158042D01*
X141739831Y-103091666D01*
X141831316Y-103026788D01*
X141924177Y-102963584D01*
X142018256Y-102902231D01*
X142113396Y-102842906D01*
X142209438Y-102785786D01*
X142257913Y-102757826D01*
X142305532Y-102731178D01*
X142352034Y-102705963D01*
X142397160Y-102682301D01*
X142440649Y-102660313D01*
X142482240Y-102640120D01*
X142521673Y-102621844D01*
X142558688Y-102605605D01*
X142593024Y-102591523D01*
X142624420Y-102579721D01*
X142652617Y-102570318D01*
X142677354Y-102563436D01*
X142698369Y-102559196D01*
X142707401Y-102558105D01*
X142715404Y-102557719D01*
X142722347Y-102558054D01*
G37*
%TD.AperFunction*%
%TA.AperFunction,NonConductor*%
G36*
X138855193Y-101761791D02*
G01*
X138859251Y-101762430D01*
X138862988Y-101763435D01*
X138886992Y-101773984D01*
X138913633Y-101791122D01*
X138974064Y-101843840D01*
X139042754Y-101918938D01*
X139118179Y-102013765D01*
X139198813Y-102125669D01*
X139283130Y-102252001D01*
X139369605Y-102390109D01*
X139456713Y-102537342D01*
X139542928Y-102691049D01*
X139626725Y-102848579D01*
X139706577Y-103007281D01*
X139780960Y-103164504D01*
X139848348Y-103317597D01*
X139907216Y-103463909D01*
X139956038Y-103600789D01*
X139993289Y-103725586D01*
X140075838Y-104017686D01*
X139777388Y-104303436D01*
X139715227Y-104367916D01*
X139649197Y-104440656D01*
X139581381Y-104519200D01*
X139513863Y-104601092D01*
X139448726Y-104683878D01*
X139388053Y-104765100D01*
X139333930Y-104842305D01*
X139309975Y-104878633D01*
X139288438Y-104913036D01*
X139256762Y-104963600D01*
X139228212Y-105008286D01*
X139202490Y-105047316D01*
X139190596Y-105064780D01*
X139179297Y-105080914D01*
X139168557Y-105095745D01*
X139158337Y-105109303D01*
X139148601Y-105121614D01*
X139139312Y-105132706D01*
X139130432Y-105142608D01*
X139121924Y-105151347D01*
X139113751Y-105158951D01*
X139105875Y-105165448D01*
X139098260Y-105170867D01*
X139090868Y-105175234D01*
X139083663Y-105178578D01*
X139076606Y-105180927D01*
X139069660Y-105182308D01*
X139062790Y-105182750D01*
X139055956Y-105182280D01*
X139049122Y-105180927D01*
X139042251Y-105178717D01*
X139035306Y-105175680D01*
X139028249Y-105171843D01*
X139021043Y-105167234D01*
X139013652Y-105161881D01*
X139006037Y-105155812D01*
X138998161Y-105149054D01*
X138989988Y-105141636D01*
X138978696Y-105130678D01*
X138967442Y-105120428D01*
X138956228Y-105110884D01*
X138945055Y-105102048D01*
X138933923Y-105093918D01*
X138922834Y-105086495D01*
X138911790Y-105079779D01*
X138900791Y-105073770D01*
X138889838Y-105068468D01*
X138878933Y-105063873D01*
X138868077Y-105059985D01*
X138857271Y-105056804D01*
X138846516Y-105054329D01*
X138835813Y-105052562D01*
X138825164Y-105051502D01*
X138814570Y-105051148D01*
X138804031Y-105051502D01*
X138793549Y-105052562D01*
X138783126Y-105054329D01*
X138772761Y-105056804D01*
X138762457Y-105059985D01*
X138752215Y-105063873D01*
X138742036Y-105068468D01*
X138731920Y-105073770D01*
X138721870Y-105079779D01*
X138711886Y-105086495D01*
X138701969Y-105093918D01*
X138692121Y-105102048D01*
X138682343Y-105110884D01*
X138672635Y-105120428D01*
X138663000Y-105130678D01*
X138653438Y-105141636D01*
X138640594Y-105156779D01*
X138628075Y-105168723D01*
X138621854Y-105173425D01*
X138615613Y-105177243D01*
X138609318Y-105180150D01*
X138602936Y-105182117D01*
X138596433Y-105183117D01*
X138589776Y-105183122D01*
X138582930Y-105182103D01*
X138575862Y-105180034D01*
X138568538Y-105176885D01*
X138560925Y-105172629D01*
X138552988Y-105167239D01*
X138544695Y-105160686D01*
X138526902Y-105143980D01*
X138507277Y-105122288D01*
X138485549Y-105095388D01*
X138461450Y-105063055D01*
X138434709Y-105025067D01*
X138405056Y-104981199D01*
X138335938Y-104874936D01*
X138310978Y-104836069D01*
X138283898Y-104795871D01*
X138254957Y-104754650D01*
X138224416Y-104712713D01*
X138159577Y-104627918D01*
X138091463Y-104543942D01*
X138022159Y-104463240D01*
X137987711Y-104424884D01*
X137953748Y-104388268D01*
X137920528Y-104353698D01*
X137888313Y-104321481D01*
X137857363Y-104291925D01*
X137827938Y-104265336D01*
X137548539Y-104030386D01*
X137662838Y-103662086D01*
X137702427Y-103543752D01*
X137747075Y-103422646D01*
X137796337Y-103299568D01*
X137849766Y-103175319D01*
X137906916Y-103050697D01*
X137967341Y-102926503D01*
X138030592Y-102803536D01*
X138096226Y-102682598D01*
X138163794Y-102564487D01*
X138232850Y-102450004D01*
X138302948Y-102339949D01*
X138373641Y-102235121D01*
X138444483Y-102136321D01*
X138515028Y-102044348D01*
X138584828Y-101960003D01*
X138653438Y-101884085D01*
X138667930Y-101868987D01*
X138682757Y-101854679D01*
X138697807Y-101841209D01*
X138712969Y-101828622D01*
X138728131Y-101816966D01*
X138743181Y-101806286D01*
X138758008Y-101796629D01*
X138772500Y-101788042D01*
X138786546Y-101780571D01*
X138800034Y-101774263D01*
X138812851Y-101769164D01*
X138824888Y-101765321D01*
X138830578Y-101763885D01*
X138836032Y-101762780D01*
X138841234Y-101762012D01*
X138846171Y-101761588D01*
X138850828Y-101761512D01*
X138855193Y-101761791D01*
G37*
%TD.AperFunction*%
D11*
%TO.P,I2C1,1,Pin_1*%
%TO.N,+3.3V*%
X127120000Y-105000000D03*
D12*
%TO.P,I2C1,2,Pin_2*%
%TO.N,GND*%
X124580000Y-105000000D03*
%TO.P,I2C1,3,Pin_3*%
%TO.N,SCL*%
X122040000Y-105000000D03*
%TO.P,I2C1,4,Pin_4*%
%TO.N,SDA*%
X119500000Y-105000000D03*
%TD*%
D13*
%TO.P,V1,1,Pin_1*%
%TO.N,+12V*%
X155722500Y-99045000D03*
D14*
%TO.P,V1,2,Pin_2*%
%TO.N,GND*%
X155722500Y-93965000D03*
%TD*%
D11*
%TO.P,Servo1,1,Pin_1*%
%TO.N,Servo*%
X84000000Y-96000000D03*
D12*
%TO.P,Servo1,2,Pin_2*%
%TO.N,+5V*%
X81460000Y-96000000D03*
%TO.P,Servo1,3,Pin_3*%
%TO.N,GND*%
X78920000Y-96000000D03*
%TD*%
D13*
%TO.P,V2,1,Pin_1*%
%TO.N,+12V*%
X155722500Y-83045000D03*
D14*
%TO.P,V2,2,Pin_2*%
%TO.N,GND*%
X155722500Y-77965000D03*
%TD*%
D15*
%TO.P,ESP32_1,1,Pin_1*%
%TO.N,+5V*%
X84840000Y-65140000D03*
%TO.P,ESP32_1,2,Pin_2*%
%TO.N,GND*%
X87380000Y-65140000D03*
%TO.P,ESP32_1,3,Pin_3*%
%TO.N,En2*%
X89920000Y-65140000D03*
%TO.P,ESP32_1,4,Pin_4*%
%TO.N,PWMR2*%
X92460000Y-65140000D03*
%TO.P,ESP32_1,5,Pin_5*%
%TO.N,PWML2*%
X95000000Y-65140000D03*
%TO.P,ESP32_1,6,Pin_6*%
%TO.N,Servo*%
X97540000Y-65140000D03*
%TO.P,ESP32_1,7,Pin_7*%
%TO.N,En1*%
X100080000Y-65140000D03*
%TO.P,ESP32_1,8,Pin_8*%
%TO.N,PWML1*%
X102620000Y-65140000D03*
%TO.P,ESP32_1,9,Pin_9*%
%TO.N,PWMR1*%
X105160000Y-65140000D03*
%TO.P,ESP32_1,10,Pin_10*%
%TO.N,Net-(ESP32_1-Pin_10)*%
X107700000Y-65140000D03*
%TO.P,ESP32_1,11,Pin_11*%
%TO.N,B1*%
X110240000Y-65140000D03*
%TO.P,ESP32_1,12,Pin_12*%
%TO.N,A1*%
X112780000Y-65140000D03*
%TO.P,ESP32_1,13,Pin_13*%
%TO.N,Net-(ESP32_1-Pin_13)*%
X115320000Y-65140000D03*
%TO.P,ESP32_1,14,Pin_14*%
%TO.N,Net-(ESP32_1-Pin_14)*%
X117860000Y-65140000D03*
%TO.P,ESP32_1,15,Pin_15*%
%TO.N,Net-(ESP32_1-Pin_15)*%
X120400000Y-65140000D03*
%TO.P,ESP32_1,16,Pin_16*%
%TO.N,A2*%
X120400000Y-88000000D03*
%TO.P,ESP32_1,17,Pin_17*%
%TO.N,SCL*%
X117860000Y-88000000D03*
%TO.P,ESP32_1,18,Pin_18*%
%TO.N,Net-(ESP32_1-Pin_18)*%
X115320000Y-88000000D03*
%TO.P,ESP32_1,19,Pin_19*%
%TO.N,Net-(ESP32_1-Pin_19)*%
X112780000Y-88000000D03*
%TO.P,ESP32_1,20,Pin_20*%
%TO.N,SDA*%
X110240000Y-88000000D03*
%TO.P,ESP32_1,21,Pin_21*%
%TO.N,PWMR3*%
X107700000Y-88000000D03*
%TO.P,ESP32_1,22,Pin_22*%
%TO.N,A3*%
X105160000Y-88000000D03*
%TO.P,ESP32_1,23,Pin_23*%
%TO.N,B3*%
X102620000Y-88000000D03*
%TO.P,ESP32_1,24,Pin_24*%
%TO.N,Net-(ESP32_1-Pin_24)*%
X100080000Y-88000000D03*
%TO.P,ESP32_1,25,Pin_25*%
%TO.N,Net-(ESP32_1-Pin_25)*%
X97540000Y-88000000D03*
%TO.P,ESP32_1,26,Pin_26*%
%TO.N,En3*%
X95000000Y-88000000D03*
%TO.P,ESP32_1,27,Pin_27*%
%TO.N,PWML3*%
X92460000Y-88000000D03*
%TO.P,ESP32_1,28,Pin_28*%
%TO.N,B2*%
X89920000Y-88000000D03*
%TO.P,ESP32_1,29,Pin_29*%
%TO.N,GND*%
X87380000Y-88000000D03*
%TO.P,ESP32_1,30,Pin_30*%
%TO.N,+3.3V*%
X84840000Y-88000000D03*
%TD*%
D11*
%TO.P,R1,1,Pin_1*%
%TO.N,+5V*%
X91570000Y-58000000D03*
D12*
%TO.P,R1,2,Pin_2*%
%TO.N,GND*%
X94110000Y-58000000D03*
%TO.P,R1,3,Pin_3*%
%TO.N,En2*%
X96650000Y-58000000D03*
%TO.P,R1,4,Pin_4*%
%TO.N,PWMR2*%
X99190000Y-58000000D03*
%TO.P,R1,5,Pin_5*%
%TO.N,PWML2*%
X101730000Y-58000000D03*
%TO.P,R1,6,Pin_6*%
%TO.N,Servo*%
X104270000Y-58000000D03*
%TO.P,R1,7,Pin_7*%
%TO.N,En1*%
X106810000Y-58000000D03*
%TO.P,R1,8,Pin_8*%
%TO.N,PWML1*%
X109350000Y-58000000D03*
%TO.P,R1,9,Pin_9*%
%TO.N,PWMR1*%
X111890000Y-58000000D03*
%TO.P,R1,10,Pin_10*%
%TO.N,Net-(ESP32_1-Pin_10)*%
X114430000Y-58000000D03*
%TO.P,R1,11,Pin_11*%
%TO.N,B1*%
X116970000Y-58000000D03*
%TO.P,R1,12,Pin_12*%
%TO.N,A1*%
X119510000Y-58000000D03*
%TO.P,R1,13,Pin_13*%
%TO.N,Net-(ESP32_1-Pin_13)*%
X122050000Y-58000000D03*
%TO.P,R1,14,Pin_14*%
%TO.N,Net-(ESP32_1-Pin_14)*%
X124590000Y-58000000D03*
%TO.P,R1,15,Pin_15*%
%TO.N,Net-(ESP32_1-Pin_15)*%
X127130000Y-58000000D03*
%TD*%
D11*
%TO.P,V+1,1,Pin_1*%
%TO.N,+3.3V*%
X107780000Y-105000000D03*
D12*
%TO.P,V+1,2,Pin_2*%
X105240000Y-105000000D03*
%TO.P,V+1,3,Pin_3*%
X102700000Y-105000000D03*
%TO.P,V+1,4,Pin_4*%
X100160000Y-105000000D03*
%TO.P,V+1,5,Pin_5*%
X97620000Y-105000000D03*
%TO.P,V+1,6,Pin_6*%
%TO.N,+5V*%
X95080000Y-105000000D03*
%TO.P,V+1,7,Pin_7*%
X92540000Y-105000000D03*
%TO.P,V+1,8,Pin_8*%
X90000000Y-105000000D03*
%TO.P,V+1,9,Pin_9*%
X87460000Y-105000000D03*
%TO.P,V+1,10,Pin_10*%
X84920000Y-105000000D03*
%TD*%
D13*
%TO.P,V3,1,Pin_1*%
%TO.N,+12V*%
X155722500Y-67045000D03*
D14*
%TO.P,V3,2,Pin_2*%
%TO.N,GND*%
X155722500Y-61965000D03*
%TD*%
D11*
%TO.P,Encoder1,1,Pin_1*%
%TO.N,A1*%
X141000000Y-82500000D03*
D12*
%TO.P,Encoder1,2,Pin_2*%
%TO.N,B1*%
X141000000Y-85040000D03*
%TO.P,Encoder1,3,Pin_3*%
%TO.N,A2*%
X141000000Y-87580000D03*
%TO.P,Encoder1,4,Pin_4*%
%TO.N,B2*%
X141000000Y-90120000D03*
%TO.P,Encoder1,5,Pin_5*%
%TO.N,A3*%
X141000000Y-92660000D03*
%TO.P,Encoder1,6,Pin_6*%
%TO.N,B3*%
X141000000Y-95200000D03*
%TD*%
D11*
%TO.P,L1,1,Pin_1*%
%TO.N,+3.3V*%
X91840000Y-96000000D03*
D12*
%TO.P,L1,2,Pin_2*%
%TO.N,GND*%
X94380000Y-96000000D03*
%TO.P,L1,3,Pin_3*%
%TO.N,B2*%
X96920000Y-96000000D03*
%TO.P,L1,4,Pin_4*%
%TO.N,PWML3*%
X99460000Y-96000000D03*
%TO.P,L1,5,Pin_5*%
%TO.N,En3*%
X102000000Y-96000000D03*
%TO.P,L1,6,Pin_6*%
%TO.N,Net-(ESP32_1-Pin_25)*%
X104540000Y-96000000D03*
%TO.P,L1,7,Pin_7*%
%TO.N,Net-(ESP32_1-Pin_24)*%
X107080000Y-96000000D03*
%TO.P,L1,8,Pin_8*%
%TO.N,B3*%
X109620000Y-96000000D03*
%TO.P,L1,9,Pin_9*%
%TO.N,A3*%
X112160000Y-96000000D03*
%TO.P,L1,10,Pin_10*%
%TO.N,PWMR3*%
X114700000Y-96000000D03*
%TO.P,L1,11,Pin_11*%
%TO.N,SDA*%
X117240000Y-96000000D03*
%TO.P,L1,12,Pin_12*%
%TO.N,Net-(ESP32_1-Pin_19)*%
X119780000Y-96000000D03*
%TO.P,L1,13,Pin_13*%
%TO.N,Net-(ESP32_1-Pin_18)*%
X122320000Y-96000000D03*
%TO.P,L1,14,Pin_14*%
%TO.N,SCL*%
X124860000Y-96000000D03*
%TO.P,L1,15,Pin_15*%
%TO.N,A2*%
X127400000Y-96000000D03*
%TD*%
D11*
%TO.P,Gnd1,1,Pin_1*%
%TO.N,GND*%
X107700000Y-112000000D03*
D12*
%TO.P,Gnd1,2,Pin_2*%
X105160000Y-112000000D03*
%TO.P,Gnd1,3,Pin_3*%
X102620000Y-112000000D03*
%TO.P,Gnd1,4,Pin_4*%
X100080000Y-112000000D03*
%TO.P,Gnd1,5,Pin_5*%
X97540000Y-112000000D03*
%TO.P,Gnd1,6,Pin_6*%
X95000000Y-112000000D03*
%TO.P,Gnd1,7,Pin_7*%
X92460000Y-112000000D03*
%TO.P,Gnd1,8,Pin_8*%
X89920000Y-112000000D03*
%TO.P,Gnd1,9,Pin_9*%
X87380000Y-112000000D03*
%TO.P,Gnd1,10,Pin_10*%
X84840000Y-112000000D03*
%TD*%
D13*
%TO.P,Vin1,1,Pin_1*%
%TO.N,GND*%
X155500000Y-114500000D03*
D14*
%TO.P,Vin1,2,Pin_2*%
%TO.N,+12V*%
X155500000Y-109420000D03*
%TD*%
D11*
%TO.P,PWM1,1,Pin_1*%
%TO.N,PWML1*%
X141000000Y-63500000D03*
D12*
%TO.P,PWM1,2,Pin_2*%
%TO.N,PWMR1*%
X141000000Y-66040000D03*
%TO.P,PWM1,3,Pin_3*%
%TO.N,PWML2*%
X141000000Y-68580000D03*
%TO.P,PWM1,4,Pin_4*%
%TO.N,PWMR2*%
X141000000Y-71120000D03*
%TO.P,PWM1,5,Pin_5*%
%TO.N,PWML3*%
X141000000Y-73660000D03*
%TO.P,PWM1,6,Pin_6*%
%TO.N,PWMR3*%
X141000000Y-76200000D03*
%TD*%
D11*
%TO.P,Enable1,1,Pin_1*%
%TO.N,En1*%
X78000000Y-102000000D03*
D12*
%TO.P,Enable1,2,Pin_2*%
X78000000Y-104540000D03*
%TO.P,Enable1,3,Pin_3*%
%TO.N,En2*%
X78000000Y-107080000D03*
%TO.P,Enable1,4,Pin_4*%
X78000000Y-109620000D03*
%TO.P,Enable1,5,Pin_5*%
%TO.N,En3*%
X78000000Y-112160000D03*
%TO.P,Enable1,6,Pin_6*%
X78000000Y-114700000D03*
%TD*%
D16*
%TO.N,+3.3V*%
X91090000Y-95250000D02*
X91840000Y-96000000D01*
X84840000Y-90840000D02*
X89250000Y-95250000D01*
X84840000Y-88000000D02*
X84840000Y-90840000D01*
X89250000Y-95250000D02*
X91090000Y-95250000D01*
X110780000Y-102000000D02*
X107780000Y-105000000D01*
X126000000Y-102000000D02*
X110780000Y-102000000D01*
X127040000Y-103040000D02*
X126000000Y-102000000D01*
X127040000Y-105000000D02*
X127040000Y-103040000D01*
D17*
%TO.N,GND*%
X125669000Y-109338000D02*
X125500000Y-109169000D01*
X125669000Y-111419000D02*
X125669000Y-109338000D01*
X131500000Y-117250000D02*
X125669000Y-111419000D01*
X152250000Y-114500000D02*
X149500000Y-117250000D01*
X149500000Y-117250000D02*
X131500000Y-117250000D01*
X155500000Y-114500000D02*
X152250000Y-114500000D01*
D16*
X120829000Y-112000000D02*
X107700000Y-112000000D01*
X124580000Y-108249000D02*
X120829000Y-112000000D01*
%TO.N,+5V*%
X85000000Y-65140000D02*
X84840000Y-65140000D01*
X82750000Y-90500000D02*
X82750000Y-72195900D01*
X85000000Y-69945900D02*
X85000000Y-65140000D01*
X81250000Y-92000000D02*
X82750000Y-90500000D01*
X82750000Y-72195900D02*
X85000000Y-69945900D01*
X81250000Y-95790000D02*
X81250000Y-92000000D01*
X81460000Y-96000000D02*
X81250000Y-95790000D01*
D18*
%TO.N,En2*%
X96650000Y-56879000D02*
X96650000Y-58000000D01*
X95521000Y-55750000D02*
X96650000Y-56879000D01*
X82500000Y-55750000D02*
X95521000Y-55750000D01*
X76750000Y-61500000D02*
X82500000Y-55750000D01*
X79451700Y-99855700D02*
X76750000Y-97154000D01*
X76750000Y-97154000D02*
X76750000Y-61500000D01*
X79451700Y-105628300D02*
X79451700Y-99855700D01*
X78000000Y-107080000D02*
X79451700Y-105628300D01*
%TO.N,En1*%
X74500000Y-60500000D02*
X74500000Y-98774150D01*
X80500000Y-54500000D02*
X74500000Y-60500000D01*
X74500000Y-98774150D02*
X77725850Y-102000000D01*
X104500000Y-54500000D02*
X80500000Y-54500000D01*
X106810000Y-56810000D02*
X104500000Y-54500000D01*
X106810000Y-58000000D02*
X106810000Y-56810000D01*
X77725850Y-102000000D02*
X78000000Y-102000000D01*
D16*
%TO.N,+5V*%
X90000000Y-105000000D02*
X92540000Y-105000000D01*
X92540000Y-105000000D02*
X95080000Y-105000000D01*
X84920000Y-100022700D02*
X81460000Y-96562700D01*
X86190000Y-105000000D02*
X87460000Y-105000000D01*
X84920000Y-105000000D02*
X86190000Y-105000000D01*
X81460000Y-96000000D02*
X81481700Y-95978300D01*
X81460000Y-96562700D02*
X81460000Y-96000000D01*
X90000000Y-105000000D02*
X87460000Y-105000000D01*
X84920000Y-105000000D02*
X84920000Y-100022700D01*
X89730000Y-60250000D02*
X84840000Y-65140000D01*
X91570000Y-58430000D02*
X89750000Y-60250000D01*
X91570000Y-58000000D02*
X91570000Y-58430000D01*
X89750000Y-60250000D02*
X89730000Y-60250000D01*
D17*
%TO.N,GND*%
X156965000Y-61965000D02*
X155722500Y-61965000D01*
X160500000Y-65500000D02*
X156965000Y-61965000D01*
X160500000Y-77258000D02*
X160500000Y-65500000D01*
X158151300Y-79606700D02*
X160500000Y-77258000D01*
X160250000Y-88000000D02*
X160250000Y-81705400D01*
X159204200Y-89045800D02*
X160250000Y-88000000D01*
X159000000Y-89045800D02*
X159204200Y-89045800D01*
X160250000Y-81705400D02*
X158151300Y-79606700D01*
X155722500Y-92323300D02*
X159000000Y-89045800D01*
X155722500Y-93965000D02*
X155722500Y-92323300D01*
X157364200Y-79606700D02*
X158151300Y-79606700D01*
X155722500Y-77965000D02*
X157364200Y-79606700D01*
X157965000Y-93965000D02*
X155722500Y-93965000D01*
X160500000Y-109500000D02*
X160500000Y-96500000D01*
X155500000Y-114500000D02*
X160500000Y-109500000D01*
X160500000Y-96500000D02*
X157965000Y-93965000D01*
X124580000Y-108249000D02*
X124580000Y-105420000D01*
X124580000Y-105420000D02*
X124750000Y-105250000D01*
X124750000Y-108419000D02*
X124580000Y-108249000D01*
X124919000Y-108419000D02*
X124750000Y-108419000D01*
X125669000Y-109169000D02*
X124919000Y-108419000D01*
X125669000Y-109169000D02*
X125500000Y-109169000D01*
X125500000Y-109169000D02*
X124750000Y-108419000D01*
D18*
%TO.N,A3*%
X114160000Y-98000000D02*
X112160000Y-96000000D01*
X141000000Y-92660000D02*
X135660000Y-98000000D01*
X135660000Y-98000000D02*
X114160000Y-98000000D01*
%TO.N,B3*%
X113120000Y-99500000D02*
X109620000Y-96000000D01*
X136700000Y-99500000D02*
X113120000Y-99500000D01*
X141000000Y-95200000D02*
X136700000Y-99500000D01*
%TO.N,PWMR2*%
X139120000Y-73000000D02*
X141000000Y-71120000D01*
X99000000Y-73000000D02*
X139120000Y-73000000D01*
X92743300Y-66743300D02*
X99000000Y-73000000D01*
X92743300Y-65106600D02*
X92743300Y-66743300D01*
%TO.N,PWMR3*%
X118200000Y-77500000D02*
X107700000Y-88000000D01*
X139700000Y-77500000D02*
X118200000Y-77500000D01*
X141000000Y-76200000D02*
X139700000Y-77500000D01*
%TO.N,PWML3*%
X139660000Y-75000000D02*
X141000000Y-73660000D01*
X105460000Y-75000000D02*
X139660000Y-75000000D01*
X92460000Y-88000000D02*
X105460000Y-75000000D01*
D17*
%TO.N,+12V*%
X152000000Y-79322500D02*
X155722500Y-83045000D01*
X152000000Y-70767500D02*
X152000000Y-79322500D01*
X155722500Y-67045000D02*
X152000000Y-70767500D01*
X152000000Y-86767500D02*
X155722500Y-83045000D01*
X152000000Y-95322500D02*
X152000000Y-86767500D01*
X155722500Y-99045000D02*
X152000000Y-95322500D01*
D16*
%TO.N,GND*%
X78920000Y-96920000D02*
X78920000Y-96000000D01*
X82633400Y-100633400D02*
X78920000Y-96920000D01*
X82633400Y-109793400D02*
X82633400Y-100633400D01*
X84840000Y-112000000D02*
X82633400Y-109793400D01*
%TO.N,+3.3V*%
X97620000Y-103620000D02*
X97620000Y-105000000D01*
X91840000Y-97840000D02*
X97620000Y-103620000D01*
X91840000Y-96000000D02*
X91840000Y-97840000D01*
D18*
%TO.N,Net-(ESP32_1-Pin_25)*%
X97540000Y-88540000D02*
X104540000Y-95540000D01*
X104540000Y-95540000D02*
X104540000Y-96000000D01*
X97540000Y-88000000D02*
X97540000Y-88540000D01*
%TO.N,Net-(ESP32_1-Pin_24)*%
X101000000Y-89000000D02*
X100080000Y-88080000D01*
X100080000Y-88080000D02*
X100080000Y-88000000D01*
X101000000Y-90000000D02*
X101000000Y-89000000D01*
X102000000Y-91000000D02*
X101000000Y-90000000D01*
X102080000Y-91000000D02*
X102000000Y-91000000D01*
X107080000Y-96000000D02*
X102080000Y-91000000D01*
%TO.N,B3*%
X103171700Y-89551700D02*
X109620000Y-96000000D01*
X103171700Y-88551700D02*
X103171700Y-89551700D01*
X102620000Y-88000000D02*
X103171700Y-88551700D01*
%TO.N,A3*%
X105711700Y-89551700D02*
X112160000Y-96000000D01*
X105711700Y-88551700D02*
X105711700Y-89551700D01*
X105160000Y-88000000D02*
X105711700Y-88551700D01*
%TO.N,PWMR3*%
X108251700Y-89551700D02*
X114700000Y-96000000D01*
X108251700Y-88551700D02*
X108251700Y-89551700D01*
X107700000Y-88000000D02*
X108251700Y-88551700D01*
%TO.N,SDA*%
X110791700Y-89551700D02*
X110791700Y-88551700D01*
X110791700Y-88551700D02*
X110240000Y-88000000D01*
X117240000Y-96000000D02*
X110791700Y-89551700D01*
%TO.N,Net-(ESP32_1-Pin_19)*%
X112780000Y-89000000D02*
X112780000Y-88000000D01*
X119780000Y-96000000D02*
X112780000Y-89000000D01*
%TO.N,Net-(ESP32_1-Pin_18)*%
X122320000Y-95000000D02*
X122320000Y-96000000D01*
X115320000Y-88000000D02*
X122320000Y-95000000D01*
%TO.N,SCL*%
X124860000Y-94860000D02*
X124860000Y-96000000D01*
X117860000Y-87860000D02*
X124860000Y-94860000D01*
X117860000Y-88000000D02*
X117860000Y-87860000D01*
%TO.N,A2*%
X121000000Y-88000000D02*
X120400000Y-88000000D01*
X127400000Y-93588500D02*
X126588500Y-93588500D01*
X126588500Y-93588500D02*
X121000000Y-88000000D01*
%TO.N,En3*%
X102000000Y-95000000D02*
X102000000Y-96000000D01*
X95000000Y-88000000D02*
X102000000Y-95000000D01*
%TO.N,PWML3*%
X99460000Y-95000000D02*
X92460000Y-88000000D01*
X99460000Y-96000000D02*
X99460000Y-95000000D01*
%TO.N,A1*%
X137041254Y-56532700D02*
X120977300Y-56532700D01*
X138451354Y-57942800D02*
X137041254Y-56532700D01*
X144000000Y-60971400D02*
X140971400Y-57942800D01*
X140971400Y-57942800D02*
X138451354Y-57942800D01*
X120977300Y-56532700D02*
X119510000Y-58000000D01*
X144000000Y-80000000D02*
X144000000Y-60971400D01*
X141500000Y-82500000D02*
X144000000Y-80000000D01*
X141000000Y-82500000D02*
X141500000Y-82500000D01*
%TO.N,PWML2*%
X138580000Y-71000000D02*
X141000000Y-68580000D01*
X95000000Y-65140000D02*
X100860000Y-71000000D01*
X100860000Y-71000000D02*
X138580000Y-71000000D01*
%TO.N,PWML1*%
X139548300Y-63500000D02*
X141000000Y-63500000D01*
X134048300Y-69000000D02*
X139548300Y-63500000D01*
X106480000Y-69000000D02*
X134048300Y-69000000D01*
X102620000Y-65140000D02*
X106480000Y-69000000D01*
%TO.N,B1*%
X119970000Y-55000000D02*
X116970000Y-58000000D01*
X140000000Y-55000000D02*
X119970000Y-55000000D01*
X146000000Y-61000000D02*
X140000000Y-55000000D01*
X146000000Y-80150800D02*
X146000000Y-61000000D01*
X141110800Y-85040000D02*
X146000000Y-80150800D01*
X141000000Y-85040000D02*
X141110800Y-85040000D01*
%TO.N,Net-(ESP32_1-Pin_15)*%
X127130000Y-58410000D02*
X127130000Y-58000000D01*
X120400000Y-65140000D02*
X127130000Y-58410000D01*
%TO.N,Net-(ESP32_1-Pin_14)*%
X124590000Y-58410000D02*
X117860000Y-65140000D01*
X124590000Y-58000000D02*
X124590000Y-58410000D01*
%TO.N,En1*%
X100080000Y-64730000D02*
X106810000Y-58000000D01*
X100080000Y-65140000D02*
X100080000Y-64730000D01*
%TO.N,Net-(ESP32_1-Pin_13)*%
X121964500Y-58000000D02*
X122050000Y-58000000D01*
X115320000Y-64644500D02*
X121964500Y-58000000D01*
X115320000Y-65140000D02*
X115320000Y-64644500D01*
%TO.N,Net-(ESP32_1-Pin_10)*%
X107700000Y-64730000D02*
X107700000Y-65140000D01*
X114430000Y-58000000D02*
X107700000Y-64730000D01*
D17*
%TO.N,+12V*%
X155500000Y-99267500D02*
X155500000Y-109420000D01*
X155722500Y-99045000D02*
X155500000Y-99267500D01*
D18*
%TO.N,Servo*%
X97540000Y-64684300D02*
X97540000Y-65140000D01*
X104224300Y-58000000D02*
X97540000Y-64684300D01*
X104270000Y-58000000D02*
X104224300Y-58000000D01*
%TO.N,PWMR1*%
X105860100Y-64029900D02*
X105860100Y-65140000D01*
X111890000Y-58000000D02*
X105860100Y-64029900D01*
X105160000Y-65140000D02*
X105860100Y-65140000D01*
X105860100Y-65416700D02*
X105860100Y-65140000D01*
X107560300Y-67116900D02*
X105860100Y-65416700D01*
X126480000Y-67116900D02*
X107560300Y-67116900D01*
X133415300Y-60181600D02*
X126480000Y-67116900D01*
X140296000Y-60181600D02*
X133415300Y-60181600D01*
X142455800Y-62341400D02*
X140296000Y-60181600D01*
X142455800Y-64723300D02*
X142455800Y-62341400D01*
X141139100Y-66040000D02*
X142455800Y-64723300D01*
X141000000Y-66040000D02*
X141139100Y-66040000D01*
%TO.N,PWML1*%
X109350000Y-58410000D02*
X109350000Y-58000000D01*
X102620000Y-65140000D02*
X109350000Y-58410000D01*
%TO.N,PWML2*%
X101730000Y-58410000D02*
X101730000Y-58000000D01*
X95000000Y-65140000D02*
X101730000Y-58410000D01*
%TO.N,PWMR2*%
X92743300Y-64446700D02*
X99190000Y-58000000D01*
X92743300Y-65106600D02*
X92743300Y-64446700D01*
X92493400Y-65106600D02*
X92743300Y-65106600D01*
X92460000Y-65140000D02*
X92493400Y-65106600D01*
D16*
%TO.N,+3.3V*%
X100160000Y-105000000D02*
X102700000Y-105000000D01*
X97620000Y-105000000D02*
X100160000Y-105000000D01*
X105240000Y-105000000D02*
X106178300Y-105000000D01*
X106178300Y-105000000D02*
X107780000Y-105000000D01*
X106178300Y-105000000D02*
X102700000Y-105000000D01*
%TO.N,GND*%
X100080000Y-112000000D02*
X97540000Y-112000000D01*
X107700000Y-112000000D02*
X105160000Y-112000000D01*
X102620000Y-112000000D02*
X105160000Y-112000000D01*
X89920000Y-112000000D02*
X87380000Y-112000000D01*
D18*
X94380000Y-95000000D02*
X94380000Y-96000000D01*
X87380000Y-88000000D02*
X94380000Y-95000000D01*
D16*
X92460000Y-112000000D02*
X89920000Y-112000000D01*
X97540000Y-112000000D02*
X95000000Y-112000000D01*
X95000000Y-112000000D02*
X92460000Y-112000000D01*
D18*
X94110000Y-58410000D02*
X87380000Y-65140000D01*
D16*
X94110000Y-58000000D02*
X94110000Y-58410000D01*
D18*
X87380000Y-65140000D02*
X87380000Y-88000000D01*
D16*
X84840000Y-112000000D02*
X87380000Y-112000000D01*
X102620000Y-112000000D02*
X100080000Y-112000000D01*
D18*
%TO.N,B1*%
X110240000Y-64730000D02*
X110240000Y-65140000D01*
X116970000Y-58000000D02*
X110240000Y-64730000D01*
%TO.N,B2*%
X96920000Y-95000000D02*
X96920000Y-96000000D01*
X89920000Y-88000000D02*
X96920000Y-95000000D01*
%TO.N,A2*%
X127400000Y-96000000D02*
X127400000Y-93588500D01*
X133408500Y-87580000D02*
X127400000Y-93588500D01*
X141000000Y-87580000D02*
X133408500Y-87580000D01*
%TO.N,A1*%
X119510000Y-58410000D02*
X119510000Y-58000000D01*
X112780000Y-65140000D02*
X119510000Y-58410000D01*
%TO.N,En2*%
X89920000Y-64730000D02*
X96650000Y-58000000D01*
X89920000Y-65140000D02*
X89920000Y-64730000D01*
X78000000Y-108350000D02*
X78000000Y-109620000D01*
X78000000Y-108184400D02*
X78000000Y-108350000D01*
X78000000Y-107632200D02*
X78000000Y-108184400D01*
X78000000Y-107080000D02*
X78000000Y-107466600D01*
X78000000Y-107466600D02*
X78000000Y-107632200D01*
%TO.N,En3*%
X78000000Y-113430000D02*
X78000000Y-114700000D01*
X78000000Y-112160000D02*
X78000000Y-113264400D01*
X78000000Y-113264400D02*
X78000000Y-113430000D01*
%TO.N,En1*%
X78000000Y-104540000D02*
X78000000Y-102000000D01*
%TD*%
%TA.AperFunction,NonConductor*%
G36*
X139518413Y-56220185D02*
G01*
X139539055Y-56236819D01*
X139832855Y-56530619D01*
X139866340Y-56591942D01*
X139861356Y-56661634D01*
X139819484Y-56717567D01*
X139754020Y-56741984D01*
X139745174Y-56742300D01*
X138999979Y-56742300D01*
X138932940Y-56722615D01*
X138912298Y-56705981D01*
X138618499Y-56412181D01*
X138585014Y-56350858D01*
X138589998Y-56281166D01*
X138631870Y-56225233D01*
X138697334Y-56200816D01*
X138706180Y-56200500D01*
X139451374Y-56200500D01*
X139518413Y-56220185D01*
G37*
%TD.AperFunction*%
%TA.AperFunction,NonConductor*%
G36*
X119545193Y-53621473D02*
G01*
X119612180Y-53641336D01*
X119657795Y-53694261D01*
X119667555Y-53763446D01*
X119638361Y-53826924D01*
X119583183Y-53863404D01*
X119509163Y-53887454D01*
X119340800Y-53973240D01*
X119253579Y-54036610D01*
X119187927Y-54084310D01*
X119187925Y-54084312D01*
X119187924Y-54084312D01*
X116959055Y-56313181D01*
X116897732Y-56346666D01*
X116871374Y-56349500D01*
X116840098Y-56349500D01*
X116583506Y-56390140D01*
X116336423Y-56470422D01*
X116104945Y-56588368D01*
X115894774Y-56741066D01*
X115894768Y-56741071D01*
X115787681Y-56848159D01*
X115726358Y-56881644D01*
X115656666Y-56876660D01*
X115612319Y-56848159D01*
X115505231Y-56741071D01*
X115505225Y-56741066D01*
X115295054Y-56588368D01*
X115295053Y-56588367D01*
X115295051Y-56588366D01*
X115178306Y-56528881D01*
X115063576Y-56470422D01*
X114816493Y-56390140D01*
X114559902Y-56349500D01*
X114559897Y-56349500D01*
X114300103Y-56349500D01*
X114300098Y-56349500D01*
X114043506Y-56390140D01*
X113796423Y-56470422D01*
X113564945Y-56588368D01*
X113354774Y-56741066D01*
X113354768Y-56741071D01*
X113247681Y-56848159D01*
X113186358Y-56881644D01*
X113116666Y-56876660D01*
X113072319Y-56848159D01*
X112965231Y-56741071D01*
X112965225Y-56741066D01*
X112755054Y-56588368D01*
X112755053Y-56588367D01*
X112755051Y-56588366D01*
X112638306Y-56528881D01*
X112523576Y-56470422D01*
X112276493Y-56390140D01*
X112019902Y-56349500D01*
X112019897Y-56349500D01*
X111760103Y-56349500D01*
X111760098Y-56349500D01*
X111503506Y-56390140D01*
X111256423Y-56470422D01*
X111024945Y-56588368D01*
X110814774Y-56741066D01*
X110814768Y-56741071D01*
X110707681Y-56848159D01*
X110646358Y-56881644D01*
X110576666Y-56876660D01*
X110532319Y-56848159D01*
X110425231Y-56741071D01*
X110425225Y-56741066D01*
X110215054Y-56588368D01*
X110215053Y-56588367D01*
X110215051Y-56588366D01*
X110098306Y-56528881D01*
X109983576Y-56470422D01*
X109736493Y-56390140D01*
X109479902Y-56349500D01*
X109479897Y-56349500D01*
X109220103Y-56349500D01*
X109220098Y-56349500D01*
X108963506Y-56390140D01*
X108716423Y-56470422D01*
X108484945Y-56588368D01*
X108274774Y-56741066D01*
X108274767Y-56741072D01*
X108221839Y-56794000D01*
X108160516Y-56827484D01*
X108090824Y-56822499D01*
X108034891Y-56780628D01*
X108012111Y-56720196D01*
X108011263Y-56720331D01*
X108010611Y-56716217D01*
X108010540Y-56716028D01*
X108010499Y-56715508D01*
X107980940Y-56528881D01*
X107953846Y-56445497D01*
X107922547Y-56349168D01*
X107922545Y-56349165D01*
X107922545Y-56349163D01*
X107871917Y-56249800D01*
X107836760Y-56180801D01*
X107829596Y-56170940D01*
X107725690Y-56027926D01*
X107398264Y-55700500D01*
X105493880Y-53796115D01*
X105460395Y-53734792D01*
X105465379Y-53665100D01*
X105507251Y-53609167D01*
X105572715Y-53584750D01*
X105581861Y-53584434D01*
X119545193Y-53621473D01*
G37*
%TD.AperFunction*%
%TA.AperFunction,NonConductor*%
G36*
X104018413Y-55720185D02*
G01*
X104039055Y-55736819D01*
X104440055Y-56137819D01*
X104473540Y-56199142D01*
X104468556Y-56268834D01*
X104426684Y-56324767D01*
X104361220Y-56349184D01*
X104352374Y-56349500D01*
X104140098Y-56349500D01*
X103883506Y-56390140D01*
X103636423Y-56470422D01*
X103404945Y-56588368D01*
X103194774Y-56741066D01*
X103194768Y-56741071D01*
X103087681Y-56848159D01*
X103026358Y-56881644D01*
X102956666Y-56876660D01*
X102912319Y-56848159D01*
X102805231Y-56741071D01*
X102805225Y-56741066D01*
X102595054Y-56588368D01*
X102595053Y-56588367D01*
X102595051Y-56588366D01*
X102478306Y-56528881D01*
X102363576Y-56470422D01*
X102116493Y-56390140D01*
X101859902Y-56349500D01*
X101859897Y-56349500D01*
X101600103Y-56349500D01*
X101600098Y-56349500D01*
X101343506Y-56390140D01*
X101096423Y-56470422D01*
X100864945Y-56588368D01*
X100654774Y-56741066D01*
X100654768Y-56741071D01*
X100547681Y-56848159D01*
X100486358Y-56881644D01*
X100416666Y-56876660D01*
X100372319Y-56848159D01*
X100265231Y-56741071D01*
X100265225Y-56741066D01*
X100055054Y-56588368D01*
X100055053Y-56588367D01*
X100055051Y-56588366D01*
X99938306Y-56528881D01*
X99823576Y-56470422D01*
X99576493Y-56390140D01*
X99319902Y-56349500D01*
X99319897Y-56349500D01*
X99060103Y-56349500D01*
X99060098Y-56349500D01*
X98803506Y-56390140D01*
X98556423Y-56470422D01*
X98324945Y-56588368D01*
X98114774Y-56741066D01*
X98052775Y-56803065D01*
X97991451Y-56836549D01*
X97921760Y-56831564D01*
X97865826Y-56789693D01*
X97842622Y-56734785D01*
X97820940Y-56597882D01*
X97762547Y-56418168D01*
X97762545Y-56418165D01*
X97762545Y-56418163D01*
X97692741Y-56281166D01*
X97676760Y-56249801D01*
X97565690Y-56096926D01*
X97380945Y-55912181D01*
X97347460Y-55850858D01*
X97352444Y-55781166D01*
X97394316Y-55725233D01*
X97459780Y-55700816D01*
X97468626Y-55700500D01*
X103951374Y-55700500D01*
X104018413Y-55720185D01*
G37*
%TD.AperFunction*%
%TA.AperFunction,NonConductor*%
G36*
X136559667Y-57752885D02*
G01*
X136580309Y-57769519D01*
X137535664Y-58724873D01*
X137580210Y-58769419D01*
X137613695Y-58830742D01*
X137608711Y-58900434D01*
X137566839Y-58956367D01*
X137501375Y-58980784D01*
X137492529Y-58981100D01*
X133320813Y-58981100D01*
X133134185Y-59010659D01*
X132954465Y-59069054D01*
X132786100Y-59154840D01*
X132633223Y-59265912D01*
X127484064Y-64415070D01*
X127422741Y-64448555D01*
X127353049Y-64443571D01*
X127297116Y-64401699D01*
X127280043Y-64369294D01*
X127279952Y-64369332D01*
X127279543Y-64368344D01*
X127278961Y-64367240D01*
X127278396Y-64365576D01*
X127178046Y-64123309D01*
X127178041Y-64123299D01*
X127046924Y-63896196D01*
X126887281Y-63688148D01*
X126887274Y-63688140D01*
X126701860Y-63502726D01*
X126701851Y-63502718D01*
X126493803Y-63343075D01*
X126266700Y-63211958D01*
X126266690Y-63211953D01*
X126024428Y-63111605D01*
X126024421Y-63111603D01*
X126024419Y-63111602D01*
X125771116Y-63043730D01*
X125713339Y-63036123D01*
X125511127Y-63009500D01*
X125511120Y-63009500D01*
X125248880Y-63009500D01*
X125248872Y-63009500D01*
X125017772Y-63039926D01*
X124988884Y-63043730D01*
X124735581Y-63111602D01*
X124735571Y-63111605D01*
X124493309Y-63211953D01*
X124493299Y-63211958D01*
X124266201Y-63343072D01*
X124170415Y-63416573D01*
X124105245Y-63441767D01*
X124036801Y-63427729D01*
X123986811Y-63378915D01*
X123971147Y-63310824D01*
X123994783Y-63245073D01*
X124007243Y-63230520D01*
X127660476Y-59577286D01*
X127709836Y-59547038D01*
X127763572Y-59529579D01*
X127995051Y-59411634D01*
X128205229Y-59258931D01*
X128388931Y-59075229D01*
X128541634Y-58865051D01*
X128659579Y-58633572D01*
X128739860Y-58386493D01*
X128762539Y-58243298D01*
X128780500Y-58129902D01*
X128780500Y-57870104D01*
X128780250Y-57866928D01*
X128780500Y-57865738D01*
X128780500Y-57865231D01*
X128780607Y-57865231D01*
X128794615Y-57798551D01*
X128843666Y-57748794D01*
X128903868Y-57733200D01*
X136492628Y-57733200D01*
X136559667Y-57752885D01*
G37*
%TD.AperFunction*%
%TA.AperFunction,NonConductor*%
G36*
X123731530Y-63608746D02*
G01*
X123787463Y-63650618D01*
X123811880Y-63716082D01*
X123797028Y-63784355D01*
X123786572Y-63800414D01*
X123713075Y-63896197D01*
X123581958Y-64123299D01*
X123581953Y-64123309D01*
X123481605Y-64365571D01*
X123481602Y-64365581D01*
X123413730Y-64618885D01*
X123379500Y-64878872D01*
X123379500Y-65141127D01*
X123397161Y-65275264D01*
X123413730Y-65401116D01*
X123461018Y-65577598D01*
X123481602Y-65654418D01*
X123481605Y-65654428D01*
X123519100Y-65744947D01*
X123526569Y-65814416D01*
X123495294Y-65876896D01*
X123435205Y-65912548D01*
X123404539Y-65916400D01*
X122022399Y-65916400D01*
X121955360Y-65896715D01*
X121909605Y-65843911D01*
X121899661Y-65774753D01*
X121904468Y-65754082D01*
X121924025Y-65693890D01*
X121924025Y-65693889D01*
X121924026Y-65693886D01*
X121962500Y-65450971D01*
X121962500Y-65326625D01*
X121982185Y-65259586D01*
X121998814Y-65238949D01*
X123600518Y-63637244D01*
X123661838Y-63603762D01*
X123731530Y-63608746D01*
G37*
%TD.AperFunction*%
%TA.AperFunction,NonConductor*%
G36*
X139814413Y-61401785D02*
G01*
X139835055Y-61418419D01*
X140067751Y-61651115D01*
X140101236Y-61712438D01*
X140096252Y-61782130D01*
X140054380Y-61838063D01*
X139993955Y-61862016D01*
X139970749Y-61864630D01*
X139970745Y-61864631D01*
X139800476Y-61924211D01*
X139647737Y-62020184D01*
X139520184Y-62147737D01*
X139451587Y-62256909D01*
X139399252Y-62303200D01*
X139365991Y-62313410D01*
X139267185Y-62329059D01*
X139087465Y-62387454D01*
X138919100Y-62473240D01*
X138831879Y-62536610D01*
X138766227Y-62584310D01*
X138766225Y-62584312D01*
X138766224Y-62584312D01*
X133587355Y-67763181D01*
X133526032Y-67796666D01*
X133499674Y-67799500D01*
X127794526Y-67799500D01*
X127727487Y-67779815D01*
X127681732Y-67727011D01*
X127671788Y-67657853D01*
X127700813Y-67594297D01*
X127706845Y-67587819D01*
X133876245Y-61418419D01*
X133937568Y-61384934D01*
X133963926Y-61382100D01*
X139747374Y-61382100D01*
X139814413Y-61401785D01*
G37*
%TD.AperFunction*%
%TA.AperFunction,NonConductor*%
G36*
X142730212Y-66514468D02*
G01*
X142781687Y-66561712D01*
X142799500Y-66625745D01*
X142799500Y-67994254D01*
X142779815Y-68061293D01*
X142727011Y-68107048D01*
X142657853Y-68116992D01*
X142594297Y-68087967D01*
X142557569Y-68032573D01*
X142529579Y-67946428D01*
X142529577Y-67946425D01*
X142529577Y-67946423D01*
X142453271Y-67796666D01*
X142411634Y-67714949D01*
X142258931Y-67504771D01*
X142151841Y-67397681D01*
X142118356Y-67336358D01*
X142123340Y-67266666D01*
X142151841Y-67222319D01*
X142170028Y-67204132D01*
X142258931Y-67115229D01*
X142411634Y-66905051D01*
X142529579Y-66673572D01*
X142557569Y-66587426D01*
X142597007Y-66529751D01*
X142661365Y-66502553D01*
X142730212Y-66514468D01*
G37*
%TD.AperFunction*%
%TA.AperFunction,NonConductor*%
G36*
X139269066Y-65538537D02*
G01*
X139300599Y-65538988D01*
X139303649Y-65541010D01*
X139307303Y-65541272D01*
X139332552Y-65560173D01*
X139358832Y-65577598D01*
X139360305Y-65580950D01*
X139363236Y-65583144D01*
X139374256Y-65612689D01*
X139386946Y-65641561D01*
X139386875Y-65646522D01*
X139387653Y-65648608D01*
X139386442Y-65676852D01*
X139349500Y-65910097D01*
X139349500Y-66169902D01*
X139390140Y-66426493D01*
X139470422Y-66673576D01*
X139588368Y-66905054D01*
X139741066Y-67115225D01*
X139741071Y-67115231D01*
X139848159Y-67222319D01*
X139881644Y-67283642D01*
X139876660Y-67353334D01*
X139848159Y-67397681D01*
X139741071Y-67504768D01*
X139741066Y-67504774D01*
X139588368Y-67714945D01*
X139470422Y-67946423D01*
X139390140Y-68193506D01*
X139349500Y-68450097D01*
X139349500Y-68481374D01*
X139329815Y-68548413D01*
X139313181Y-68569055D01*
X138119055Y-69763181D01*
X138057732Y-69796666D01*
X138031374Y-69799500D01*
X135245926Y-69799500D01*
X135178887Y-69779815D01*
X135133132Y-69727011D01*
X135123188Y-69657853D01*
X135152213Y-69594297D01*
X135158245Y-69587819D01*
X135824246Y-68921818D01*
X139176290Y-65569771D01*
X139203961Y-65554662D01*
X139230736Y-65537990D01*
X139234398Y-65538042D01*
X139237611Y-65536288D01*
X139269066Y-65538537D01*
G37*
%TD.AperFunction*%
%TA.AperFunction,NonConductor*%
G36*
X101393334Y-66326890D02*
G01*
X101437681Y-66355391D01*
X101602100Y-66519810D01*
X101602105Y-66519814D01*
X101738745Y-66619088D01*
X101801071Y-66664370D01*
X101891691Y-66710543D01*
X102020207Y-66776026D01*
X102020210Y-66776027D01*
X102118741Y-66808041D01*
X102254114Y-66852026D01*
X102497029Y-66890500D01*
X102621374Y-66890500D01*
X102688413Y-66910185D01*
X102709055Y-66926819D01*
X105370055Y-69587819D01*
X105403540Y-69649142D01*
X105398556Y-69718834D01*
X105356684Y-69774767D01*
X105291220Y-69799184D01*
X105282374Y-69799500D01*
X101408626Y-69799500D01*
X101341587Y-69779815D01*
X101320945Y-69763181D01*
X98382359Y-66824595D01*
X98348874Y-66763272D01*
X98353858Y-66693580D01*
X98395730Y-66637647D01*
X98397014Y-66636699D01*
X98557901Y-66519809D01*
X98722319Y-66355391D01*
X98783642Y-66321906D01*
X98853334Y-66326890D01*
X98897681Y-66355391D01*
X99062100Y-66519810D01*
X99062105Y-66519814D01*
X99198745Y-66619088D01*
X99261071Y-66664370D01*
X99351691Y-66710543D01*
X99480207Y-66776026D01*
X99480210Y-66776027D01*
X99578741Y-66808041D01*
X99714114Y-66852026D01*
X99957029Y-66890500D01*
X99957030Y-66890500D01*
X100202970Y-66890500D01*
X100202971Y-66890500D01*
X100445886Y-66852026D01*
X100679792Y-66776026D01*
X100898929Y-66664370D01*
X101097901Y-66519809D01*
X101262319Y-66355391D01*
X101323642Y-66321906D01*
X101393334Y-66326890D01*
G37*
%TD.AperFunction*%
%TA.AperFunction,NonConductor*%
G36*
X142730212Y-69054468D02*
G01*
X142781687Y-69101712D01*
X142799500Y-69165745D01*
X142799500Y-70534254D01*
X142779815Y-70601293D01*
X142727011Y-70647048D01*
X142657853Y-70656992D01*
X142594297Y-70627967D01*
X142557569Y-70572573D01*
X142529579Y-70486428D01*
X142529577Y-70486425D01*
X142529577Y-70486423D01*
X142486787Y-70402445D01*
X142411634Y-70254949D01*
X142258931Y-70044771D01*
X142151841Y-69937681D01*
X142118356Y-69876358D01*
X142123340Y-69806666D01*
X142151841Y-69762319D01*
X142195326Y-69718834D01*
X142258931Y-69655229D01*
X142411634Y-69445051D01*
X142529579Y-69213572D01*
X142557569Y-69127426D01*
X142597007Y-69069751D01*
X142661365Y-69042553D01*
X142730212Y-69054468D01*
G37*
%TD.AperFunction*%
%TA.AperFunction,NonConductor*%
G36*
X95068413Y-66910185D02*
G01*
X95089055Y-66926819D01*
X99750055Y-71587819D01*
X99760667Y-71607255D01*
X99775168Y-71623989D01*
X99777084Y-71637320D01*
X99783540Y-71649142D01*
X99781960Y-71671228D01*
X99785112Y-71693147D01*
X99779516Y-71705398D01*
X99778556Y-71718834D01*
X99765285Y-71736560D01*
X99756087Y-71756703D01*
X99744755Y-71763985D01*
X99736684Y-71774767D01*
X99715938Y-71782504D01*
X99697309Y-71794477D01*
X99675390Y-71797628D01*
X99671220Y-71799184D01*
X99662374Y-71799500D01*
X99548626Y-71799500D01*
X99481587Y-71779815D01*
X99460945Y-71763181D01*
X94799945Y-67102181D01*
X94766460Y-67040858D01*
X94771444Y-66971166D01*
X94813316Y-66915233D01*
X94878780Y-66890816D01*
X94887626Y-66890500D01*
X95001374Y-66890500D01*
X95068413Y-66910185D01*
G37*
%TD.AperFunction*%
%TA.AperFunction,NonConductor*%
G36*
X142730212Y-71594468D02*
G01*
X142781687Y-71641712D01*
X142799500Y-71705745D01*
X142799500Y-73074254D01*
X142779815Y-73141293D01*
X142727011Y-73187048D01*
X142657853Y-73196992D01*
X142594297Y-73167967D01*
X142557569Y-73112573D01*
X142529579Y-73026428D01*
X142529577Y-73026425D01*
X142529577Y-73026423D01*
X142486787Y-72942445D01*
X142411634Y-72794949D01*
X142258931Y-72584771D01*
X142151841Y-72477681D01*
X142118356Y-72416358D01*
X142123340Y-72346666D01*
X142151841Y-72302319D01*
X142258931Y-72195229D01*
X142411634Y-71985051D01*
X142529579Y-71753572D01*
X142557569Y-71667426D01*
X142597007Y-71609751D01*
X142661365Y-71582553D01*
X142730212Y-71594468D01*
G37*
%TD.AperFunction*%
%TA.AperFunction,NonConductor*%
G36*
X142730212Y-74134468D02*
G01*
X142781687Y-74181712D01*
X142799500Y-74245745D01*
X142799500Y-75614254D01*
X142779815Y-75681293D01*
X142727011Y-75727048D01*
X142657853Y-75736992D01*
X142594297Y-75707967D01*
X142557569Y-75652573D01*
X142529579Y-75566428D01*
X142529577Y-75566425D01*
X142529577Y-75566423D01*
X142486787Y-75482445D01*
X142411634Y-75334949D01*
X142258931Y-75124771D01*
X142151841Y-75017681D01*
X142118356Y-74956358D01*
X142123340Y-74886666D01*
X142151841Y-74842319D01*
X142258931Y-74735229D01*
X142411634Y-74525051D01*
X142529579Y-74293572D01*
X142557569Y-74207426D01*
X142597007Y-74149751D01*
X142661365Y-74122553D01*
X142730212Y-74134468D01*
G37*
%TD.AperFunction*%
%TA.AperFunction,NonConductor*%
G36*
X158515496Y-66064302D02*
G01*
X158531550Y-66077841D01*
X158663181Y-66209472D01*
X158696666Y-66270795D01*
X158699500Y-66297153D01*
X158699500Y-76460846D01*
X158679815Y-76527885D01*
X158663181Y-76548527D01*
X158223827Y-76987880D01*
X158162504Y-77021365D01*
X158092812Y-77016381D01*
X158036879Y-76974509D01*
X158028760Y-76962201D01*
X158016106Y-76940284D01*
X158016105Y-76940283D01*
X158016103Y-76940279D01*
X157869230Y-76748870D01*
X157869225Y-76748864D01*
X157698635Y-76578274D01*
X157698628Y-76578268D01*
X157507229Y-76431403D01*
X157507227Y-76431401D01*
X157507221Y-76431397D01*
X157507216Y-76431394D01*
X157507213Y-76431392D01*
X157298286Y-76310767D01*
X157298275Y-76310762D01*
X157075388Y-76218439D01*
X157075381Y-76218437D01*
X157075379Y-76218436D01*
X156842334Y-76155992D01*
X156789178Y-76148993D01*
X156603140Y-76124500D01*
X156603133Y-76124500D01*
X154841867Y-76124500D01*
X154841859Y-76124500D01*
X154629243Y-76152492D01*
X154602666Y-76155992D01*
X154434249Y-76201119D01*
X154369621Y-76218436D01*
X154369611Y-76218439D01*
X154146724Y-76310762D01*
X154146713Y-76310767D01*
X154027951Y-76379336D01*
X153997549Y-76396889D01*
X153986500Y-76403268D01*
X153918600Y-76419741D01*
X153852573Y-76396889D01*
X153809383Y-76341968D01*
X153800500Y-76295881D01*
X153800500Y-71564652D01*
X153820185Y-71497613D01*
X153836814Y-71476976D01*
X156391972Y-68921817D01*
X156453295Y-68888333D01*
X156479653Y-68885499D01*
X157324105Y-68885499D01*
X157324108Y-68885499D01*
X157478435Y-68870300D01*
X157676455Y-68810232D01*
X157858951Y-68712685D01*
X158018910Y-68581410D01*
X158150185Y-68421451D01*
X158247732Y-68238955D01*
X158307800Y-68040935D01*
X158323000Y-67886609D01*
X158322999Y-66203392D01*
X158320466Y-66177674D01*
X158333485Y-66109029D01*
X158381551Y-66058319D01*
X158449402Y-66041645D01*
X158515496Y-66064302D01*
G37*
%TD.AperFunction*%
%TA.AperFunction,NonConductor*%
G36*
X86098834Y-70965541D02*
G01*
X86154767Y-71007413D01*
X86179184Y-71072877D01*
X86179500Y-71081723D01*
X86179500Y-86642428D01*
X86159815Y-86709467D01*
X86107011Y-86755222D01*
X86037853Y-86765166D01*
X85974297Y-86736141D01*
X85967819Y-86730109D01*
X85857899Y-86620189D01*
X85857894Y-86620185D01*
X85658932Y-86475632D01*
X85658931Y-86475631D01*
X85658929Y-86475630D01*
X85540896Y-86415489D01*
X85439792Y-86363973D01*
X85439789Y-86363972D01*
X85205887Y-86287974D01*
X85071353Y-86266666D01*
X84962971Y-86249500D01*
X84717029Y-86249500D01*
X84668446Y-86257194D01*
X84474110Y-86287974D01*
X84337817Y-86332258D01*
X84267976Y-86334253D01*
X84208144Y-86298172D01*
X84177316Y-86235471D01*
X84175500Y-86214327D01*
X84175500Y-72837723D01*
X84195185Y-72770684D01*
X84211819Y-72750042D01*
X85099770Y-71862091D01*
X85967821Y-70994040D01*
X86029142Y-70960557D01*
X86098834Y-70965541D01*
G37*
%TD.AperFunction*%
%TA.AperFunction,NonConductor*%
G36*
X117595698Y-76202294D02*
G01*
X117601960Y-76201119D01*
X117628819Y-76212020D01*
X117656625Y-76220185D01*
X117660795Y-76224998D01*
X117666701Y-76227395D01*
X117683405Y-76251091D01*
X117702380Y-76272989D01*
X117703286Y-76279293D01*
X117706958Y-76284502D01*
X117708199Y-76313460D01*
X117712324Y-76342147D01*
X117709677Y-76347942D01*
X117709950Y-76354307D01*
X117695340Y-76379336D01*
X117683299Y-76405703D01*
X117677133Y-76410527D01*
X117674728Y-76414649D01*
X117645881Y-76434985D01*
X117570800Y-76473240D01*
X117417923Y-76584312D01*
X107789055Y-86213181D01*
X107727732Y-86246666D01*
X107701374Y-86249500D01*
X107577029Y-86249500D01*
X107496057Y-86262324D01*
X107334112Y-86287974D01*
X107100210Y-86363972D01*
X107100207Y-86363973D01*
X106881067Y-86475632D01*
X106682105Y-86620185D01*
X106682100Y-86620189D01*
X106517681Y-86784609D01*
X106456358Y-86818094D01*
X106386666Y-86813110D01*
X106342319Y-86784609D01*
X106177899Y-86620189D01*
X106177894Y-86620185D01*
X105978932Y-86475632D01*
X105978931Y-86475631D01*
X105978929Y-86475630D01*
X105860896Y-86415489D01*
X105759792Y-86363973D01*
X105759789Y-86363972D01*
X105525887Y-86287974D01*
X105391353Y-86266666D01*
X105282971Y-86249500D01*
X105037029Y-86249500D01*
X104956057Y-86262324D01*
X104794112Y-86287974D01*
X104560210Y-86363972D01*
X104560207Y-86363973D01*
X104341067Y-86475632D01*
X104142105Y-86620185D01*
X104142100Y-86620189D01*
X103977681Y-86784609D01*
X103916358Y-86818094D01*
X103846666Y-86813110D01*
X103802319Y-86784609D01*
X103637899Y-86620189D01*
X103637894Y-86620185D01*
X103438932Y-86475632D01*
X103438931Y-86475631D01*
X103438929Y-86475630D01*
X103320896Y-86415489D01*
X103219792Y-86363973D01*
X103219789Y-86363972D01*
X102985887Y-86287974D01*
X102851353Y-86266666D01*
X102742971Y-86249500D01*
X102497029Y-86249500D01*
X102416057Y-86262324D01*
X102254112Y-86287974D01*
X102020210Y-86363972D01*
X102020207Y-86363973D01*
X101801067Y-86475632D01*
X101602105Y-86620185D01*
X101602100Y-86620189D01*
X101437681Y-86784609D01*
X101376358Y-86818094D01*
X101306666Y-86813110D01*
X101262319Y-86784609D01*
X101097899Y-86620189D01*
X101097894Y-86620185D01*
X100898932Y-86475632D01*
X100898931Y-86475631D01*
X100898929Y-86475630D01*
X100780896Y-86415489D01*
X100679792Y-86363973D01*
X100679789Y-86363972D01*
X100445887Y-86287974D01*
X100311353Y-86266666D01*
X100202971Y-86249500D01*
X99957029Y-86249500D01*
X99876057Y-86262324D01*
X99714112Y-86287974D01*
X99480210Y-86363972D01*
X99480207Y-86363973D01*
X99261067Y-86475632D01*
X99062105Y-86620185D01*
X99062100Y-86620189D01*
X98897681Y-86784609D01*
X98836358Y-86818094D01*
X98766666Y-86813110D01*
X98722319Y-86784609D01*
X98557899Y-86620189D01*
X98557894Y-86620185D01*
X98358932Y-86475632D01*
X98358931Y-86475631D01*
X98358929Y-86475630D01*
X98240896Y-86415489D01*
X98139792Y-86363973D01*
X98139789Y-86363972D01*
X97905887Y-86287974D01*
X97771353Y-86266666D01*
X97662971Y-86249500D01*
X97417029Y-86249500D01*
X97336057Y-86262324D01*
X97174112Y-86287974D01*
X96940210Y-86363972D01*
X96940207Y-86363973D01*
X96721067Y-86475632D01*
X96522105Y-86620185D01*
X96522100Y-86620189D01*
X96357681Y-86784609D01*
X96296358Y-86818094D01*
X96226666Y-86813110D01*
X96182319Y-86784609D01*
X96017899Y-86620189D01*
X96017894Y-86620185D01*
X95857155Y-86503402D01*
X95814489Y-86448073D01*
X95808510Y-86378459D01*
X95841115Y-86316664D01*
X95842285Y-86315478D01*
X105920945Y-76236819D01*
X105982268Y-76203334D01*
X106008626Y-76200500D01*
X117589586Y-76200500D01*
X117595698Y-76202294D01*
G37*
%TD.AperFunction*%
%TA.AperFunction,NonConductor*%
G36*
X91233334Y-66326890D02*
G01*
X91277681Y-66355391D01*
X91442102Y-66519812D01*
X91491684Y-66555834D01*
X91534350Y-66611163D01*
X91542800Y-66656153D01*
X91542800Y-66837786D01*
X91572359Y-67024418D01*
X91630754Y-67204136D01*
X91671265Y-67283642D01*
X91716540Y-67372499D01*
X91827610Y-67525374D01*
X98217926Y-73915690D01*
X98370801Y-74026760D01*
X98450347Y-74067290D01*
X98539163Y-74112545D01*
X98539165Y-74112545D01*
X98539168Y-74112547D01*
X98635497Y-74143846D01*
X98718881Y-74170940D01*
X98905514Y-74200500D01*
X98905519Y-74200500D01*
X99094481Y-74200500D01*
X104262374Y-74200500D01*
X104329413Y-74220185D01*
X104375168Y-74272989D01*
X104385112Y-74342147D01*
X104356087Y-74405703D01*
X104350055Y-74412181D01*
X92549055Y-86213181D01*
X92487732Y-86246666D01*
X92461374Y-86249500D01*
X92337029Y-86249500D01*
X92256057Y-86262324D01*
X92094112Y-86287974D01*
X91860210Y-86363972D01*
X91860207Y-86363973D01*
X91641067Y-86475632D01*
X91442105Y-86620185D01*
X91442100Y-86620189D01*
X91277681Y-86784609D01*
X91216358Y-86818094D01*
X91146666Y-86813110D01*
X91102319Y-86784609D01*
X90937899Y-86620189D01*
X90937894Y-86620185D01*
X90738932Y-86475632D01*
X90738931Y-86475631D01*
X90738929Y-86475630D01*
X90620896Y-86415489D01*
X90519792Y-86363973D01*
X90519789Y-86363972D01*
X90285887Y-86287974D01*
X90151353Y-86266666D01*
X90042971Y-86249500D01*
X89797029Y-86249500D01*
X89716057Y-86262324D01*
X89554112Y-86287974D01*
X89320210Y-86363972D01*
X89320207Y-86363973D01*
X89101067Y-86475632D01*
X88902105Y-86620185D01*
X88902100Y-86620189D01*
X88792181Y-86730109D01*
X88730858Y-86763594D01*
X88661166Y-86758610D01*
X88605233Y-86716738D01*
X88580816Y-86651274D01*
X88580500Y-86642428D01*
X88580500Y-66497572D01*
X88600185Y-66430533D01*
X88652989Y-66384778D01*
X88722147Y-66374834D01*
X88785703Y-66403859D01*
X88792181Y-66409891D01*
X88902100Y-66519810D01*
X88902105Y-66519814D01*
X89038745Y-66619088D01*
X89101071Y-66664370D01*
X89191691Y-66710543D01*
X89320207Y-66776026D01*
X89320210Y-66776027D01*
X89418741Y-66808041D01*
X89554114Y-66852026D01*
X89797029Y-66890500D01*
X89797030Y-66890500D01*
X90042970Y-66890500D01*
X90042971Y-66890500D01*
X90285886Y-66852026D01*
X90519792Y-66776026D01*
X90738929Y-66664370D01*
X90937901Y-66519809D01*
X91102319Y-66355391D01*
X91163642Y-66321906D01*
X91233334Y-66326890D01*
G37*
%TD.AperFunction*%
%TA.AperFunction,NonConductor*%
G36*
X89865196Y-56970185D02*
G01*
X89910951Y-57022989D01*
X89921377Y-57088384D01*
X89919500Y-57105041D01*
X89919500Y-58013176D01*
X89899815Y-58080215D01*
X89883181Y-58100857D01*
X88881391Y-59102646D01*
X88866597Y-59115282D01*
X88801349Y-59162688D01*
X88801346Y-59162691D01*
X88642686Y-59321352D01*
X84576212Y-63387825D01*
X84514889Y-63421310D01*
X84507932Y-63422617D01*
X84474108Y-63427975D01*
X84240210Y-63503972D01*
X84240207Y-63503973D01*
X84021067Y-63615632D01*
X83822105Y-63760185D01*
X83822100Y-63760189D01*
X83648189Y-63934100D01*
X83648185Y-63934105D01*
X83503632Y-64133067D01*
X83391973Y-64352207D01*
X83391972Y-64352210D01*
X83315974Y-64586112D01*
X83277500Y-64829029D01*
X83277500Y-65450971D01*
X83291291Y-65538042D01*
X83315974Y-65693887D01*
X83391972Y-65927789D01*
X83391973Y-65927792D01*
X83503630Y-66146930D01*
X83520317Y-66169897D01*
X83550817Y-66211877D01*
X83574298Y-66277682D01*
X83574500Y-66284762D01*
X83574500Y-69304076D01*
X83554815Y-69371115D01*
X83538181Y-69391757D01*
X81662687Y-71267250D01*
X81662683Y-71267255D01*
X81565428Y-71401117D01*
X81565428Y-71401118D01*
X81530803Y-71448774D01*
X81428938Y-71648695D01*
X81359600Y-71862091D01*
X81359600Y-71862094D01*
X81351111Y-71915691D01*
X81324500Y-72083710D01*
X81324500Y-86914198D01*
X81304815Y-86981237D01*
X81252011Y-87026992D01*
X81182853Y-87036936D01*
X81119297Y-87007911D01*
X81093113Y-86976198D01*
X81046924Y-86896196D01*
X80909219Y-86716738D01*
X80887282Y-86688149D01*
X80887281Y-86688148D01*
X80887274Y-86688140D01*
X80701860Y-86502726D01*
X80701851Y-86502718D01*
X80493803Y-86343075D01*
X80266700Y-86211958D01*
X80266690Y-86211953D01*
X80024428Y-86111605D01*
X80024421Y-86111603D01*
X80024419Y-86111602D01*
X79771116Y-86043730D01*
X79713339Y-86036123D01*
X79511127Y-86009500D01*
X79511120Y-86009500D01*
X79248880Y-86009500D01*
X79248872Y-86009500D01*
X79017772Y-86039926D01*
X78988884Y-86043730D01*
X78735581Y-86111602D01*
X78735571Y-86111605D01*
X78493309Y-86211953D01*
X78493299Y-86211958D01*
X78266201Y-86343072D01*
X78199063Y-86394590D01*
X78153626Y-86429456D01*
X78149987Y-86432248D01*
X78084817Y-86457442D01*
X78016373Y-86443404D01*
X77966383Y-86394590D01*
X77950500Y-86333872D01*
X77950500Y-66686127D01*
X77970185Y-66619088D01*
X78022989Y-66573333D01*
X78092147Y-66563389D01*
X78149986Y-66587751D01*
X78180496Y-66611163D01*
X78266196Y-66676924D01*
X78493299Y-66808041D01*
X78493309Y-66808046D01*
X78727508Y-66905054D01*
X78735581Y-66908398D01*
X78988884Y-66976270D01*
X79248880Y-67010500D01*
X79248887Y-67010500D01*
X79511113Y-67010500D01*
X79511120Y-67010500D01*
X79771116Y-66976270D01*
X80024419Y-66908398D01*
X80266697Y-66808043D01*
X80493803Y-66676924D01*
X80701851Y-66517282D01*
X80701855Y-66517277D01*
X80701860Y-66517274D01*
X80887274Y-66331860D01*
X80887277Y-66331855D01*
X80887282Y-66331851D01*
X81046924Y-66123803D01*
X81178043Y-65896697D01*
X81278398Y-65654419D01*
X81346270Y-65401116D01*
X81380500Y-65141120D01*
X81380500Y-64878880D01*
X81346270Y-64618884D01*
X81278398Y-64365581D01*
X81225294Y-64237376D01*
X81178046Y-64123309D01*
X81178041Y-64123299D01*
X81046924Y-63896196D01*
X80887281Y-63688148D01*
X80887274Y-63688140D01*
X80701860Y-63502726D01*
X80701851Y-63502718D01*
X80493803Y-63343075D01*
X80266700Y-63211958D01*
X80266690Y-63211953D01*
X80024428Y-63111605D01*
X80024421Y-63111603D01*
X80024419Y-63111602D01*
X79771116Y-63043730D01*
X79713339Y-63036123D01*
X79511127Y-63009500D01*
X79511120Y-63009500D01*
X79248880Y-63009500D01*
X79248872Y-63009500D01*
X79017772Y-63039926D01*
X78988884Y-63043730D01*
X78735581Y-63111602D01*
X78735571Y-63111605D01*
X78493309Y-63211953D01*
X78493299Y-63211958D01*
X78266201Y-63343072D01*
X78207879Y-63387825D01*
X78155556Y-63427975D01*
X78149987Y-63432248D01*
X78084817Y-63457442D01*
X78016373Y-63443404D01*
X77966383Y-63394590D01*
X77950500Y-63333872D01*
X77950500Y-62048626D01*
X77970185Y-61981587D01*
X77986819Y-61960945D01*
X82960945Y-56986819D01*
X83022268Y-56953334D01*
X83048626Y-56950500D01*
X89798157Y-56950500D01*
X89865196Y-56970185D01*
G37*
%TD.AperFunction*%
%TA.AperFunction,NonConductor*%
G36*
X158398922Y-84256582D02*
G01*
X158441291Y-84312140D01*
X158449500Y-84356508D01*
X158449500Y-87202845D01*
X158440855Y-87232282D01*
X158434332Y-87262273D01*
X158430576Y-87267289D01*
X158429815Y-87269884D01*
X158413181Y-87290527D01*
X158346129Y-87357578D01*
X158305901Y-87384457D01*
X158201954Y-87427513D01*
X158201942Y-87427519D01*
X157997557Y-87545522D01*
X157997541Y-87545533D01*
X157810302Y-87689206D01*
X157810295Y-87689212D01*
X154365912Y-91133595D01*
X154365906Y-91133602D01*
X154222233Y-91320841D01*
X154222222Y-91320857D01*
X154104219Y-91525243D01*
X154104215Y-91525252D01*
X154094913Y-91547711D01*
X154094912Y-91547713D01*
X154039061Y-91682549D01*
X153995220Y-91736952D01*
X153928926Y-91759017D01*
X153861226Y-91741738D01*
X153813616Y-91690600D01*
X153800500Y-91635096D01*
X153800500Y-87564652D01*
X153820185Y-87497613D01*
X153836814Y-87476976D01*
X156391972Y-84921817D01*
X156453295Y-84888333D01*
X156479653Y-84885499D01*
X157324105Y-84885499D01*
X157324108Y-84885499D01*
X157478435Y-84870300D01*
X157676455Y-84810232D01*
X157858951Y-84712685D01*
X158018910Y-84581410D01*
X158150185Y-84421451D01*
X158216143Y-84298052D01*
X158265105Y-84248210D01*
X158333242Y-84232750D01*
X158398922Y-84256582D01*
G37*
%TD.AperFunction*%
%TA.AperFunction,NonConductor*%
G36*
X142730212Y-76674468D02*
G01*
X142781687Y-76721712D01*
X142799500Y-76785745D01*
X142799500Y-79451374D01*
X142779815Y-79518413D01*
X142763181Y-79539055D01*
X141489055Y-80813181D01*
X141427732Y-80846666D01*
X141401374Y-80849500D01*
X140105039Y-80849500D01*
X139970750Y-80864630D01*
X139970745Y-80864631D01*
X139800476Y-80924211D01*
X139647737Y-81020184D01*
X139520184Y-81147737D01*
X139424211Y-81300476D01*
X139364631Y-81470745D01*
X139364630Y-81470750D01*
X139349500Y-81605039D01*
X139349500Y-83394960D01*
X139364630Y-83529249D01*
X139364631Y-83529254D01*
X139424211Y-83699523D01*
X139520184Y-83852262D01*
X139620576Y-83952654D01*
X139654061Y-84013977D01*
X139649077Y-84083669D01*
X139633214Y-84113219D01*
X139588367Y-84174946D01*
X139470422Y-84406423D01*
X139390140Y-84653506D01*
X139349500Y-84910097D01*
X139349500Y-85169902D01*
X139390140Y-85426493D01*
X139470422Y-85673576D01*
X139588368Y-85905054D01*
X139741066Y-86115225D01*
X139741071Y-86115231D01*
X139793659Y-86167819D01*
X139827144Y-86229142D01*
X139822160Y-86298834D01*
X139780288Y-86354767D01*
X139714824Y-86379184D01*
X139705978Y-86379500D01*
X133314013Y-86379500D01*
X133127385Y-86409059D01*
X133127382Y-86409060D01*
X132978479Y-86457442D01*
X132947665Y-86467454D01*
X132779300Y-86553240D01*
X132626423Y-86664312D01*
X127081930Y-92208805D01*
X127020607Y-92242290D01*
X126950915Y-92237306D01*
X126906568Y-92208805D01*
X124884597Y-90186834D01*
X124851112Y-90125511D01*
X124856096Y-90055819D01*
X124897968Y-89999886D01*
X124963432Y-89975469D01*
X124988464Y-89976214D01*
X124988878Y-89976268D01*
X124988884Y-89976270D01*
X125248880Y-90010500D01*
X125248887Y-90010500D01*
X125511113Y-90010500D01*
X125511120Y-90010500D01*
X125771116Y-89976270D01*
X126024419Y-89908398D01*
X126266697Y-89808043D01*
X126493803Y-89676924D01*
X126701851Y-89517282D01*
X126701855Y-89517277D01*
X126701860Y-89517274D01*
X126887274Y-89331860D01*
X126887277Y-89331855D01*
X126887282Y-89331851D01*
X127046924Y-89123803D01*
X127178043Y-88896697D01*
X127196148Y-88852989D01*
X127218907Y-88798043D01*
X127278398Y-88654419D01*
X127346270Y-88401116D01*
X127380500Y-88141120D01*
X127380500Y-87878880D01*
X127346270Y-87618884D01*
X127278398Y-87365581D01*
X127237684Y-87267289D01*
X127178046Y-87123309D01*
X127178041Y-87123299D01*
X127046924Y-86896196D01*
X126909219Y-86716738D01*
X126887282Y-86688149D01*
X126887281Y-86688148D01*
X126887274Y-86688140D01*
X126701860Y-86502726D01*
X126701851Y-86502718D01*
X126493803Y-86343075D01*
X126266700Y-86211958D01*
X126266690Y-86211953D01*
X126024428Y-86111605D01*
X126024421Y-86111603D01*
X126024419Y-86111602D01*
X125771116Y-86043730D01*
X125713339Y-86036123D01*
X125511127Y-86009500D01*
X125511120Y-86009500D01*
X125248880Y-86009500D01*
X125248872Y-86009500D01*
X125017772Y-86039926D01*
X124988884Y-86043730D01*
X124735581Y-86111602D01*
X124735571Y-86111605D01*
X124493309Y-86211953D01*
X124493299Y-86211958D01*
X124266196Y-86343075D01*
X124058148Y-86502718D01*
X123872718Y-86688148D01*
X123713075Y-86896196D01*
X123581958Y-87123299D01*
X123581953Y-87123309D01*
X123481605Y-87365571D01*
X123481602Y-87365581D01*
X123428262Y-87564652D01*
X123413730Y-87618885D01*
X123379500Y-87878872D01*
X123379500Y-88141127D01*
X123413785Y-88401534D01*
X123403020Y-88470570D01*
X123356640Y-88522826D01*
X123289371Y-88541711D01*
X123222570Y-88521231D01*
X123203165Y-88505401D01*
X121797561Y-87099797D01*
X121774757Y-87068410D01*
X121736369Y-86993069D01*
X121591814Y-86794105D01*
X121591810Y-86794100D01*
X121417899Y-86620189D01*
X121417894Y-86620185D01*
X121218932Y-86475632D01*
X121218931Y-86475631D01*
X121218929Y-86475630D01*
X121100896Y-86415489D01*
X120999792Y-86363973D01*
X120999789Y-86363972D01*
X120765887Y-86287974D01*
X120631353Y-86266666D01*
X120522971Y-86249500D01*
X120277029Y-86249500D01*
X120196057Y-86262324D01*
X120034112Y-86287974D01*
X119800210Y-86363972D01*
X119800207Y-86363973D01*
X119581067Y-86475632D01*
X119382105Y-86620185D01*
X119382100Y-86620189D01*
X119217681Y-86784609D01*
X119156358Y-86818094D01*
X119086666Y-86813110D01*
X119042319Y-86784609D01*
X118877899Y-86620189D01*
X118877894Y-86620185D01*
X118678932Y-86475632D01*
X118678931Y-86475631D01*
X118678929Y-86475630D01*
X118560896Y-86415489D01*
X118459792Y-86363973D01*
X118459789Y-86363972D01*
X118225887Y-86287974D01*
X118091353Y-86266666D01*
X117982971Y-86249500D01*
X117737029Y-86249500D01*
X117656057Y-86262324D01*
X117494112Y-86287974D01*
X117260210Y-86363972D01*
X117260207Y-86363973D01*
X117041067Y-86475632D01*
X116842105Y-86620185D01*
X116842100Y-86620189D01*
X116677681Y-86784609D01*
X116616358Y-86818094D01*
X116546666Y-86813110D01*
X116502319Y-86784609D01*
X116337899Y-86620189D01*
X116337894Y-86620185D01*
X116138932Y-86475632D01*
X116138931Y-86475631D01*
X116138929Y-86475630D01*
X116020896Y-86415489D01*
X115919792Y-86363973D01*
X115919789Y-86363972D01*
X115685887Y-86287974D01*
X115551353Y-86266666D01*
X115442971Y-86249500D01*
X115197029Y-86249500D01*
X115116057Y-86262324D01*
X114954112Y-86287974D01*
X114720210Y-86363972D01*
X114720207Y-86363973D01*
X114501067Y-86475632D01*
X114302105Y-86620185D01*
X114302100Y-86620189D01*
X114137681Y-86784609D01*
X114076358Y-86818094D01*
X114006666Y-86813110D01*
X113962319Y-86784609D01*
X113797899Y-86620189D01*
X113797894Y-86620185D01*
X113598932Y-86475632D01*
X113598931Y-86475631D01*
X113598929Y-86475630D01*
X113480896Y-86415489D01*
X113379792Y-86363973D01*
X113379789Y-86363972D01*
X113145887Y-86287974D01*
X113011353Y-86266666D01*
X112902971Y-86249500D01*
X112657029Y-86249500D01*
X112576057Y-86262324D01*
X112414112Y-86287974D01*
X112180210Y-86363972D01*
X112180207Y-86363973D01*
X111961067Y-86475632D01*
X111762105Y-86620185D01*
X111762100Y-86620189D01*
X111597681Y-86784609D01*
X111536358Y-86818094D01*
X111466666Y-86813110D01*
X111422319Y-86784609D01*
X111257899Y-86620189D01*
X111257894Y-86620185D01*
X111097155Y-86503402D01*
X111054489Y-86448073D01*
X111048510Y-86378459D01*
X111081115Y-86316664D01*
X111082284Y-86315478D01*
X118660945Y-78736819D01*
X118722268Y-78703334D01*
X118748626Y-78700500D01*
X139794486Y-78700500D01*
X139981118Y-78670940D01*
X140160832Y-78612547D01*
X140329199Y-78526760D01*
X140482074Y-78415690D01*
X141010945Y-77886819D01*
X141072268Y-77853334D01*
X141098626Y-77850500D01*
X141129902Y-77850500D01*
X141243298Y-77832539D01*
X141386493Y-77809860D01*
X141633572Y-77729579D01*
X141865051Y-77611634D01*
X142075229Y-77458931D01*
X142258931Y-77275229D01*
X142411634Y-77065051D01*
X142529579Y-76833572D01*
X142557569Y-76747426D01*
X142597007Y-76689751D01*
X142661365Y-76662553D01*
X142730212Y-76674468D01*
G37*
%TD.AperFunction*%
%TA.AperFunction,NonConductor*%
G36*
X86420268Y-89435576D02*
G01*
X86431170Y-89436200D01*
X86462385Y-89452671D01*
X86481514Y-89466569D01*
X86561071Y-89524370D01*
X86685465Y-89587752D01*
X86780207Y-89636026D01*
X86780210Y-89636027D01*
X86897161Y-89674026D01*
X87014114Y-89712026D01*
X87257029Y-89750500D01*
X87381374Y-89750500D01*
X87448413Y-89770185D01*
X87469055Y-89786819D01*
X89477185Y-91794949D01*
X91295082Y-93612845D01*
X91328567Y-93674168D01*
X91323583Y-93743860D01*
X91281711Y-93799793D01*
X91216247Y-93824210D01*
X91207062Y-93824186D01*
X91207062Y-93824500D01*
X89891823Y-93824500D01*
X89824784Y-93804815D01*
X89804142Y-93788181D01*
X86301819Y-90285858D01*
X86268334Y-90224535D01*
X86265500Y-90198177D01*
X86265500Y-89552989D01*
X86269047Y-89540908D01*
X86267970Y-89528364D01*
X86278704Y-89508019D01*
X86285185Y-89485950D01*
X86294700Y-89477705D01*
X86300576Y-89466569D01*
X86320606Y-89455257D01*
X86337989Y-89440195D01*
X86350450Y-89438403D01*
X86361414Y-89432212D01*
X86384378Y-89433524D01*
X86407147Y-89430251D01*
X86420268Y-89435576D01*
G37*
%TD.AperFunction*%
%TA.AperFunction,NonConductor*%
G36*
X81277151Y-89008330D02*
G01*
X81317680Y-89065244D01*
X81324500Y-89105801D01*
X81324500Y-89858176D01*
X81304815Y-89925215D01*
X81288181Y-89945857D01*
X80162687Y-91071350D01*
X80162683Y-91071355D01*
X80030805Y-91252871D01*
X79928938Y-91452793D01*
X79859599Y-91666194D01*
X79824500Y-91887805D01*
X79824500Y-94406116D01*
X79804815Y-94473155D01*
X79752011Y-94518910D01*
X79682853Y-94528854D01*
X79644205Y-94516601D01*
X79553576Y-94470422D01*
X79306493Y-94390140D01*
X79049902Y-94349500D01*
X79049897Y-94349500D01*
X78790103Y-94349500D01*
X78790098Y-94349500D01*
X78533506Y-94390140D01*
X78286423Y-94470422D01*
X78130795Y-94549720D01*
X78062126Y-94562616D01*
X77997385Y-94536340D01*
X77957128Y-94479233D01*
X77950500Y-94439235D01*
X77950500Y-89686127D01*
X77970185Y-89619088D01*
X78022989Y-89573333D01*
X78092147Y-89563389D01*
X78149987Y-89587752D01*
X78266196Y-89676924D01*
X78493299Y-89808041D01*
X78493309Y-89808046D01*
X78735571Y-89908394D01*
X78735581Y-89908398D01*
X78988884Y-89976270D01*
X79248880Y-90010500D01*
X79248887Y-90010500D01*
X79511113Y-90010500D01*
X79511120Y-90010500D01*
X79771116Y-89976270D01*
X80024419Y-89908398D01*
X80266697Y-89808043D01*
X80493803Y-89676924D01*
X80701851Y-89517282D01*
X80701855Y-89517277D01*
X80701860Y-89517274D01*
X80887274Y-89331860D01*
X80887277Y-89331855D01*
X80887282Y-89331851D01*
X81046924Y-89123803D01*
X81046927Y-89123798D01*
X81093113Y-89043802D01*
X81143679Y-88995586D01*
X81212286Y-88982362D01*
X81277151Y-89008330D01*
G37*
%TD.AperFunction*%
%TA.AperFunction,NonConductor*%
G36*
X139773017Y-88800185D02*
G01*
X139818772Y-88852989D01*
X139828716Y-88922147D01*
X139799691Y-88985703D01*
X139793659Y-88992181D01*
X139741071Y-89044768D01*
X139741066Y-89044774D01*
X139588368Y-89254945D01*
X139470422Y-89486423D01*
X139390140Y-89733506D01*
X139349500Y-89990097D01*
X139349500Y-90249902D01*
X139390140Y-90506493D01*
X139470422Y-90753576D01*
X139588368Y-90985054D01*
X139741066Y-91195225D01*
X139741071Y-91195231D01*
X139848159Y-91302319D01*
X139881644Y-91363642D01*
X139876660Y-91433334D01*
X139848159Y-91477681D01*
X139741071Y-91584768D01*
X139741066Y-91584774D01*
X139588368Y-91794945D01*
X139470422Y-92026423D01*
X139390140Y-92273506D01*
X139349500Y-92530097D01*
X139349500Y-92561374D01*
X139329815Y-92628413D01*
X139313181Y-92649055D01*
X135199055Y-96763181D01*
X135137732Y-96796666D01*
X135111374Y-96799500D01*
X129046337Y-96799500D01*
X128979298Y-96779815D01*
X128933543Y-96727011D01*
X128923599Y-96657853D01*
X128928406Y-96637182D01*
X129009859Y-96386497D01*
X129009859Y-96386496D01*
X129009860Y-96386493D01*
X129030797Y-96254293D01*
X129050500Y-96129902D01*
X129050500Y-95870097D01*
X129028947Y-95734021D01*
X129009860Y-95613507D01*
X128929579Y-95366428D01*
X128929577Y-95366425D01*
X128929577Y-95366423D01*
X128886787Y-95282445D01*
X128811634Y-95134949D01*
X128658931Y-94924771D01*
X128636819Y-94902659D01*
X128603334Y-94841336D01*
X128600500Y-94814978D01*
X128600500Y-94137126D01*
X128620185Y-94070087D01*
X128636819Y-94049445D01*
X133869445Y-88816819D01*
X133930768Y-88783334D01*
X133957126Y-88780500D01*
X139705978Y-88780500D01*
X139773017Y-88800185D01*
G37*
%TD.AperFunction*%
%TA.AperFunction,NonConductor*%
G36*
X75905703Y-98007912D02*
G01*
X75912166Y-98013930D01*
X77133219Y-99234982D01*
X78036056Y-100137819D01*
X78069541Y-100199142D01*
X78064557Y-100268834D01*
X78022685Y-100324767D01*
X77957221Y-100349184D01*
X77948375Y-100349500D01*
X77824475Y-100349500D01*
X77757436Y-100329815D01*
X77736794Y-100313181D01*
X75736819Y-98313205D01*
X75722115Y-98286277D01*
X75705523Y-98260459D01*
X75704631Y-98254258D01*
X75703334Y-98251882D01*
X75700500Y-98225524D01*
X75700500Y-98101625D01*
X75720185Y-98034586D01*
X75772989Y-97988831D01*
X75842147Y-97978887D01*
X75905703Y-98007912D01*
G37*
%TD.AperFunction*%
%TA.AperFunction,NonConductor*%
G36*
X108366974Y-97121454D02*
G01*
X108393334Y-97123340D01*
X108402387Y-97129158D01*
X108409427Y-97130690D01*
X108437681Y-97151841D01*
X108544771Y-97258931D01*
X108754949Y-97411634D01*
X108888761Y-97479815D01*
X108986423Y-97529577D01*
X108986425Y-97529577D01*
X108986428Y-97529579D01*
X109233507Y-97609860D01*
X109365706Y-97630797D01*
X109490098Y-97650500D01*
X109490103Y-97650500D01*
X109521374Y-97650500D01*
X109588413Y-97670185D01*
X109609055Y-97686819D01*
X112285055Y-100362819D01*
X112318540Y-100424142D01*
X112313556Y-100493834D01*
X112271684Y-100549767D01*
X112206220Y-100574184D01*
X112197374Y-100574500D01*
X110897325Y-100574500D01*
X110897301Y-100574499D01*
X110892190Y-100574499D01*
X110667811Y-100574499D01*
X110624177Y-100581410D01*
X110446198Y-100609599D01*
X110446197Y-100609599D01*
X110232795Y-100678938D01*
X110032871Y-100780805D01*
X109851355Y-100912683D01*
X109851350Y-100912687D01*
X107450858Y-103313181D01*
X107389535Y-103346666D01*
X107363177Y-103349500D01*
X106885039Y-103349500D01*
X106750750Y-103364630D01*
X106750745Y-103364631D01*
X106580476Y-103424211D01*
X106427737Y-103520184D01*
X106409741Y-103538181D01*
X106382813Y-103552884D01*
X106356995Y-103569477D01*
X106350794Y-103570368D01*
X106348418Y-103571666D01*
X106322060Y-103574500D01*
X106107608Y-103574500D01*
X106051313Y-103560985D01*
X105873576Y-103470422D01*
X105626493Y-103390140D01*
X105369902Y-103349500D01*
X105369897Y-103349500D01*
X105110103Y-103349500D01*
X105110098Y-103349500D01*
X104853506Y-103390140D01*
X104606423Y-103470422D01*
X104428687Y-103560985D01*
X104372392Y-103574500D01*
X103567608Y-103574500D01*
X103511313Y-103560985D01*
X103333576Y-103470422D01*
X103086493Y-103390140D01*
X102829902Y-103349500D01*
X102829897Y-103349500D01*
X102570103Y-103349500D01*
X102570098Y-103349500D01*
X102313506Y-103390140D01*
X102066423Y-103470422D01*
X101888687Y-103560985D01*
X101832392Y-103574500D01*
X101027608Y-103574500D01*
X100971313Y-103560985D01*
X100793576Y-103470422D01*
X100546493Y-103390140D01*
X100289902Y-103349500D01*
X100289897Y-103349500D01*
X100030103Y-103349500D01*
X100030098Y-103349500D01*
X99773506Y-103390140D01*
X99526423Y-103470422D01*
X99348687Y-103560985D01*
X99335683Y-103564106D01*
X99327327Y-103569477D01*
X99292392Y-103574500D01*
X99161968Y-103574500D01*
X99094929Y-103554815D01*
X99049174Y-103502011D01*
X99039496Y-103469903D01*
X99036080Y-103448334D01*
X99010400Y-103286195D01*
X98982238Y-103199522D01*
X98945779Y-103087311D01*
X98945779Y-103087310D01*
X98941062Y-103072795D01*
X98937253Y-103065319D01*
X98839197Y-102872874D01*
X98752274Y-102753236D01*
X98752274Y-102753235D01*
X98707314Y-102691353D01*
X98707313Y-102691352D01*
X98707311Y-102691349D01*
X98548651Y-102532689D01*
X98548650Y-102532688D01*
X98545539Y-102529577D01*
X98545524Y-102529563D01*
X93814070Y-97798109D01*
X93780585Y-97736786D01*
X93785569Y-97667094D01*
X93827441Y-97611161D01*
X93892905Y-97586744D01*
X93940068Y-97592496D01*
X93962229Y-97599697D01*
X93993506Y-97609860D01*
X94250098Y-97650500D01*
X94250103Y-97650500D01*
X94509902Y-97650500D01*
X94623298Y-97632539D01*
X94766493Y-97609860D01*
X95013572Y-97529579D01*
X95245051Y-97411634D01*
X95455229Y-97258931D01*
X95562319Y-97151841D01*
X95623642Y-97118356D01*
X95693334Y-97123340D01*
X95737681Y-97151841D01*
X95844771Y-97258931D01*
X96054949Y-97411634D01*
X96188761Y-97479815D01*
X96286423Y-97529577D01*
X96286425Y-97529577D01*
X96286428Y-97529579D01*
X96533507Y-97609860D01*
X96665706Y-97630797D01*
X96790098Y-97650500D01*
X96790103Y-97650500D01*
X97049902Y-97650500D01*
X97163298Y-97632539D01*
X97306493Y-97609860D01*
X97553572Y-97529579D01*
X97785051Y-97411634D01*
X97995229Y-97258931D01*
X98102319Y-97151841D01*
X98163642Y-97118356D01*
X98233334Y-97123340D01*
X98277681Y-97151841D01*
X98384771Y-97258931D01*
X98594949Y-97411634D01*
X98728761Y-97479815D01*
X98826423Y-97529577D01*
X98826425Y-97529577D01*
X98826428Y-97529579D01*
X99073507Y-97609860D01*
X99205706Y-97630797D01*
X99330098Y-97650500D01*
X99330103Y-97650500D01*
X99589902Y-97650500D01*
X99703298Y-97632539D01*
X99846493Y-97609860D01*
X100093572Y-97529579D01*
X100325051Y-97411634D01*
X100535229Y-97258931D01*
X100642319Y-97151841D01*
X100703642Y-97118356D01*
X100773334Y-97123340D01*
X100817681Y-97151841D01*
X100924771Y-97258931D01*
X101134949Y-97411634D01*
X101268761Y-97479815D01*
X101366423Y-97529577D01*
X101366425Y-97529577D01*
X101366428Y-97529579D01*
X101613507Y-97609860D01*
X101745706Y-97630797D01*
X101870098Y-97650500D01*
X101870103Y-97650500D01*
X102129902Y-97650500D01*
X102243298Y-97632539D01*
X102386493Y-97609860D01*
X102633572Y-97529579D01*
X102865051Y-97411634D01*
X103075229Y-97258931D01*
X103182319Y-97151841D01*
X103243642Y-97118356D01*
X103313334Y-97123340D01*
X103357681Y-97151841D01*
X103464771Y-97258931D01*
X103674949Y-97411634D01*
X103808761Y-97479815D01*
X103906423Y-97529577D01*
X103906425Y-97529577D01*
X103906428Y-97529579D01*
X104153507Y-97609860D01*
X104285706Y-97630797D01*
X104410098Y-97650500D01*
X104410103Y-97650500D01*
X104669902Y-97650500D01*
X104783298Y-97632539D01*
X104926493Y-97609860D01*
X105173572Y-97529579D01*
X105405051Y-97411634D01*
X105615229Y-97258931D01*
X105722319Y-97151841D01*
X105783642Y-97118356D01*
X105853334Y-97123340D01*
X105897681Y-97151841D01*
X106004771Y-97258931D01*
X106214949Y-97411634D01*
X106348761Y-97479815D01*
X106446423Y-97529577D01*
X106446425Y-97529577D01*
X106446428Y-97529579D01*
X106693507Y-97609860D01*
X106825706Y-97630797D01*
X106950098Y-97650500D01*
X106950103Y-97650500D01*
X107209902Y-97650500D01*
X107323298Y-97632539D01*
X107466493Y-97609860D01*
X107713572Y-97529579D01*
X107945051Y-97411634D01*
X108155229Y-97258931D01*
X108262319Y-97151841D01*
X108270264Y-97147502D01*
X108275690Y-97140255D01*
X108300449Y-97131020D01*
X108323642Y-97118356D01*
X108332671Y-97119001D01*
X108341154Y-97115838D01*
X108366974Y-97121454D01*
G37*
%TD.AperFunction*%
%TA.AperFunction,NonConductor*%
G36*
X83673575Y-91694897D02*
G01*
X83729509Y-91736769D01*
X83730559Y-91738192D01*
X83734275Y-91743307D01*
X83752689Y-91768651D01*
X83871843Y-91887805D01*
X83915679Y-91931641D01*
X83915690Y-91931651D01*
X88159563Y-96175524D01*
X88159577Y-96175539D01*
X88162688Y-96178650D01*
X88162689Y-96178651D01*
X88321349Y-96337311D01*
X88484284Y-96455690D01*
X88502875Y-96469197D01*
X88702798Y-96571063D01*
X88916195Y-96640400D01*
X89137811Y-96675501D01*
X89137812Y-96675501D01*
X89367301Y-96675501D01*
X89367325Y-96675500D01*
X90065500Y-96675500D01*
X90132539Y-96695185D01*
X90178294Y-96747989D01*
X90189500Y-96799500D01*
X90189500Y-96894960D01*
X90204630Y-97029249D01*
X90204631Y-97029254D01*
X90264211Y-97199523D01*
X90360184Y-97352262D01*
X90378181Y-97370259D01*
X90411666Y-97431582D01*
X90414500Y-97457940D01*
X90414500Y-97952194D01*
X90440806Y-98118284D01*
X90449599Y-98173801D01*
X90449599Y-98173802D01*
X90449600Y-98173805D01*
X90486144Y-98286277D01*
X90518938Y-98387204D01*
X90620805Y-98587128D01*
X90752682Y-98768643D01*
X90752686Y-98768647D01*
X90752689Y-98768651D01*
X90852669Y-98868631D01*
X90915679Y-98931641D01*
X90915690Y-98931651D01*
X95121858Y-103137819D01*
X95155343Y-103199142D01*
X95150359Y-103268834D01*
X95108487Y-103324767D01*
X95043023Y-103349184D01*
X95034177Y-103349500D01*
X94950098Y-103349500D01*
X94693506Y-103390140D01*
X94446423Y-103470422D01*
X94268687Y-103560985D01*
X94212392Y-103574500D01*
X93407608Y-103574500D01*
X93351313Y-103560985D01*
X93173576Y-103470422D01*
X92926493Y-103390140D01*
X92669902Y-103349500D01*
X92669897Y-103349500D01*
X92410103Y-103349500D01*
X92410098Y-103349500D01*
X92153506Y-103390140D01*
X91906423Y-103470422D01*
X91728687Y-103560985D01*
X91672392Y-103574500D01*
X90867608Y-103574500D01*
X90811313Y-103560985D01*
X90633576Y-103470422D01*
X90386493Y-103390140D01*
X90129902Y-103349500D01*
X90129897Y-103349500D01*
X89870103Y-103349500D01*
X89870098Y-103349500D01*
X89613506Y-103390140D01*
X89366423Y-103470422D01*
X89188687Y-103560985D01*
X89132392Y-103574500D01*
X88327608Y-103574500D01*
X88271313Y-103560985D01*
X88093576Y-103470422D01*
X87846493Y-103390140D01*
X87589902Y-103349500D01*
X87589897Y-103349500D01*
X87330103Y-103349500D01*
X87330098Y-103349500D01*
X87073506Y-103390140D01*
X86826423Y-103470422D01*
X86648687Y-103560985D01*
X86635683Y-103564106D01*
X86627327Y-103569477D01*
X86592392Y-103574500D01*
X86469500Y-103574500D01*
X86402461Y-103554815D01*
X86356706Y-103502011D01*
X86345500Y-103450500D01*
X86345500Y-99910511D01*
X86341661Y-99886273D01*
X86333112Y-99832299D01*
X86310400Y-99688895D01*
X86241063Y-99475498D01*
X86139197Y-99275575D01*
X86139195Y-99275572D01*
X86139194Y-99275570D01*
X86115531Y-99243001D01*
X86115530Y-99243000D01*
X86007311Y-99094049D01*
X85848651Y-98935389D01*
X85848650Y-98935388D01*
X85845539Y-98932277D01*
X85845524Y-98932263D01*
X84775442Y-97862181D01*
X84741957Y-97800858D01*
X84746941Y-97731166D01*
X84788813Y-97675233D01*
X84854277Y-97650816D01*
X84863123Y-97650500D01*
X84894957Y-97650500D01*
X84894958Y-97650499D01*
X84962104Y-97642934D01*
X85029249Y-97635369D01*
X85029252Y-97635368D01*
X85029255Y-97635368D01*
X85199522Y-97575789D01*
X85352262Y-97479816D01*
X85479816Y-97352262D01*
X85575789Y-97199522D01*
X85635368Y-97029255D01*
X85650500Y-96894954D01*
X85650500Y-95105046D01*
X85635368Y-94970745D01*
X85575789Y-94800478D01*
X85479816Y-94647738D01*
X85352262Y-94520184D01*
X85346560Y-94516601D01*
X85199523Y-94424211D01*
X85029254Y-94364631D01*
X85029249Y-94364630D01*
X84894960Y-94349500D01*
X84894954Y-94349500D01*
X83105046Y-94349500D01*
X83105039Y-94349500D01*
X82970750Y-94364630D01*
X82970742Y-94364632D01*
X82840454Y-94410222D01*
X82770675Y-94413783D01*
X82710048Y-94379054D01*
X82677821Y-94317061D01*
X82675500Y-94293180D01*
X82675500Y-92641822D01*
X82695185Y-92574783D01*
X82711815Y-92554145D01*
X83542563Y-91723396D01*
X83603884Y-91689913D01*
X83673575Y-91694897D01*
G37*
%TD.AperFunction*%
%TA.AperFunction,NonConductor*%
G36*
X123587729Y-103434381D02*
G01*
X123618457Y-103441527D01*
X123621010Y-103444154D01*
X123624521Y-103445185D01*
X123645160Y-103469004D01*
X123667152Y-103491633D01*
X123667879Y-103495223D01*
X123670276Y-103497989D01*
X123674763Y-103529198D01*
X123681027Y-103560111D01*
X123679698Y-103563522D01*
X123680220Y-103567147D01*
X123667117Y-103595837D01*
X123655678Y-103625220D01*
X123652119Y-103628677D01*
X123651195Y-103630703D01*
X123630367Y-103649818D01*
X123504774Y-103741066D01*
X123504768Y-103741071D01*
X123397681Y-103848159D01*
X123336358Y-103881644D01*
X123266666Y-103876660D01*
X123222319Y-103848159D01*
X123115231Y-103741071D01*
X123115225Y-103741066D01*
X122989633Y-103649818D01*
X122946967Y-103594488D01*
X122940988Y-103524875D01*
X122973594Y-103463080D01*
X123034432Y-103428723D01*
X123062518Y-103425500D01*
X123557482Y-103425500D01*
X123587729Y-103434381D01*
G37*
%TD.AperFunction*%
%TA.AperFunction,NonConductor*%
G36*
X121084521Y-103445185D02*
G01*
X121130276Y-103497989D01*
X121140220Y-103567147D01*
X121111195Y-103630703D01*
X121090367Y-103649818D01*
X120964774Y-103741066D01*
X120964768Y-103741071D01*
X120857681Y-103848159D01*
X120796358Y-103881644D01*
X120726666Y-103876660D01*
X120682319Y-103848159D01*
X120575231Y-103741071D01*
X120575225Y-103741066D01*
X120449633Y-103649818D01*
X120406967Y-103594488D01*
X120400988Y-103524875D01*
X120433594Y-103463080D01*
X120494432Y-103428723D01*
X120522518Y-103425500D01*
X121017482Y-103425500D01*
X121084521Y-103445185D01*
G37*
%TD.AperFunction*%
%TA.AperFunction,NonConductor*%
G36*
X157234886Y-95785185D02*
G01*
X157255528Y-95801819D01*
X158663181Y-97209472D01*
X158696666Y-97270795D01*
X158699500Y-97297153D01*
X158699500Y-108702847D01*
X158679815Y-108769886D01*
X158663181Y-108790528D01*
X158284562Y-109169146D01*
X158223239Y-109202631D01*
X158153547Y-109197647D01*
X158097614Y-109155775D01*
X158073943Y-109097650D01*
X158069008Y-109060166D01*
X158006564Y-108827121D01*
X157998295Y-108807159D01*
X157955088Y-108702847D01*
X157914236Y-108604221D01*
X157914234Y-108604218D01*
X157914232Y-108604213D01*
X157793607Y-108395286D01*
X157793603Y-108395279D01*
X157714497Y-108292186D01*
X157646731Y-108203871D01*
X157646725Y-108203864D01*
X157476135Y-108033274D01*
X157476126Y-108033266D01*
X157349013Y-107935728D01*
X157307811Y-107879300D01*
X157300500Y-107837353D01*
X157300500Y-101000211D01*
X157320185Y-100933172D01*
X157372989Y-100887417D01*
X157412344Y-100876808D01*
X157478435Y-100870300D01*
X157676455Y-100810232D01*
X157858951Y-100712685D01*
X158018910Y-100581410D01*
X158150185Y-100421451D01*
X158247732Y-100238955D01*
X158307800Y-100040935D01*
X158323000Y-99886609D01*
X158322999Y-98203392D01*
X158307800Y-98049065D01*
X158247732Y-97851045D01*
X158150185Y-97668549D01*
X158103088Y-97611161D01*
X158018910Y-97508589D01*
X157858954Y-97377317D01*
X157858952Y-97377316D01*
X157858951Y-97377315D01*
X157676455Y-97279768D01*
X157478435Y-97219700D01*
X157478433Y-97219699D01*
X157478435Y-97219699D01*
X157359306Y-97207966D01*
X157324109Y-97204500D01*
X157324106Y-97204500D01*
X156479653Y-97204500D01*
X156412614Y-97184815D01*
X156391972Y-97168181D01*
X155240972Y-96017181D01*
X155207487Y-95955858D01*
X155212471Y-95886166D01*
X155254343Y-95830233D01*
X155319807Y-95805816D01*
X155328653Y-95805500D01*
X156603126Y-95805500D01*
X156603133Y-95805500D01*
X156842334Y-95774008D01*
X156854799Y-95770667D01*
X156858319Y-95769725D01*
X156890411Y-95765500D01*
X157167847Y-95765500D01*
X157234886Y-95785185D01*
G37*
%TD.AperFunction*%
%TA.AperFunction,NonConductor*%
G36*
X118507729Y-103434381D02*
G01*
X118538457Y-103441527D01*
X118541010Y-103444154D01*
X118544521Y-103445185D01*
X118565160Y-103469004D01*
X118587152Y-103491633D01*
X118587879Y-103495223D01*
X118590276Y-103497989D01*
X118594763Y-103529198D01*
X118601027Y-103560111D01*
X118599698Y-103563522D01*
X118600220Y-103567147D01*
X118587117Y-103595837D01*
X118575678Y-103625220D01*
X118572119Y-103628677D01*
X118571195Y-103630703D01*
X118550367Y-103649818D01*
X118424774Y-103741066D01*
X118424768Y-103741071D01*
X118241071Y-103924768D01*
X118241066Y-103924774D01*
X118088368Y-104134945D01*
X117970422Y-104366423D01*
X117890140Y-104613506D01*
X117849500Y-104870097D01*
X117849500Y-105129902D01*
X117890140Y-105386493D01*
X117970422Y-105633576D01*
X118015640Y-105722319D01*
X118080869Y-105850338D01*
X118088368Y-105865054D01*
X118207663Y-106029249D01*
X118241069Y-106075229D01*
X118424771Y-106258931D01*
X118634949Y-106411634D01*
X118760499Y-106475605D01*
X118866423Y-106529577D01*
X118866425Y-106529577D01*
X118866428Y-106529579D01*
X119113507Y-106609860D01*
X119245706Y-106630797D01*
X119370098Y-106650500D01*
X119370103Y-106650500D01*
X119629902Y-106650500D01*
X119743298Y-106632539D01*
X119886493Y-106609860D01*
X120133572Y-106529579D01*
X120365051Y-106411634D01*
X120575229Y-106258931D01*
X120682319Y-106151841D01*
X120743642Y-106118356D01*
X120813334Y-106123340D01*
X120857681Y-106151841D01*
X120964771Y-106258931D01*
X121174949Y-106411634D01*
X121300499Y-106475605D01*
X121406423Y-106529577D01*
X121406425Y-106529577D01*
X121406428Y-106529579D01*
X121653507Y-106609860D01*
X121785706Y-106630797D01*
X121910098Y-106650500D01*
X121910103Y-106650500D01*
X122169902Y-106650500D01*
X122283298Y-106632539D01*
X122426493Y-106609860D01*
X122617182Y-106547900D01*
X122687022Y-106545906D01*
X122746855Y-106581986D01*
X122777684Y-106644687D01*
X122779500Y-106665832D01*
X122779500Y-107982177D01*
X122759815Y-108049216D01*
X122743181Y-108069858D01*
X120274858Y-110538181D01*
X120213535Y-110571666D01*
X120187177Y-110574500D01*
X109157940Y-110574500D01*
X109090901Y-110554815D01*
X109070259Y-110538181D01*
X109052262Y-110520184D01*
X108899523Y-110424211D01*
X108729254Y-110364631D01*
X108729249Y-110364630D01*
X108594960Y-110349500D01*
X108594954Y-110349500D01*
X106805046Y-110349500D01*
X106805039Y-110349500D01*
X106670750Y-110364630D01*
X106670745Y-110364631D01*
X106500476Y-110424211D01*
X106347737Y-110520184D01*
X106329741Y-110538181D01*
X106302813Y-110552884D01*
X106276995Y-110569477D01*
X106270794Y-110570368D01*
X106268418Y-110571666D01*
X106242060Y-110574500D01*
X106027608Y-110574500D01*
X105971313Y-110560985D01*
X105793576Y-110470422D01*
X105546493Y-110390140D01*
X105289902Y-110349500D01*
X105289897Y-110349500D01*
X105030103Y-110349500D01*
X105030098Y-110349500D01*
X104773506Y-110390140D01*
X104526423Y-110470422D01*
X104348687Y-110560985D01*
X104292392Y-110574500D01*
X103487608Y-110574500D01*
X103431313Y-110560985D01*
X103253576Y-110470422D01*
X103006493Y-110390140D01*
X102749902Y-110349500D01*
X102749897Y-110349500D01*
X102490103Y-110349500D01*
X102490098Y-110349500D01*
X102233506Y-110390140D01*
X101986423Y-110470422D01*
X101808687Y-110560985D01*
X101752392Y-110574500D01*
X100947608Y-110574500D01*
X100891313Y-110560985D01*
X100713576Y-110470422D01*
X100466493Y-110390140D01*
X100209902Y-110349500D01*
X100209897Y-110349500D01*
X99950103Y-110349500D01*
X99950098Y-110349500D01*
X99693506Y-110390140D01*
X99446423Y-110470422D01*
X99268687Y-110560985D01*
X99212392Y-110574500D01*
X98407608Y-110574500D01*
X98351313Y-110560985D01*
X98173576Y-110470422D01*
X97926493Y-110390140D01*
X97669902Y-110349500D01*
X97669897Y-110349500D01*
X97410103Y-110349500D01*
X97410098Y-110349500D01*
X97153506Y-110390140D01*
X96906423Y-110470422D01*
X96728687Y-110560985D01*
X96672392Y-110574500D01*
X95867608Y-110574500D01*
X95811313Y-110560985D01*
X95633576Y-110470422D01*
X95386493Y-110390140D01*
X95129902Y-110349500D01*
X95129897Y-110349500D01*
X94870103Y-110349500D01*
X94870098Y-110349500D01*
X94613506Y-110390140D01*
X94366423Y-110470422D01*
X94188687Y-110560985D01*
X94132392Y-110574500D01*
X93327608Y-110574500D01*
X93271313Y-110560985D01*
X93093576Y-110470422D01*
X92846493Y-110390140D01*
X92589902Y-110349500D01*
X92589897Y-110349500D01*
X92330103Y-110349500D01*
X92330098Y-110349500D01*
X92073506Y-110390140D01*
X91826423Y-110470422D01*
X91648687Y-110560985D01*
X91592392Y-110574500D01*
X90787608Y-110574500D01*
X90731313Y-110560985D01*
X90553576Y-110470422D01*
X90306493Y-110390140D01*
X90049902Y-110349500D01*
X90049897Y-110349500D01*
X89790103Y-110349500D01*
X89790098Y-110349500D01*
X89533506Y-110390140D01*
X89286423Y-110470422D01*
X89108687Y-110560985D01*
X89052392Y-110574500D01*
X88247608Y-110574500D01*
X88191313Y-110560985D01*
X88013576Y-110470422D01*
X87766493Y-110390140D01*
X87509902Y-110349500D01*
X87509897Y-110349500D01*
X87250103Y-110349500D01*
X87250098Y-110349500D01*
X86993506Y-110390140D01*
X86746423Y-110470422D01*
X86568687Y-110560985D01*
X86512392Y-110574500D01*
X85707608Y-110574500D01*
X85651313Y-110560985D01*
X85473576Y-110470422D01*
X85283850Y-110408776D01*
X85234488Y-110378526D01*
X84095219Y-109239257D01*
X84061734Y-109177934D01*
X84058900Y-109151576D01*
X84058900Y-106615997D01*
X84078585Y-106548958D01*
X84131389Y-106503203D01*
X84200547Y-106493259D01*
X84239196Y-106505513D01*
X84286421Y-106529576D01*
X84286424Y-106529576D01*
X84286428Y-106529579D01*
X84533507Y-106609860D01*
X84665706Y-106630797D01*
X84790098Y-106650500D01*
X84790103Y-106650500D01*
X85049902Y-106650500D01*
X85163298Y-106632539D01*
X85306493Y-106609860D01*
X85553572Y-106529579D01*
X85731313Y-106439014D01*
X85787608Y-106425500D01*
X86077811Y-106425500D01*
X86592392Y-106425500D01*
X86648686Y-106439014D01*
X86671359Y-106450567D01*
X86826423Y-106529577D01*
X86826425Y-106529577D01*
X86826428Y-106529579D01*
X87073507Y-106609860D01*
X87205706Y-106630797D01*
X87330098Y-106650500D01*
X87330103Y-106650500D01*
X87589902Y-106650500D01*
X87703298Y-106632539D01*
X87846493Y-106609860D01*
X88093572Y-106529579D01*
X88271313Y-106439014D01*
X88327608Y-106425500D01*
X89132392Y-106425500D01*
X89188686Y-106439014D01*
X89211359Y-106450567D01*
X89366423Y-106529577D01*
X89366425Y-106529577D01*
X89366428Y-106529579D01*
X89613507Y-106609860D01*
X89745706Y-106630797D01*
X89870098Y-106650500D01*
X89870103Y-106650500D01*
X90129902Y-106650500D01*
X90243298Y-106632539D01*
X90386493Y-106609860D01*
X90633572Y-106529579D01*
X90811313Y-106439014D01*
X90867608Y-106425500D01*
X91672392Y-106425500D01*
X91728686Y-106439014D01*
X91751359Y-106450567D01*
X91906423Y-106529577D01*
X91906425Y-106529577D01*
X91906428Y-106529579D01*
X92153507Y-106609860D01*
X92285706Y-106630797D01*
X92410098Y-106650500D01*
X92410103Y-106650500D01*
X92669902Y-106650500D01*
X92783298Y-106632539D01*
X92926493Y-106609860D01*
X93173572Y-106529579D01*
X93351313Y-106439014D01*
X93407608Y-106425500D01*
X94212392Y-106425500D01*
X94268686Y-106439014D01*
X94291359Y-106450567D01*
X94446423Y-106529577D01*
X94446425Y-106529577D01*
X94446428Y-106529579D01*
X94693507Y-106609860D01*
X94825706Y-106630797D01*
X94950098Y-106650500D01*
X94950103Y-106650500D01*
X95209902Y-106650500D01*
X95323298Y-106632539D01*
X95466493Y-106609860D01*
X95713572Y-106529579D01*
X95945051Y-106411634D01*
X96155229Y-106258931D01*
X96262319Y-106151841D01*
X96323642Y-106118356D01*
X96393334Y-106123340D01*
X96437681Y-106151841D01*
X96544771Y-106258931D01*
X96754949Y-106411634D01*
X96880499Y-106475605D01*
X96986423Y-106529577D01*
X96986425Y-106529577D01*
X96986428Y-106529579D01*
X97233507Y-106609860D01*
X97365706Y-106630797D01*
X97490098Y-106650500D01*
X97490103Y-106650500D01*
X97749902Y-106650500D01*
X97863298Y-106632539D01*
X98006493Y-106609860D01*
X98253572Y-106529579D01*
X98431313Y-106439014D01*
X98487608Y-106425500D01*
X99292392Y-106425500D01*
X99348686Y-106439014D01*
X99371359Y-106450567D01*
X99526423Y-106529577D01*
X99526425Y-106529577D01*
X99526428Y-106529579D01*
X99773507Y-106609860D01*
X99905706Y-106630797D01*
X100030098Y-106650500D01*
X100030103Y-106650500D01*
X100289902Y-106650500D01*
X100403298Y-106632539D01*
X100546493Y-106609860D01*
X100793572Y-106529579D01*
X100971313Y-106439014D01*
X101027608Y-106425500D01*
X101832392Y-106425500D01*
X101888686Y-106439014D01*
X101911359Y-106450567D01*
X102066423Y-106529577D01*
X102066425Y-106529577D01*
X102066428Y-106529579D01*
X102313507Y-106609860D01*
X102445706Y-106630797D01*
X102570098Y-106650500D01*
X102570103Y-106650500D01*
X102829902Y-106650500D01*
X102943298Y-106632539D01*
X103086493Y-106609860D01*
X103333572Y-106529579D01*
X103511313Y-106439014D01*
X103567608Y-106425500D01*
X104372392Y-106425500D01*
X104428686Y-106439014D01*
X104451359Y-106450567D01*
X104606423Y-106529577D01*
X104606425Y-106529577D01*
X104606428Y-106529579D01*
X104853507Y-106609860D01*
X104985706Y-106630797D01*
X105110098Y-106650500D01*
X105110103Y-106650500D01*
X105369902Y-106650500D01*
X105483298Y-106632539D01*
X105626493Y-106609860D01*
X105873572Y-106529579D01*
X106051313Y-106439014D01*
X106064316Y-106435893D01*
X106072673Y-106430523D01*
X106107608Y-106425500D01*
X106322060Y-106425500D01*
X106389099Y-106445185D01*
X106409741Y-106461819D01*
X106427738Y-106479816D01*
X106492319Y-106520395D01*
X106536094Y-106547901D01*
X106580478Y-106575789D01*
X106695386Y-106615997D01*
X106750745Y-106635368D01*
X106750750Y-106635369D01*
X106833454Y-106644687D01*
X106885040Y-106650499D01*
X106885043Y-106650500D01*
X106885046Y-106650500D01*
X108674957Y-106650500D01*
X108674958Y-106650499D01*
X108742104Y-106642934D01*
X108809249Y-106635369D01*
X108809252Y-106635368D01*
X108809255Y-106635368D01*
X108979522Y-106575789D01*
X109132262Y-106479816D01*
X109259816Y-106352262D01*
X109355789Y-106199522D01*
X109415368Y-106029255D01*
X109418127Y-106004774D01*
X109428870Y-105909418D01*
X109430500Y-105894954D01*
X109430500Y-105416823D01*
X109450185Y-105349784D01*
X109466819Y-105329142D01*
X111334143Y-103461819D01*
X111395466Y-103428334D01*
X111421824Y-103425500D01*
X118477482Y-103425500D01*
X118507729Y-103434381D01*
G37*
%TD.AperFunction*%
%TA.AperFunction,NonConductor*%
G36*
X167348735Y-53748274D02*
G01*
X167378075Y-53756973D01*
X167407977Y-53763520D01*
X167413086Y-53767355D01*
X167415722Y-53768137D01*
X167436203Y-53784709D01*
X167463797Y-53812376D01*
X167497201Y-53873743D01*
X167500000Y-53899941D01*
X167500000Y-119098638D01*
X167480315Y-119165677D01*
X167463681Y-119186319D01*
X167436319Y-119213681D01*
X167374996Y-119247166D01*
X167348638Y-119250000D01*
X149934369Y-119250000D01*
X149867330Y-119230315D01*
X149821575Y-119177511D01*
X149811631Y-119108353D01*
X149840656Y-119044797D01*
X149899434Y-119007023D01*
X149902231Y-119006237D01*
X150079993Y-118958606D01*
X150207728Y-118905696D01*
X150298050Y-118868284D01*
X150502450Y-118750273D01*
X150689699Y-118606592D01*
X152959473Y-116336819D01*
X153020796Y-116303334D01*
X153047154Y-116300500D01*
X153643915Y-116300500D01*
X153679909Y-116305838D01*
X153744065Y-116325300D01*
X153744064Y-116325300D01*
X153754968Y-116326373D01*
X153898391Y-116340500D01*
X157101608Y-116340499D01*
X157255935Y-116325300D01*
X157453955Y-116265232D01*
X157636451Y-116167685D01*
X157796410Y-116036410D01*
X157927685Y-115876451D01*
X158025232Y-115693955D01*
X158085300Y-115495935D01*
X158100500Y-115341609D01*
X158100499Y-114497151D01*
X158120183Y-114430113D01*
X158136813Y-114409476D01*
X161856592Y-110689699D01*
X162000274Y-110502450D01*
X162118284Y-110298050D01*
X162208606Y-110079994D01*
X162269693Y-109852014D01*
X162300500Y-109618011D01*
X162300500Y-109381989D01*
X162300500Y-96381989D01*
X162269693Y-96147986D01*
X162208606Y-95920007D01*
X162121392Y-95709455D01*
X162119645Y-95704306D01*
X162051625Y-95586493D01*
X162000273Y-95497549D01*
X161941001Y-95420305D01*
X161856593Y-95310301D01*
X161856587Y-95310294D01*
X159154704Y-92608412D01*
X159154697Y-92608406D01*
X158967458Y-92464733D01*
X158967456Y-92464731D01*
X158967450Y-92464727D01*
X158967445Y-92464724D01*
X158967442Y-92464722D01*
X158763060Y-92346721D01*
X158763055Y-92346719D01*
X158763050Y-92346716D01*
X158672728Y-92309303D01*
X158672727Y-92309302D01*
X158568450Y-92266109D01*
X158514046Y-92222267D01*
X158491982Y-92155973D01*
X158509262Y-92088274D01*
X158528218Y-92063871D01*
X159858070Y-90734019D01*
X159865000Y-90729389D01*
X159867943Y-90725151D01*
X159898291Y-90707144D01*
X159966391Y-90678937D01*
X160002250Y-90664084D01*
X160206650Y-90546073D01*
X160393899Y-90402392D01*
X160988250Y-89808041D01*
X161606584Y-89189708D01*
X161606587Y-89189703D01*
X161606592Y-89189699D01*
X161750274Y-89002450D01*
X161868284Y-88798050D01*
X161958606Y-88579993D01*
X162019693Y-88352014D01*
X162050500Y-88118011D01*
X162050500Y-87881989D01*
X162050500Y-81587389D01*
X162019693Y-81353386D01*
X161958606Y-81125407D01*
X161891456Y-80963292D01*
X161878857Y-80932875D01*
X161868288Y-80907358D01*
X161868280Y-80907342D01*
X161750277Y-80702957D01*
X161750273Y-80702950D01*
X161606592Y-80515701D01*
X161606587Y-80515695D01*
X160785272Y-79694381D01*
X160751787Y-79633058D01*
X160756771Y-79563367D01*
X160785272Y-79519019D01*
X161856587Y-78447705D01*
X161856587Y-78447704D01*
X161856592Y-78447700D01*
X162000273Y-78260451D01*
X162118284Y-78056050D01*
X162203425Y-77850500D01*
X162208606Y-77837993D01*
X162269693Y-77610014D01*
X162300500Y-77376011D01*
X162300500Y-65381989D01*
X162269693Y-65147986D01*
X162208606Y-64920007D01*
X162145840Y-64768477D01*
X162145840Y-64768476D01*
X162118288Y-64701958D01*
X162118280Y-64701942D01*
X162000277Y-64497557D01*
X162000273Y-64497550D01*
X161856592Y-64310301D01*
X161856587Y-64310295D01*
X158154704Y-60608412D01*
X158154697Y-60608406D01*
X157967458Y-60464733D01*
X157967456Y-60464731D01*
X157967450Y-60464727D01*
X157967445Y-60464724D01*
X157967442Y-60464722D01*
X157763057Y-60346719D01*
X157763041Y-60346711D01*
X157649061Y-60299500D01*
X157544993Y-60256394D01*
X157404993Y-60218881D01*
X157317014Y-60195307D01*
X157317013Y-60195306D01*
X157317010Y-60195306D01*
X157083020Y-60164501D01*
X157083017Y-60164500D01*
X157083011Y-60164500D01*
X157083004Y-60164500D01*
X156890411Y-60164500D01*
X156858319Y-60160275D01*
X156842334Y-60155992D01*
X156842335Y-60155992D01*
X156603140Y-60124500D01*
X156603133Y-60124500D01*
X154841867Y-60124500D01*
X154841859Y-60124500D01*
X154629243Y-60152492D01*
X154602666Y-60155992D01*
X154455944Y-60195306D01*
X154369621Y-60218436D01*
X154369611Y-60218439D01*
X154146724Y-60310762D01*
X154146713Y-60310767D01*
X153937786Y-60431392D01*
X153937770Y-60431403D01*
X153746371Y-60578268D01*
X153746364Y-60578274D01*
X153575774Y-60748864D01*
X153575768Y-60748871D01*
X153428903Y-60940270D01*
X153428892Y-60940286D01*
X153308267Y-61149213D01*
X153308262Y-61149224D01*
X153215939Y-61372111D01*
X153215936Y-61372121D01*
X153153492Y-61605167D01*
X153122000Y-61844359D01*
X153122000Y-62085640D01*
X153130176Y-62147737D01*
X153153492Y-62324834D01*
X153170271Y-62387453D01*
X153215936Y-62557878D01*
X153215939Y-62557888D01*
X153308262Y-62780775D01*
X153308267Y-62780786D01*
X153428892Y-62989713D01*
X153428903Y-62989729D01*
X153575768Y-63181128D01*
X153575774Y-63181135D01*
X153746364Y-63351725D01*
X153746371Y-63351731D01*
X153838752Y-63422617D01*
X153937779Y-63498603D01*
X153937786Y-63498607D01*
X154146713Y-63619232D01*
X154146718Y-63619234D01*
X154146721Y-63619236D01*
X154369621Y-63711564D01*
X154602666Y-63774008D01*
X154841867Y-63805500D01*
X156207847Y-63805500D01*
X156274886Y-63825185D01*
X156295528Y-63841819D01*
X157449657Y-64995948D01*
X157483142Y-65057271D01*
X157478158Y-65126963D01*
X157436286Y-65182896D01*
X157370822Y-65207313D01*
X157349825Y-65207032D01*
X157324109Y-65204500D01*
X154120895Y-65204500D01*
X153966567Y-65219699D01*
X153768542Y-65279769D01*
X153586045Y-65377317D01*
X153426089Y-65508589D01*
X153294817Y-65668545D01*
X153197269Y-65851042D01*
X153137199Y-66049066D01*
X153122000Y-66203394D01*
X153122000Y-67047846D01*
X153102315Y-67114885D01*
X153085681Y-67135527D01*
X150643412Y-69577795D01*
X150643406Y-69577802D01*
X150499733Y-69765041D01*
X150499722Y-69765057D01*
X150381720Y-69969441D01*
X150372526Y-69991637D01*
X150291395Y-70187502D01*
X150230306Y-70415489D01*
X150199501Y-70649479D01*
X150199500Y-70649495D01*
X150199500Y-79440504D01*
X150199501Y-79440520D01*
X150212473Y-79539055D01*
X150230307Y-79674514D01*
X150291394Y-79902493D01*
X150305152Y-79935707D01*
X150305153Y-79935709D01*
X150305152Y-79935709D01*
X150381711Y-80120541D01*
X150381719Y-80120557D01*
X150499722Y-80324942D01*
X150499733Y-80324958D01*
X150643406Y-80512197D01*
X150643412Y-80512204D01*
X153085681Y-82954472D01*
X153100384Y-82981399D01*
X153116977Y-83007218D01*
X153117868Y-83013418D01*
X153119166Y-83015795D01*
X153122000Y-83042153D01*
X153122000Y-83047846D01*
X153102315Y-83114885D01*
X153085681Y-83135527D01*
X150643412Y-85577795D01*
X150643406Y-85577802D01*
X150499733Y-85765041D01*
X150499722Y-85765057D01*
X150381719Y-85969442D01*
X150381711Y-85969458D01*
X150348177Y-86050420D01*
X150291394Y-86187506D01*
X150230306Y-86415489D01*
X150199501Y-86649479D01*
X150199500Y-86649495D01*
X150199500Y-95440504D01*
X150199501Y-95440520D01*
X150218718Y-95586493D01*
X150230307Y-95674514D01*
X150237659Y-95701951D01*
X150291395Y-95902497D01*
X150338202Y-96015498D01*
X150381714Y-96120546D01*
X150381719Y-96120557D01*
X150499722Y-96324942D01*
X150499733Y-96324958D01*
X150643406Y-96512197D01*
X150643412Y-96512204D01*
X153085681Y-98954472D01*
X153119166Y-99015795D01*
X153122000Y-99042153D01*
X153122000Y-99886604D01*
X153137199Y-100040932D01*
X153137200Y-100040935D01*
X153197268Y-100238955D01*
X153263475Y-100362819D01*
X153294817Y-100421454D01*
X153426089Y-100581410D01*
X153586047Y-100712684D01*
X153586054Y-100712688D01*
X153633951Y-100738289D01*
X153683796Y-100787250D01*
X153699500Y-100847648D01*
X153699500Y-107837353D01*
X153679815Y-107904392D01*
X153650987Y-107935728D01*
X153523873Y-108033266D01*
X153523864Y-108033274D01*
X153353274Y-108203864D01*
X153353268Y-108203871D01*
X153206403Y-108395270D01*
X153206392Y-108395286D01*
X153085767Y-108604213D01*
X153085762Y-108604224D01*
X152993439Y-108827111D01*
X152993436Y-108827121D01*
X152933450Y-109050995D01*
X152930992Y-109060167D01*
X152899500Y-109299359D01*
X152899500Y-109540640D01*
X152918049Y-109681524D01*
X152930992Y-109779834D01*
X152991725Y-110006493D01*
X152993436Y-110012878D01*
X152993439Y-110012888D01*
X153085762Y-110235775D01*
X153085767Y-110235786D01*
X153206392Y-110444713D01*
X153206403Y-110444729D01*
X153353268Y-110636128D01*
X153353274Y-110636135D01*
X153523864Y-110806725D01*
X153523871Y-110806731D01*
X153617964Y-110878931D01*
X153715279Y-110953603D01*
X153715286Y-110953607D01*
X153924213Y-111074232D01*
X153924218Y-111074234D01*
X153924221Y-111074236D01*
X154147121Y-111166564D01*
X154380166Y-111229008D01*
X154619367Y-111260500D01*
X155893847Y-111260500D01*
X155960886Y-111280185D01*
X156006641Y-111332989D01*
X156016585Y-111402147D01*
X155987560Y-111465703D01*
X155981528Y-111472181D01*
X154830526Y-112623181D01*
X154769203Y-112656666D01*
X154742845Y-112659500D01*
X153898395Y-112659500D01*
X153744066Y-112674699D01*
X153679909Y-112694161D01*
X153643915Y-112699500D01*
X152131989Y-112699500D01*
X152131983Y-112699500D01*
X152131979Y-112699501D01*
X151897989Y-112730306D01*
X151670006Y-112791394D01*
X151567628Y-112833801D01*
X151567627Y-112833801D01*
X151451961Y-112881710D01*
X151451947Y-112881717D01*
X151247544Y-112999730D01*
X151060301Y-113143406D01*
X151060294Y-113143412D01*
X148790528Y-115413181D01*
X148729205Y-115446666D01*
X148702847Y-115449500D01*
X139725971Y-115449500D01*
X139658932Y-115429815D01*
X139613177Y-115377011D01*
X139603233Y-115307853D01*
X139632258Y-115244297D01*
X139665925Y-115217007D01*
X139759564Y-115165185D01*
X139801623Y-115140211D01*
X139987193Y-115022255D01*
X140025245Y-114996515D01*
X140206573Y-114866170D01*
X140241218Y-114839817D01*
X140417524Y-114698030D01*
X140449289Y-114671103D01*
X140619790Y-114518824D01*
X140649129Y-114491273D01*
X140813044Y-114329450D01*
X140840338Y-114301156D01*
X140996887Y-114130739D01*
X141022467Y-114101508D01*
X141170867Y-113923444D01*
X141194983Y-113893048D01*
X141334453Y-113708287D01*
X141357300Y-113676439D01*
X141487060Y-113485930D01*
X141508775Y-113452279D01*
X141599309Y-113304021D01*
X141651045Y-113257068D01*
X141719957Y-113245538D01*
X141747744Y-113252200D01*
X141808788Y-113274540D01*
X141857105Y-113290511D01*
X142089064Y-113359134D01*
X142126296Y-113369185D01*
X142385175Y-113432470D01*
X142416100Y-113439389D01*
X142695992Y-113496246D01*
X142723464Y-113501332D01*
X143018461Y-113550673D01*
X143044427Y-113554582D01*
X143348624Y-113595319D01*
X143374628Y-113598372D01*
X143682118Y-113629416D01*
X143709608Y-113631717D01*
X144014483Y-113651981D01*
X144045095Y-113653431D01*
X144341451Y-113661826D01*
X144377295Y-113662044D01*
X144659224Y-113657481D01*
X144703342Y-113655556D01*
X144964936Y-113636948D01*
X145022096Y-113630825D01*
X145257451Y-113597083D01*
X145303993Y-113589012D01*
X145303994Y-113589011D01*
X145304010Y-113589009D01*
X145369159Y-113575731D01*
X145515032Y-113546002D01*
X145537895Y-113540995D01*
X145741789Y-113493232D01*
X145764992Y-113487432D01*
X145960850Y-113435372D01*
X145984720Y-113428632D01*
X146171648Y-113372730D01*
X146196559Y-113364838D01*
X146373665Y-113305550D01*
X146400086Y-113296191D01*
X146566475Y-113233973D01*
X146594980Y-113222691D01*
X146749762Y-113157998D01*
X146772203Y-113148052D01*
X146781062Y-113144127D01*
X146781076Y-113144120D01*
X146781086Y-113144116D01*
X146923365Y-113077406D01*
X146958472Y-113059890D01*
X147087357Y-112991616D01*
X147127467Y-112968875D01*
X147242065Y-112899495D01*
X147288770Y-112868960D01*
X147388187Y-112798929D01*
X147443348Y-112756388D01*
X147526692Y-112686161D01*
X147576538Y-112639166D01*
X147591996Y-112624594D01*
X147592002Y-112624587D01*
X147592022Y-112624569D01*
X147658399Y-112554603D01*
X147733733Y-112462413D01*
X147782251Y-112393163D01*
X147841536Y-112294134D01*
X147858818Y-112259920D01*
X147895620Y-112175349D01*
X147908103Y-112141485D01*
X147937948Y-112040690D01*
X147945520Y-112007233D01*
X147962996Y-111891476D01*
X147965545Y-111858483D01*
X147965836Y-111738282D01*
X147963529Y-111706411D01*
X147949475Y-111604044D01*
X147942635Y-111570409D01*
X147920714Y-111486201D01*
X147911703Y-111457944D01*
X147909460Y-111450910D01*
X147909458Y-111450904D01*
X147884175Y-111382489D01*
X147884172Y-111382480D01*
X147868611Y-111345601D01*
X147842644Y-111290063D01*
X147822897Y-111251704D01*
X147797658Y-111206333D01*
X147773842Y-111166591D01*
X147773837Y-111166582D01*
X147749988Y-111129164D01*
X147749982Y-111129154D01*
X147722212Y-111088124D01*
X147722195Y-111088100D01*
X147699982Y-111056907D01*
X147699737Y-111056580D01*
X147668372Y-111014680D01*
X147647782Y-110988332D01*
X147612455Y-110945011D01*
X147593399Y-110922497D01*
X147554467Y-110878173D01*
X147554460Y-110878165D01*
X147528479Y-110849969D01*
X147440276Y-110758706D01*
X147409575Y-110728589D01*
X147308347Y-110634458D01*
X147281217Y-110610347D01*
X147167922Y-110514135D01*
X147164925Y-110511690D01*
X147143418Y-110494140D01*
X147024191Y-110400686D01*
X147018925Y-110396558D01*
X146996351Y-110379495D01*
X146861627Y-110281338D01*
X146840305Y-110266324D01*
X146696326Y-110168384D01*
X146675877Y-110154925D01*
X146523464Y-110057892D01*
X146503416Y-110045537D01*
X146343546Y-109950207D01*
X146341637Y-109949105D01*
X146293421Y-109898539D01*
X146280196Y-109829933D01*
X146306163Y-109765067D01*
X146363076Y-109724538D01*
X146385968Y-109718983D01*
X146397936Y-109717261D01*
X146413396Y-109713229D01*
X146551199Y-109663522D01*
X146571160Y-109654192D01*
X146663561Y-109603384D01*
X146715651Y-109570125D01*
X146771637Y-109530939D01*
X146837717Y-109480380D01*
X146867546Y-109456414D01*
X146944936Y-109391148D01*
X146964323Y-109374261D01*
X147050346Y-109296884D01*
X147064825Y-109283536D01*
X147156801Y-109196644D01*
X147168868Y-109185004D01*
X147264118Y-109091191D01*
X147275156Y-109080106D01*
X147371001Y-108981968D01*
X147381978Y-108970505D01*
X147475740Y-108870637D01*
X147475767Y-108870607D01*
X147475807Y-108870565D01*
X147487475Y-108857863D01*
X147487476Y-108857861D01*
X147487531Y-108857802D01*
X147576530Y-108758799D01*
X147590140Y-108743264D01*
X147671698Y-108647721D01*
X147688569Y-108627286D01*
X147760006Y-108537798D01*
X147782512Y-108508231D01*
X147841150Y-108427394D01*
X147864095Y-108394029D01*
X147887778Y-108357666D01*
X147907719Y-108325414D01*
X147927197Y-108292186D01*
X147984812Y-108172133D01*
X147992669Y-108151553D01*
X148014851Y-108084851D01*
X148044515Y-107906933D01*
X148045640Y-107885729D01*
X148046660Y-107829670D01*
X148023489Y-107650789D01*
X148018145Y-107629047D01*
X148015301Y-107617825D01*
X148006315Y-107594489D01*
X147950485Y-107449509D01*
X147950477Y-107449492D01*
X147938934Y-107427308D01*
X147938930Y-107427301D01*
X147861022Y-107305641D01*
X147843527Y-107283070D01*
X147843522Y-107283064D01*
X147772531Y-107203069D01*
X147772528Y-107203066D01*
X147772520Y-107203057D01*
X147749344Y-107180198D01*
X147749335Y-107180190D01*
X147749326Y-107180181D01*
X147689403Y-107126704D01*
X147689397Y-107126699D01*
X147660802Y-107103635D01*
X147611219Y-107066693D01*
X147577478Y-107043513D01*
X147536284Y-107017021D01*
X147536272Y-107017013D01*
X147497630Y-106993791D01*
X147476719Y-106981917D01*
X147463002Y-106974128D01*
X147419738Y-106950958D01*
X147397665Y-106939965D01*
X147377040Y-106929694D01*
X147377027Y-106929688D01*
X147377019Y-106929684D01*
X147277662Y-106883820D01*
X147232373Y-106864570D01*
X147232363Y-106864566D01*
X147117614Y-106819880D01*
X147096124Y-106812106D01*
X147080838Y-106806576D01*
X146952889Y-106763773D01*
X146952857Y-106763763D01*
X146952848Y-106763760D01*
X146943638Y-106760887D01*
X146921295Y-106753919D01*
X146782152Y-106713633D01*
X146753670Y-106705949D01*
X146605436Y-106668854D01*
X146590971Y-106665497D01*
X146578521Y-106662607D01*
X146534583Y-106653200D01*
X146423324Y-106629380D01*
X146396831Y-106624171D01*
X146326955Y-106611647D01*
X146264441Y-106580443D01*
X146228720Y-106520395D01*
X146231134Y-106450567D01*
X146238000Y-106433985D01*
X146249214Y-106411634D01*
X146268433Y-106373328D01*
X146280901Y-106347328D01*
X146381639Y-106127219D01*
X146394120Y-106098484D01*
X146482728Y-105883118D01*
X146495386Y-105850338D01*
X146570637Y-105642052D01*
X146583513Y-105603376D01*
X146644179Y-105404503D01*
X146657041Y-105357234D01*
X146701894Y-105170109D01*
X146713875Y-105110180D01*
X146741688Y-104937138D01*
X146750404Y-104858298D01*
X146759947Y-104701673D01*
X146761416Y-104646674D01*
X146761157Y-104611974D01*
X146760720Y-104590791D01*
X146760189Y-104575072D01*
X146758842Y-104548362D01*
X146757859Y-104533706D01*
X146754331Y-104495065D01*
X146752757Y-104481456D01*
X146744912Y-104428890D01*
X146742608Y-104416310D01*
X146736425Y-104389208D01*
X146727154Y-104348567D01*
X146727151Y-104348555D01*
X146723981Y-104336986D01*
X146696307Y-104253975D01*
X146692131Y-104243401D01*
X146647424Y-104148723D01*
X146647416Y-104148708D01*
X146647409Y-104148695D01*
X146642109Y-104139135D01*
X146642103Y-104139125D01*
X146595737Y-104065233D01*
X146594759Y-104063847D01*
X146592610Y-104060801D01*
X146575933Y-104038982D01*
X146555394Y-104012109D01*
X146551923Y-104007909D01*
X146549061Y-104004705D01*
X146510733Y-103961794D01*
X146506909Y-103957829D01*
X146462369Y-103915067D01*
X146458172Y-103911336D01*
X146411644Y-103872992D01*
X146407042Y-103869481D01*
X146359707Y-103835987D01*
X146354715Y-103832718D01*
X146354691Y-103832703D01*
X146285038Y-103791925D01*
X146285034Y-103791923D01*
X146285029Y-103791920D01*
X146285025Y-103791918D01*
X146273744Y-103786052D01*
X146187852Y-103747586D01*
X146174736Y-103742610D01*
X146174727Y-103742607D01*
X146174719Y-103742604D01*
X146174717Y-103742603D01*
X146100358Y-103718453D01*
X146100353Y-103718451D01*
X146100345Y-103718449D01*
X146090935Y-103715890D01*
X146085244Y-103714343D01*
X146023444Y-103700127D01*
X146006239Y-103696877D01*
X145955820Y-103688998D01*
X145936377Y-103686587D01*
X145895833Y-103682599D01*
X145873981Y-103681006D01*
X145854881Y-103680001D01*
X145841518Y-103679298D01*
X145817147Y-103678508D01*
X145817128Y-103678507D01*
X145817107Y-103678507D01*
X145791229Y-103678084D01*
X145764188Y-103678080D01*
X145764161Y-103678080D01*
X145764160Y-103678080D01*
X145764154Y-103678080D01*
X145743492Y-103678341D01*
X145743454Y-103678341D01*
X145743451Y-103678342D01*
X145738852Y-103678459D01*
X145713599Y-103679104D01*
X145696996Y-103679699D01*
X145664254Y-103681209D01*
X145651137Y-103681922D01*
X145615101Y-103684177D01*
X145604762Y-103684892D01*
X145565583Y-103687859D01*
X145553958Y-103688824D01*
X145465478Y-103696828D01*
X145455151Y-103697829D01*
X145352158Y-103708483D01*
X145346243Y-103709117D01*
X145227821Y-103722259D01*
X145227822Y-103722260D01*
X145227749Y-103722268D01*
X145227715Y-103722272D01*
X145224724Y-103722609D01*
X145224656Y-103722616D01*
X145224601Y-103722623D01*
X145224600Y-103722622D01*
X145089546Y-103738121D01*
X145089430Y-103738134D01*
X145089404Y-103738138D01*
X145087221Y-103738402D01*
X145079561Y-103739328D01*
X144977760Y-103752269D01*
X144960583Y-103754641D01*
X144899887Y-103763692D01*
X144859517Y-103769713D01*
X144859493Y-103769716D01*
X144859445Y-103769724D01*
X144842182Y-103772490D01*
X144741878Y-103789696D01*
X144733269Y-103791270D01*
X144724438Y-103792886D01*
X144694048Y-103798789D01*
X144624722Y-103812255D01*
X144607362Y-103815825D01*
X144508046Y-103837391D01*
X144490945Y-103841302D01*
X144391832Y-103865104D01*
X144374934Y-103869355D01*
X144276068Y-103895369D01*
X144276030Y-103895379D01*
X144276005Y-103895386D01*
X144270991Y-103896761D01*
X144259440Y-103899932D01*
X144160499Y-103928225D01*
X144144438Y-103932999D01*
X144045181Y-103963624D01*
X144029701Y-103968573D01*
X143930024Y-104001546D01*
X143920918Y-104004705D01*
X143851130Y-104008078D01*
X143790597Y-103973184D01*
X143758539Y-103911103D01*
X143756319Y-103890562D01*
X143755917Y-103874012D01*
X143751641Y-103697828D01*
X143751550Y-103694095D01*
X143751549Y-103694092D01*
X143751549Y-103694057D01*
X143749409Y-103651767D01*
X143728244Y-103376884D01*
X143722867Y-103327223D01*
X143686634Y-103067986D01*
X143680090Y-103028391D01*
X143658175Y-102913633D01*
X143655985Y-102902586D01*
X143633549Y-102793408D01*
X143631112Y-102781967D01*
X143631107Y-102781945D01*
X143631085Y-102781841D01*
X143608837Y-102681030D01*
X143608825Y-102680975D01*
X143605862Y-102668058D01*
X143584394Y-102577856D01*
X143580339Y-102561570D01*
X143560359Y-102484762D01*
X143553787Y-102460999D01*
X143535965Y-102400190D01*
X143526102Y-102369738D01*
X143522002Y-102357078D01*
X143507004Y-102314864D01*
X143502804Y-102304632D01*
X143477616Y-102243257D01*
X143471389Y-102229944D01*
X143406066Y-102115670D01*
X143400796Y-102107985D01*
X143342810Y-102033248D01*
X143209608Y-101911624D01*
X143209605Y-101911622D01*
X143209601Y-101911618D01*
X143209595Y-101911613D01*
X143206060Y-101909048D01*
X143182707Y-101892723D01*
X143182705Y-101892722D01*
X143182701Y-101892719D01*
X143182691Y-101892713D01*
X143182681Y-101892708D01*
X143022741Y-101809391D01*
X143022724Y-101809384D01*
X143018015Y-101807568D01*
X143018006Y-101807565D01*
X142873250Y-101766792D01*
X142867431Y-101765727D01*
X142867412Y-101765724D01*
X142867405Y-101765723D01*
X142847517Y-101763432D01*
X142761167Y-101753489D01*
X142754228Y-101753155D01*
X142754226Y-101753154D01*
X142676602Y-101753154D01*
X142676601Y-101753154D01*
X142676598Y-101753154D01*
X142668595Y-101753540D01*
X142650813Y-101755040D01*
X142610796Y-101758418D01*
X142601778Y-101759508D01*
X142539049Y-101769609D01*
X142518054Y-101773844D01*
X142461449Y-101787409D01*
X142436736Y-101794285D01*
X142397788Y-101806189D01*
X142369594Y-101815590D01*
X142341012Y-101825724D01*
X142309556Y-101837548D01*
X142287385Y-101846260D01*
X142253070Y-101860334D01*
X142242366Y-101864876D01*
X142235077Y-101867969D01*
X142210569Y-101878720D01*
X142197993Y-101884238D01*
X142182997Y-101891002D01*
X142143512Y-101909303D01*
X142130399Y-101915523D01*
X142088889Y-101935678D01*
X142088840Y-101935702D01*
X142082925Y-101938632D01*
X142077151Y-101941494D01*
X142033813Y-101963405D01*
X142023042Y-101968952D01*
X141977986Y-101992577D01*
X141968078Y-101997861D01*
X141921591Y-102023067D01*
X141912068Y-102028313D01*
X141864633Y-102054859D01*
X141855426Y-102060090D01*
X141806958Y-102088046D01*
X141797663Y-102093490D01*
X141701657Y-102150589D01*
X141687196Y-102159397D01*
X141592064Y-102218716D01*
X141578258Y-102227522D01*
X141484151Y-102288893D01*
X141470939Y-102297695D01*
X141378074Y-102360903D01*
X141365376Y-102369724D01*
X141273948Y-102434562D01*
X141267052Y-102439551D01*
X141261553Y-102443530D01*
X141261527Y-102443548D01*
X141261454Y-102443602D01*
X141171689Y-102509841D01*
X141159596Y-102518940D01*
X141071382Y-102586605D01*
X141059668Y-102595761D01*
X140973321Y-102664555D01*
X140961842Y-102673875D01*
X140877407Y-102743713D01*
X140866121Y-102753225D01*
X140783882Y-102823833D01*
X140767074Y-102838674D01*
X140716333Y-102884751D01*
X140653470Y-102915245D01*
X140584099Y-102906912D01*
X140530245Y-102862397D01*
X140519478Y-102842898D01*
X140518198Y-102839989D01*
X140509084Y-102820025D01*
X140439377Y-102672686D01*
X140434688Y-102662774D01*
X140426145Y-102645270D01*
X140392225Y-102577856D01*
X140346275Y-102486532D01*
X140337870Y-102470290D01*
X140254073Y-102312760D01*
X140245460Y-102296995D01*
X140197195Y-102210946D01*
X140159242Y-102143282D01*
X140149983Y-102127212D01*
X140143286Y-102115892D01*
X140062861Y-101979955D01*
X140052317Y-101962635D01*
X140052314Y-101962630D01*
X139965835Y-101824515D01*
X139953114Y-101804842D01*
X139927720Y-101766794D01*
X139868795Y-101678507D01*
X139868784Y-101678491D01*
X139852329Y-101654768D01*
X139771708Y-101542882D01*
X139748581Y-101512344D01*
X139673157Y-101417518D01*
X139637122Y-101375287D01*
X139568432Y-101300189D01*
X139568424Y-101300181D01*
X139503594Y-101236856D01*
X139503575Y-101236839D01*
X139443157Y-101184133D01*
X139349433Y-101113694D01*
X139349427Y-101113690D01*
X139349423Y-101113687D01*
X139322782Y-101096549D01*
X139211070Y-101036553D01*
X139187066Y-101026004D01*
X139187067Y-101026004D01*
X139187064Y-101026003D01*
X139187061Y-101026002D01*
X139072190Y-100985576D01*
X139072184Y-100985574D01*
X139072180Y-100985573D01*
X139068443Y-100984568D01*
X139068438Y-100984567D01*
X139068431Y-100984565D01*
X139068411Y-100984560D01*
X138984552Y-100966736D01*
X138984539Y-100966733D01*
X138980974Y-100966172D01*
X138980489Y-100966096D01*
X138980486Y-100966095D01*
X138980482Y-100966095D01*
X138906583Y-100957931D01*
X138902215Y-100957652D01*
X138837676Y-100956118D01*
X138833046Y-100956194D01*
X138777243Y-100959042D01*
X138772309Y-100959465D01*
X138723569Y-100965151D01*
X138718407Y-100965913D01*
X138684545Y-100971839D01*
X138676085Y-100973320D01*
X138676080Y-100973320D01*
X138676080Y-100973321D01*
X138670618Y-100974427D01*
X138633453Y-100982877D01*
X138627784Y-100984308D01*
X138579904Y-100997978D01*
X138567886Y-101001816D01*
X138567878Y-101001818D01*
X138567865Y-101001823D01*
X138515096Y-101020718D01*
X138507619Y-101023692D01*
X138502265Y-101025822D01*
X138458787Y-101044618D01*
X138445322Y-101050915D01*
X138408289Y-101069408D01*
X138394238Y-101076882D01*
X138361877Y-101095063D01*
X138347393Y-101103645D01*
X138318381Y-101121678D01*
X138303587Y-101131313D01*
X138276987Y-101149403D01*
X138261997Y-101160040D01*
X138237201Y-101178359D01*
X138222038Y-101190016D01*
X138198446Y-101208866D01*
X138183315Y-101221427D01*
X138160592Y-101241016D01*
X138145558Y-101254471D01*
X138123398Y-101275066D01*
X138108626Y-101289321D01*
X138086775Y-101311231D01*
X138072349Y-101326261D01*
X138055830Y-101343997D01*
X137987198Y-101419939D01*
X137964280Y-101446435D01*
X137894473Y-101530788D01*
X137875877Y-101554127D01*
X137805346Y-101646082D01*
X137789875Y-101666940D01*
X137719040Y-101765729D01*
X137705775Y-101784803D01*
X137635152Y-101889528D01*
X137635116Y-101889582D01*
X137625055Y-101904930D01*
X137623530Y-101907257D01*
X137553458Y-102017272D01*
X137543114Y-102033959D01*
X137474057Y-102148441D01*
X137464622Y-102164501D01*
X137397022Y-102282666D01*
X137388306Y-102298305D01*
X137322608Y-102419361D01*
X137314316Y-102435053D01*
X137251025Y-102558098D01*
X137243027Y-102574084D01*
X137182598Y-102698287D01*
X137174730Y-102714936D01*
X137117602Y-102839511D01*
X137109778Y-102857124D01*
X137104925Y-102868409D01*
X137060355Y-102922217D01*
X136993770Y-102943387D01*
X136926310Y-102925198D01*
X136908327Y-102911824D01*
X136889150Y-102894662D01*
X136829173Y-102842890D01*
X136713091Y-102742687D01*
X136693479Y-102726293D01*
X136621593Y-102668106D01*
X136508304Y-102576406D01*
X136488884Y-102561173D01*
X136488877Y-102561167D01*
X136488843Y-102561141D01*
X136300367Y-102417913D01*
X136279224Y-102402382D01*
X136093098Y-102270256D01*
X136067945Y-102253107D01*
X136067936Y-102253101D01*
X136067908Y-102253082D01*
X135889890Y-102136585D01*
X135856531Y-102115897D01*
X135724303Y-102038292D01*
X135692371Y-102019551D01*
X135642503Y-101992598D01*
X135642496Y-101992594D01*
X135497954Y-101920923D01*
X135438525Y-101894390D01*
X135438512Y-101894384D01*
X135375401Y-101869213D01*
X135314696Y-101847772D01*
X135258604Y-101830449D01*
X135166811Y-101807906D01*
X135139740Y-101802921D01*
X135118509Y-101799012D01*
X135118502Y-101799011D01*
X135118495Y-101799010D01*
X134970758Y-101785694D01*
X134970748Y-101785694D01*
X134937573Y-101785771D01*
X134930936Y-101785787D01*
X134867759Y-101788416D01*
X134867751Y-101788417D01*
X134690757Y-101823018D01*
X134690737Y-101823023D01*
X134660061Y-101832689D01*
X134653559Y-101834768D01*
X134653551Y-101834771D01*
X134489305Y-101909310D01*
X134489303Y-101909311D01*
X134379861Y-101992585D01*
X134347414Y-102017274D01*
X134345755Y-102018536D01*
X134325085Y-102038286D01*
X134325078Y-102038292D01*
X134242117Y-102130817D01*
X134149148Y-102285374D01*
X134149137Y-102285395D01*
X134132975Y-102320696D01*
X134132969Y-102320711D01*
X134100873Y-102402276D01*
X134100867Y-102402293D01*
X134083502Y-102454619D01*
X134070517Y-102497755D01*
X134052280Y-102565112D01*
X134045415Y-102592338D01*
X134026638Y-102672686D01*
X134020807Y-102699713D01*
X133982743Y-102892104D01*
X133978237Y-102916917D01*
X133966640Y-102987024D01*
X133941581Y-103138516D01*
X133941573Y-103138562D01*
X133941573Y-103138568D01*
X133938487Y-103158817D01*
X133905718Y-103393995D01*
X133903117Y-103414588D01*
X133876672Y-103647955D01*
X133874227Y-103673040D01*
X133857388Y-103879036D01*
X133832307Y-103944249D01*
X133775950Y-103985549D01*
X133706212Y-103989825D01*
X133695055Y-103986725D01*
X133674367Y-103979920D01*
X133661671Y-103975922D01*
X133654898Y-103973789D01*
X133540855Y-103939457D01*
X133521767Y-103933966D01*
X133481727Y-103922981D01*
X133405494Y-103902067D01*
X133386940Y-103897215D01*
X133313862Y-103879036D01*
X133268591Y-103867774D01*
X133266418Y-103867260D01*
X133250359Y-103863463D01*
X133129952Y-103836473D01*
X133112161Y-103832698D01*
X132989957Y-103808205D01*
X132972385Y-103804884D01*
X132848463Y-103782892D01*
X132848426Y-103782885D01*
X132848410Y-103782883D01*
X132831216Y-103780023D01*
X132782741Y-103772498D01*
X132705543Y-103760514D01*
X132705517Y-103760510D01*
X132705509Y-103760509D01*
X132688617Y-103758070D01*
X132610146Y-103747586D01*
X132561316Y-103741062D01*
X132561292Y-103741059D01*
X132544700Y-103739017D01*
X132544673Y-103739014D01*
X132544649Y-103739011D01*
X132415823Y-103724513D01*
X132399560Y-103722851D01*
X132269237Y-103710868D01*
X132262545Y-103710281D01*
X132090406Y-103695895D01*
X132079204Y-103695037D01*
X131949331Y-103686008D01*
X131927222Y-103684777D01*
X131876165Y-103682640D01*
X131849118Y-103681964D01*
X131806489Y-103681616D01*
X131806486Y-103681616D01*
X131806481Y-103681616D01*
X131763419Y-103682416D01*
X131728395Y-103684004D01*
X131728390Y-103684004D01*
X131728377Y-103684005D01*
X131660826Y-103689926D01*
X131632650Y-103693596D01*
X131632643Y-103693597D01*
X131528604Y-103714192D01*
X131506516Y-103720099D01*
X131506514Y-103720099D01*
X131398335Y-103757447D01*
X131398323Y-103757451D01*
X131389349Y-103761283D01*
X131304080Y-103803818D01*
X131299085Y-103806690D01*
X131296333Y-103808274D01*
X131296329Y-103808276D01*
X131296318Y-103808283D01*
X131205686Y-103868923D01*
X131205682Y-103868926D01*
X131199093Y-103874012D01*
X131111175Y-103952816D01*
X131105650Y-103958552D01*
X131029394Y-104050488D01*
X131024837Y-104056896D01*
X131024833Y-104056901D01*
X130966337Y-104152628D01*
X130966328Y-104152643D01*
X130962649Y-104159730D01*
X130908860Y-104290175D01*
X130903746Y-104306510D01*
X130903745Y-104306512D01*
X130874886Y-104434418D01*
X130874882Y-104434438D01*
X130872158Y-104453710D01*
X130864517Y-104544876D01*
X130864516Y-104544891D01*
X130863226Y-104592998D01*
X130864459Y-104664061D01*
X130873919Y-104817753D01*
X130882602Y-104896078D01*
X130882603Y-104896085D01*
X130910130Y-105067347D01*
X130921788Y-105125924D01*
X130966092Y-105312179D01*
X130978392Y-105357879D01*
X131038188Y-105556590D01*
X131050368Y-105593770D01*
X131064486Y-105633572D01*
X131123140Y-105798931D01*
X131124381Y-105802428D01*
X131136281Y-105833879D01*
X131160861Y-105894960D01*
X131223221Y-106049924D01*
X131234912Y-106077487D01*
X131234923Y-106077511D01*
X131234924Y-106077514D01*
X131333500Y-106298399D01*
X131345195Y-106323440D01*
X131396201Y-106427944D01*
X131407916Y-106496825D01*
X131380532Y-106561104D01*
X131322742Y-106600374D01*
X131306511Y-106604411D01*
X131279550Y-106609213D01*
X131245684Y-106615997D01*
X131078663Y-106653200D01*
X131048776Y-106660460D01*
X130869293Y-106707700D01*
X130845775Y-106714273D01*
X130664453Y-106767927D01*
X130642540Y-106774752D01*
X130470240Y-106831133D01*
X130470206Y-106831144D01*
X130470196Y-106831148D01*
X130445543Y-106839659D01*
X130445528Y-106839664D01*
X130445509Y-106839671D01*
X130292856Y-106895154D01*
X130258265Y-106908637D01*
X130135894Y-106959613D01*
X130092678Y-106979129D01*
X130046226Y-107001778D01*
X129996057Y-107028468D01*
X129961216Y-107048613D01*
X129961210Y-107048617D01*
X129866959Y-107112399D01*
X129866954Y-107112403D01*
X129845023Y-107129623D01*
X129830452Y-107141342D01*
X129830445Y-107141348D01*
X129704925Y-107270887D01*
X129699265Y-107278218D01*
X129699254Y-107278234D01*
X129636006Y-107373429D01*
X129565232Y-107539340D01*
X129563301Y-107545787D01*
X129550361Y-107594487D01*
X129550361Y-107594488D01*
X129529445Y-107773642D01*
X129529444Y-107773649D01*
X129548916Y-107952955D01*
X129548920Y-107952977D01*
X129552275Y-107967951D01*
X129609237Y-108134369D01*
X129609238Y-108134370D01*
X129617310Y-108151553D01*
X129619032Y-108155217D01*
X129619045Y-108155243D01*
X129671742Y-108250194D01*
X129671752Y-108250209D01*
X129709042Y-108307861D01*
X129745359Y-108359458D01*
X129803588Y-108435659D01*
X129823933Y-108461192D01*
X129899843Y-108552590D01*
X129913260Y-108568329D01*
X130003563Y-108671544D01*
X130013541Y-108682740D01*
X130115001Y-108794458D01*
X130115029Y-108794488D01*
X130126787Y-108807159D01*
X130292535Y-108981977D01*
X130350517Y-109043132D01*
X130358148Y-109050979D01*
X130364656Y-109057671D01*
X130545744Y-109239257D01*
X130594329Y-109287976D01*
X130607049Y-109300354D01*
X130611574Y-109304758D01*
X130662874Y-109353209D01*
X130821292Y-109502830D01*
X130841894Y-109521621D01*
X130841923Y-109521647D01*
X130896971Y-109570137D01*
X130931208Y-109600295D01*
X130955566Y-109620909D01*
X130996513Y-109654192D01*
X131030140Y-109681526D01*
X131072328Y-109713229D01*
X131079168Y-109718369D01*
X131135804Y-109757648D01*
X131135809Y-109757651D01*
X131135819Y-109757658D01*
X131192278Y-109791578D01*
X131239606Y-109842977D01*
X131251633Y-109911804D01*
X131224540Y-109976207D01*
X131192666Y-110003927D01*
X131134652Y-110039071D01*
X131134629Y-110039085D01*
X131134608Y-110039098D01*
X131128501Y-110042890D01*
X131119511Y-110048473D01*
X131000522Y-110124197D01*
X130984993Y-110134333D01*
X130871057Y-110210583D01*
X130854908Y-110221679D01*
X130809673Y-110253572D01*
X130746584Y-110298053D01*
X130746446Y-110298150D01*
X130729422Y-110310486D01*
X130626933Y-110386816D01*
X130608849Y-110400686D01*
X130512689Y-110476622D01*
X130493239Y-110492481D01*
X130403935Y-110567645D01*
X130382698Y-110586164D01*
X130300723Y-110660215D01*
X130277274Y-110682263D01*
X130203138Y-110754822D01*
X130176934Y-110781691D01*
X130111046Y-110852474D01*
X130081606Y-110885911D01*
X130024435Y-110954583D01*
X129991223Y-110997319D01*
X129943240Y-111063538D01*
X129906080Y-111119608D01*
X129867777Y-111182999D01*
X129857189Y-111201512D01*
X129848584Y-111216557D01*
X129721584Y-111451508D01*
X129721547Y-111451577D01*
X129715155Y-111463646D01*
X129650552Y-111632055D01*
X129625042Y-111810617D01*
X129639908Y-111990380D01*
X129639908Y-111990382D01*
X129694400Y-112162327D01*
X129694404Y-112162335D01*
X129785780Y-112317825D01*
X129785784Y-112317831D01*
X129919136Y-112495634D01*
X129945415Y-112528818D01*
X130014327Y-112611293D01*
X130014333Y-112611300D01*
X130014347Y-112611316D01*
X130073552Y-112674870D01*
X130154914Y-112753270D01*
X130154926Y-112753281D01*
X130154933Y-112753287D01*
X130211735Y-112803096D01*
X130211749Y-112803108D01*
X130211771Y-112803127D01*
X130304932Y-112877382D01*
X130357905Y-112916182D01*
X130462236Y-112986250D01*
X130462251Y-112986259D01*
X130462255Y-112986262D01*
X130510790Y-113016417D01*
X130625658Y-113082251D01*
X130669800Y-113105760D01*
X130775663Y-113157986D01*
X130794595Y-113167326D01*
X130834674Y-113185752D01*
X130968731Y-113242990D01*
X131005176Y-113257512D01*
X131147880Y-113310385D01*
X131196676Y-113326711D01*
X131505510Y-113419186D01*
X131562168Y-113433931D01*
X131898033Y-113508416D01*
X131947586Y-113517788D01*
X132305440Y-113573931D01*
X132350210Y-113579675D01*
X132725012Y-113617120D01*
X132766813Y-113620200D01*
X133153521Y-113638596D01*
X133190537Y-113639428D01*
X133193856Y-113639503D01*
X133193858Y-113639502D01*
X133193859Y-113639503D01*
X133587432Y-113638495D01*
X133612145Y-113637815D01*
X133627620Y-113637390D01*
X133901346Y-113623014D01*
X134023007Y-113616626D01*
X134064266Y-113613394D01*
X134456444Y-113572519D01*
X134456446Y-113572518D01*
X134456453Y-113572518D01*
X134463790Y-113571550D01*
X134500027Y-113566771D01*
X134883944Y-113505432D01*
X134931186Y-113496430D01*
X135301803Y-113414274D01*
X135354191Y-113400801D01*
X135706464Y-113297474D01*
X135734266Y-113288454D01*
X135749956Y-113283364D01*
X135749973Y-113283358D01*
X135888496Y-113234028D01*
X135958249Y-113230082D01*
X136019067Y-113264476D01*
X136037253Y-113288454D01*
X136098283Y-113393282D01*
X136098296Y-113393303D01*
X136119401Y-113427557D01*
X136256762Y-113638494D01*
X136256798Y-113638548D01*
X136279536Y-113671632D01*
X136426973Y-113875100D01*
X136440683Y-113893048D01*
X136451656Y-113907414D01*
X136608175Y-114101941D01*
X136632610Y-114130743D01*
X136635233Y-114133835D01*
X136799832Y-114317946D01*
X136799837Y-114317951D01*
X136829852Y-114349745D01*
X137001569Y-114522016D01*
X137035208Y-114553875D01*
X137053362Y-114570103D01*
X137213078Y-114712876D01*
X137251262Y-114744940D01*
X137251279Y-114744954D01*
X137434253Y-114889183D01*
X137434266Y-114889192D01*
X137434278Y-114889202D01*
X137478048Y-114921371D01*
X137665251Y-115049467D01*
X137715859Y-115081403D01*
X137906271Y-115191891D01*
X137944798Y-115212865D01*
X137949025Y-115215019D01*
X137999817Y-115262995D01*
X138016609Y-115330817D01*
X137994068Y-115396951D01*
X137939350Y-115440400D01*
X137892723Y-115449500D01*
X132297154Y-115449500D01*
X132230115Y-115429815D01*
X132209473Y-115413181D01*
X127505819Y-110709527D01*
X127472334Y-110648204D01*
X127469500Y-110621846D01*
X127469500Y-109050995D01*
X127469500Y-109050989D01*
X127438693Y-108816986D01*
X127377606Y-108589007D01*
X127310664Y-108427394D01*
X127297364Y-108395286D01*
X127287288Y-108370959D01*
X127287280Y-108370942D01*
X127217565Y-108250194D01*
X127169273Y-108166549D01*
X127106583Y-108084850D01*
X127025593Y-107979301D01*
X127025587Y-107979294D01*
X126416819Y-107370526D01*
X126383334Y-107309203D01*
X126380500Y-107282845D01*
X126380500Y-106774500D01*
X126400185Y-106707461D01*
X126452989Y-106661706D01*
X126504500Y-106650500D01*
X128014957Y-106650500D01*
X128014958Y-106650499D01*
X128082104Y-106642934D01*
X128149249Y-106635369D01*
X128149252Y-106635368D01*
X128149255Y-106635368D01*
X128319522Y-106575789D01*
X128472262Y-106479816D01*
X128599816Y-106352262D01*
X128695789Y-106199522D01*
X128755368Y-106029255D01*
X128758127Y-106004774D01*
X128768870Y-105909418D01*
X128770500Y-105894954D01*
X128770500Y-104105046D01*
X128764353Y-104050488D01*
X128755369Y-103970750D01*
X128755368Y-103970745D01*
X128739280Y-103924768D01*
X128695789Y-103800478D01*
X128690410Y-103791918D01*
X128658455Y-103741062D01*
X128599816Y-103647738D01*
X128501818Y-103549740D01*
X128468334Y-103488417D01*
X128465500Y-103462059D01*
X128465500Y-102927811D01*
X128463254Y-102913632D01*
X128463253Y-102913629D01*
X128462966Y-102911819D01*
X128430400Y-102706195D01*
X128422223Y-102681030D01*
X128410604Y-102645270D01*
X128361063Y-102492798D01*
X128259197Y-102292874D01*
X128203698Y-102216486D01*
X128127311Y-102111349D01*
X127968651Y-101952689D01*
X127968650Y-101952688D01*
X127965539Y-101949577D01*
X127965524Y-101949563D01*
X127091651Y-101075690D01*
X127087313Y-101071352D01*
X127087311Y-101071349D01*
X126928651Y-100912689D01*
X126928647Y-100912686D01*
X126928142Y-100912181D01*
X126894658Y-100850858D01*
X126899642Y-100781166D01*
X126931740Y-100738289D01*
X126941513Y-100725233D01*
X127006978Y-100700816D01*
X127015824Y-100700500D01*
X136794486Y-100700500D01*
X136981118Y-100670940D01*
X136989671Y-100668161D01*
X137160832Y-100612547D01*
X137329199Y-100526760D01*
X137482074Y-100415690D01*
X141010945Y-96886819D01*
X141072268Y-96853334D01*
X141098626Y-96850500D01*
X141129902Y-96850500D01*
X141243298Y-96832539D01*
X141386493Y-96809860D01*
X141633572Y-96729579D01*
X141865051Y-96611634D01*
X142075229Y-96458931D01*
X142258931Y-96275229D01*
X142411634Y-96065051D01*
X142529579Y-95833572D01*
X142609860Y-95586493D01*
X142632982Y-95440504D01*
X142650500Y-95329902D01*
X142650500Y-95070097D01*
X142623980Y-94902659D01*
X142609860Y-94813507D01*
X142529579Y-94566428D01*
X142529577Y-94566425D01*
X142529577Y-94566423D01*
X142480661Y-94470421D01*
X142411634Y-94334949D01*
X142258931Y-94124771D01*
X142151841Y-94017681D01*
X142118356Y-93956358D01*
X142123340Y-93886666D01*
X142151841Y-93842319D01*
X142194367Y-93799793D01*
X142258931Y-93735229D01*
X142411634Y-93525051D01*
X142529579Y-93293572D01*
X142609860Y-93046493D01*
X142632539Y-92903298D01*
X142650500Y-92789902D01*
X142650500Y-92530097D01*
X142628947Y-92394021D01*
X142609860Y-92273507D01*
X142529579Y-92026428D01*
X142529577Y-92026425D01*
X142529577Y-92026423D01*
X142479076Y-91927311D01*
X142411634Y-91794949D01*
X142258931Y-91584771D01*
X142151841Y-91477681D01*
X142118356Y-91416358D01*
X142123340Y-91346666D01*
X142151841Y-91302319D01*
X142201289Y-91252871D01*
X142258931Y-91195229D01*
X142411634Y-90985051D01*
X142529579Y-90753572D01*
X142609860Y-90506493D01*
X142632539Y-90363298D01*
X142650500Y-90249902D01*
X142650500Y-89990097D01*
X142623065Y-89816884D01*
X142609860Y-89733507D01*
X142529579Y-89486428D01*
X142529577Y-89486425D01*
X142529577Y-89486423D01*
X142450822Y-89331860D01*
X142411634Y-89254949D01*
X142258931Y-89044771D01*
X142151841Y-88937681D01*
X142118356Y-88876358D01*
X142123340Y-88806666D01*
X142151841Y-88762319D01*
X142258931Y-88655229D01*
X142411634Y-88445051D01*
X142529579Y-88213572D01*
X142609860Y-87966493D01*
X142632539Y-87823298D01*
X142650500Y-87709902D01*
X142650500Y-87450097D01*
X142625226Y-87290527D01*
X142609860Y-87193507D01*
X142529579Y-86946428D01*
X142529577Y-86946425D01*
X142529577Y-86946423D01*
X142464189Y-86818094D01*
X142411634Y-86714949D01*
X142258931Y-86504771D01*
X142151841Y-86397681D01*
X142118356Y-86336358D01*
X142123340Y-86266666D01*
X142151841Y-86222319D01*
X142186654Y-86187506D01*
X142258931Y-86115229D01*
X142411634Y-85905051D01*
X142529579Y-85673572D01*
X142609860Y-85426493D01*
X142638897Y-85243153D01*
X142668824Y-85180023D01*
X142673670Y-85174892D01*
X146915690Y-80932873D01*
X147026760Y-80779999D01*
X147112547Y-80611632D01*
X147170940Y-80431918D01*
X147187882Y-80324950D01*
X147200500Y-80245286D01*
X147200500Y-60905513D01*
X147170940Y-60718881D01*
X147135046Y-60608412D01*
X147112547Y-60539168D01*
X147112545Y-60539165D01*
X147112545Y-60539163D01*
X147057635Y-60431397D01*
X147026760Y-60370801D01*
X146996433Y-60329060D01*
X146964135Y-60284606D01*
X146915693Y-60217929D01*
X140782076Y-54084312D01*
X140782074Y-54084310D01*
X140629199Y-53973240D01*
X140508446Y-53911713D01*
X140457651Y-53863740D01*
X140440856Y-53795919D01*
X140463393Y-53729784D01*
X140518108Y-53686332D01*
X140565070Y-53677229D01*
X167348735Y-53748274D01*
G37*
%TD.AperFunction*%
%TA.AperFunction,NonConductor*%
G36*
X79487987Y-53515220D02*
G01*
X79554970Y-53535082D01*
X79600585Y-53588007D01*
X79610345Y-53657192D01*
X79581151Y-53720670D01*
X79575335Y-53726900D01*
X73584304Y-59717931D01*
X73503567Y-59829057D01*
X73503568Y-59829058D01*
X73473242Y-59870797D01*
X73473236Y-59870808D01*
X73387454Y-60039163D01*
X73329059Y-60218881D01*
X73299500Y-60405513D01*
X73299500Y-98868636D01*
X73329059Y-99055268D01*
X73387454Y-99234986D01*
X73473240Y-99403349D01*
X73584310Y-99556224D01*
X74961258Y-100933172D01*
X76313181Y-102285094D01*
X76346666Y-102346417D01*
X76349500Y-102372775D01*
X76349500Y-102894960D01*
X76364630Y-103029249D01*
X76364631Y-103029254D01*
X76424211Y-103199523D01*
X76520184Y-103352262D01*
X76620576Y-103452654D01*
X76654061Y-103513977D01*
X76649077Y-103583669D01*
X76633214Y-103613219D01*
X76588367Y-103674946D01*
X76470422Y-103906423D01*
X76390140Y-104153506D01*
X76349500Y-104410097D01*
X76349500Y-104669902D01*
X76390140Y-104926493D01*
X76470422Y-105173576D01*
X76541041Y-105312171D01*
X76578910Y-105386493D01*
X76588368Y-105405054D01*
X76741066Y-105615225D01*
X76741071Y-105615231D01*
X76848159Y-105722319D01*
X76881644Y-105783642D01*
X76876660Y-105853334D01*
X76848159Y-105897681D01*
X76741071Y-106004768D01*
X76741066Y-106004774D01*
X76588368Y-106214945D01*
X76470422Y-106446423D01*
X76390140Y-106693506D01*
X76349501Y-106950089D01*
X76349500Y-106950096D01*
X76349500Y-107209902D01*
X76390140Y-107466493D01*
X76470422Y-107713576D01*
X76588368Y-107945054D01*
X76741066Y-108155225D01*
X76741071Y-108155231D01*
X76763181Y-108177341D01*
X76777884Y-108204268D01*
X76794477Y-108230087D01*
X76795368Y-108236287D01*
X76796666Y-108238664D01*
X76799500Y-108265022D01*
X76799500Y-108434978D01*
X76779815Y-108502017D01*
X76763181Y-108522659D01*
X76741071Y-108544768D01*
X76741066Y-108544774D01*
X76588368Y-108754945D01*
X76470422Y-108986423D01*
X76390140Y-109233506D01*
X76349500Y-109490097D01*
X76349500Y-109749902D01*
X76390140Y-110006493D01*
X76470422Y-110253576D01*
X76538318Y-110386827D01*
X76584071Y-110476622D01*
X76588368Y-110485054D01*
X76741066Y-110695225D01*
X76741071Y-110695231D01*
X76848159Y-110802319D01*
X76881644Y-110863642D01*
X76876660Y-110933334D01*
X76848159Y-110977681D01*
X76741071Y-111084768D01*
X76741066Y-111084774D01*
X76588368Y-111294945D01*
X76470422Y-111526423D01*
X76390140Y-111773506D01*
X76349500Y-112030097D01*
X76349500Y-112289902D01*
X76390140Y-112546493D01*
X76470422Y-112793576D01*
X76551534Y-112952764D01*
X76575464Y-112999730D01*
X76588368Y-113025054D01*
X76741066Y-113235225D01*
X76741071Y-113235231D01*
X76763181Y-113257341D01*
X76777884Y-113284268D01*
X76794477Y-113310087D01*
X76795368Y-113316287D01*
X76796666Y-113318664D01*
X76799500Y-113345022D01*
X76799500Y-113514978D01*
X76779815Y-113582017D01*
X76763181Y-113602659D01*
X76741071Y-113624768D01*
X76741066Y-113624774D01*
X76588368Y-113834945D01*
X76470422Y-114066423D01*
X76390140Y-114313506D01*
X76349500Y-114570097D01*
X76349500Y-114829902D01*
X76390140Y-115086493D01*
X76470422Y-115333576D01*
X76588368Y-115565054D01*
X76741066Y-115775225D01*
X76741069Y-115775229D01*
X76924771Y-115958931D01*
X77134949Y-116111634D01*
X77244949Y-116167682D01*
X77366423Y-116229577D01*
X77366425Y-116229577D01*
X77366428Y-116229579D01*
X77613507Y-116309860D01*
X77745706Y-116330797D01*
X77870098Y-116350500D01*
X77870103Y-116350500D01*
X78129902Y-116350500D01*
X78243298Y-116332539D01*
X78386493Y-116309860D01*
X78633572Y-116229579D01*
X78865051Y-116111634D01*
X79075229Y-115958931D01*
X79258931Y-115775229D01*
X79411634Y-115565051D01*
X79529579Y-115333572D01*
X79609860Y-115086493D01*
X79632539Y-114943298D01*
X79650500Y-114829902D01*
X79650500Y-114570097D01*
X79615598Y-114349737D01*
X79609860Y-114313507D01*
X79529579Y-114066428D01*
X79529577Y-114066425D01*
X79529577Y-114066423D01*
X79486787Y-113982445D01*
X79411634Y-113834949D01*
X79258931Y-113624771D01*
X79236819Y-113602659D01*
X79222115Y-113575731D01*
X79205523Y-113549913D01*
X79204631Y-113543712D01*
X79203334Y-113541336D01*
X79200500Y-113514978D01*
X79200500Y-113345022D01*
X79220185Y-113277983D01*
X79236819Y-113257341D01*
X79241958Y-113252202D01*
X79258931Y-113235229D01*
X79411634Y-113025051D01*
X79529579Y-112793572D01*
X79609860Y-112546493D01*
X79634145Y-112393163D01*
X79650500Y-112289902D01*
X79650500Y-112030097D01*
X79623319Y-111858484D01*
X79609860Y-111773507D01*
X79529579Y-111526428D01*
X79529577Y-111526425D01*
X79529577Y-111526423D01*
X79456233Y-111382480D01*
X79411634Y-111294949D01*
X79258931Y-111084771D01*
X79151841Y-110977681D01*
X79118356Y-110916358D01*
X79123340Y-110846666D01*
X79151841Y-110802319D01*
X79199338Y-110754822D01*
X79258931Y-110695229D01*
X79411634Y-110485051D01*
X79529579Y-110253572D01*
X79609860Y-110006493D01*
X79645759Y-109779832D01*
X79650500Y-109749902D01*
X79650500Y-109490097D01*
X79628819Y-109353209D01*
X79609860Y-109233507D01*
X79529579Y-108986428D01*
X79529577Y-108986425D01*
X79529577Y-108986423D01*
X79470580Y-108870637D01*
X79411634Y-108754949D01*
X79258931Y-108544771D01*
X79236819Y-108522659D01*
X79222115Y-108495731D01*
X79205523Y-108469913D01*
X79204631Y-108463712D01*
X79203334Y-108461336D01*
X79200500Y-108434978D01*
X79200500Y-108265022D01*
X79220185Y-108197983D01*
X79236819Y-108177341D01*
X79247616Y-108166544D01*
X79258931Y-108155229D01*
X79411634Y-107945051D01*
X79529579Y-107713572D01*
X79609860Y-107466493D01*
X79638912Y-107283064D01*
X79650500Y-107209902D01*
X79650500Y-107178625D01*
X79670185Y-107111586D01*
X79686819Y-107090944D01*
X80023844Y-106753919D01*
X80367390Y-106410373D01*
X80478460Y-106257499D01*
X80564247Y-106089132D01*
X80622640Y-105909418D01*
X80624931Y-105894954D01*
X80652200Y-105722786D01*
X80652200Y-100967523D01*
X80671885Y-100900484D01*
X80724689Y-100854729D01*
X80793847Y-100844785D01*
X80857403Y-100873810D01*
X80863881Y-100879842D01*
X81171581Y-101187542D01*
X81205066Y-101248865D01*
X81207900Y-101275223D01*
X81207900Y-109905595D01*
X81230065Y-110045537D01*
X81243000Y-110127205D01*
X81312338Y-110340606D01*
X81414205Y-110540528D01*
X81546082Y-110722043D01*
X81546086Y-110722047D01*
X81546089Y-110722051D01*
X81630763Y-110806725D01*
X81709079Y-110885041D01*
X81709090Y-110885051D01*
X83218526Y-112394488D01*
X83248775Y-112443849D01*
X83263814Y-112490132D01*
X83310422Y-112633576D01*
X83359710Y-112730307D01*
X83412443Y-112833801D01*
X83428368Y-112865054D01*
X83581066Y-113075225D01*
X83581069Y-113075229D01*
X83764771Y-113258931D01*
X83974949Y-113411634D01*
X84108761Y-113479815D01*
X84206423Y-113529577D01*
X84206425Y-113529577D01*
X84206428Y-113529579D01*
X84453507Y-113609860D01*
X84585706Y-113630797D01*
X84710098Y-113650500D01*
X84710103Y-113650500D01*
X84969902Y-113650500D01*
X85088478Y-113631719D01*
X85226493Y-113609860D01*
X85473572Y-113529579D01*
X85651313Y-113439014D01*
X85707608Y-113425500D01*
X86512392Y-113425500D01*
X86568687Y-113439015D01*
X86746423Y-113529577D01*
X86746425Y-113529577D01*
X86746428Y-113529579D01*
X86993507Y-113609860D01*
X87125706Y-113630797D01*
X87250098Y-113650500D01*
X87250103Y-113650500D01*
X87509902Y-113650500D01*
X87628478Y-113631719D01*
X87766493Y-113609860D01*
X88013572Y-113529579D01*
X88191313Y-113439014D01*
X88247608Y-113425500D01*
X89052392Y-113425500D01*
X89108687Y-113439015D01*
X89286423Y-113529577D01*
X89286425Y-113529577D01*
X89286428Y-113529579D01*
X89533507Y-113609860D01*
X89665706Y-113630797D01*
X89790098Y-113650500D01*
X89790103Y-113650500D01*
X90049902Y-113650500D01*
X90168478Y-113631719D01*
X90306493Y-113609860D01*
X90553572Y-113529579D01*
X90731313Y-113439014D01*
X90787608Y-113425500D01*
X91592392Y-113425500D01*
X91648687Y-113439015D01*
X91826423Y-113529577D01*
X91826425Y-113529577D01*
X91826428Y-113529579D01*
X92073507Y-113609860D01*
X92205706Y-113630797D01*
X92330098Y-113650500D01*
X92330103Y-113650500D01*
X92589902Y-113650500D01*
X92708478Y-113631719D01*
X92846493Y-113609860D01*
X93093572Y-113529579D01*
X93271313Y-113439014D01*
X93327608Y-113425500D01*
X94132392Y-113425500D01*
X94188687Y-113439015D01*
X94366423Y-113529577D01*
X94366425Y-113529577D01*
X94366428Y-113529579D01*
X94613507Y-113609860D01*
X94745706Y-113630797D01*
X94870098Y-113650500D01*
X94870103Y-113650500D01*
X95129902Y-113650500D01*
X95248478Y-113631719D01*
X95386493Y-113609860D01*
X95633572Y-113529579D01*
X95811313Y-113439014D01*
X95867608Y-113425500D01*
X96672392Y-113425500D01*
X96728687Y-113439015D01*
X96906423Y-113529577D01*
X96906425Y-113529577D01*
X96906428Y-113529579D01*
X97153507Y-113609860D01*
X97285706Y-113630797D01*
X97410098Y-113650500D01*
X97410103Y-113650500D01*
X97669902Y-113650500D01*
X97788478Y-113631719D01*
X97926493Y-113609860D01*
X98173572Y-113529579D01*
X98351313Y-113439014D01*
X98407608Y-113425500D01*
X99212392Y-113425500D01*
X99268687Y-113439015D01*
X99446423Y-113529577D01*
X99446425Y-113529577D01*
X99446428Y-113529579D01*
X99693507Y-113609860D01*
X99825706Y-113630797D01*
X99950098Y-113650500D01*
X99950103Y-113650500D01*
X100209902Y-113650500D01*
X100328478Y-113631719D01*
X100466493Y-113609860D01*
X100713572Y-113529579D01*
X100891313Y-113439014D01*
X100947608Y-113425500D01*
X101752392Y-113425500D01*
X101808687Y-113439015D01*
X101986423Y-113529577D01*
X101986425Y-113529577D01*
X101986428Y-113529579D01*
X102233507Y-113609860D01*
X102365706Y-113630797D01*
X102490098Y-113650500D01*
X102490103Y-113650500D01*
X102749902Y-113650500D01*
X102868478Y-113631719D01*
X103006493Y-113609860D01*
X103253572Y-113529579D01*
X103431313Y-113439014D01*
X103487608Y-113425500D01*
X104292392Y-113425500D01*
X104348687Y-113439015D01*
X104526423Y-113529577D01*
X104526425Y-113529577D01*
X104526428Y-113529579D01*
X104773507Y-113609860D01*
X104905706Y-113630797D01*
X105030098Y-113650500D01*
X105030103Y-113650500D01*
X105289902Y-113650500D01*
X105408478Y-113631719D01*
X105546493Y-113609860D01*
X105793572Y-113529579D01*
X105971313Y-113439014D01*
X105984316Y-113435893D01*
X105992673Y-113430523D01*
X106027608Y-113425500D01*
X106242060Y-113425500D01*
X106309099Y-113445185D01*
X106329741Y-113461819D01*
X106347738Y-113479816D01*
X106388504Y-113505431D01*
X106500385Y-113575731D01*
X106500478Y-113575789D01*
X106640452Y-113624768D01*
X106670745Y-113635368D01*
X106670750Y-113635369D01*
X106761246Y-113645565D01*
X106805040Y-113650499D01*
X106805043Y-113650500D01*
X106805046Y-113650500D01*
X108594957Y-113650500D01*
X108594958Y-113650499D01*
X108662104Y-113642934D01*
X108729249Y-113635369D01*
X108729252Y-113635368D01*
X108729255Y-113635368D01*
X108899522Y-113575789D01*
X109052262Y-113479816D01*
X109070259Y-113461819D01*
X109131582Y-113428334D01*
X109157940Y-113425500D01*
X120941195Y-113425500D01*
X121162805Y-113390400D01*
X121376202Y-113321063D01*
X121576125Y-113219197D01*
X121579621Y-113216657D01*
X121757651Y-113087311D01*
X121916311Y-112928651D01*
X121916312Y-112928649D01*
X121923372Y-112921589D01*
X121923377Y-112921582D01*
X123656820Y-111188139D01*
X123718142Y-111154656D01*
X123787834Y-111159640D01*
X123843767Y-111201512D01*
X123868184Y-111266976D01*
X123868500Y-111275822D01*
X123868500Y-111537004D01*
X123868501Y-111537020D01*
X123899306Y-111771010D01*
X123960394Y-111998993D01*
X124007282Y-112112190D01*
X124007282Y-112112191D01*
X124050711Y-112217041D01*
X124050719Y-112217057D01*
X124168722Y-112421442D01*
X124168733Y-112421458D01*
X124312406Y-112608697D01*
X124312412Y-112608704D01*
X130310294Y-118606587D01*
X130310300Y-118606592D01*
X130497549Y-118750273D01*
X130701950Y-118868284D01*
X130792272Y-118905696D01*
X130920007Y-118958606D01*
X131097726Y-119006225D01*
X131157385Y-119042590D01*
X131187914Y-119105437D01*
X131179619Y-119174813D01*
X131135134Y-119228691D01*
X131068582Y-119249965D01*
X131065631Y-119250000D01*
X72901362Y-119250000D01*
X72871921Y-119241355D01*
X72841935Y-119234832D01*
X72836919Y-119231077D01*
X72834323Y-119230315D01*
X72813681Y-119213681D01*
X72786319Y-119186319D01*
X72752834Y-119124996D01*
X72750000Y-119098638D01*
X72750000Y-53648806D01*
X72769685Y-53581767D01*
X72786434Y-53561010D01*
X72813563Y-53533952D01*
X72874929Y-53500548D01*
X72901452Y-53497749D01*
X79487987Y-53515220D01*
G37*
%TD.AperFunction*%
M02*
